<svg version="1.1" viewBox="0.0 0.0 808.0 365.0" fill="none" stroke="none" stroke-linecap="square" stroke-miterlimit="10" width="808" height="365" xmlns:xlink="http://www.w3.org/1999/xlink" xmlns="http://www.w3.org/2000/svg"><path fill="#000000" d="M0 0L808.0 0L808.0 365.0L0 365.0L0 0Z" fill-rule="nonzero"/><path fill="#1d55b3" d="M404.0 112.69375C421.3431 112.69375 438.241 116.53707 452.27185 123.67288L452.27185 148.31038C438.241 141.17458 421.3431 137.33125 404.0 137.33125Z" fill-rule="nonzero"/><path fill="#2979ff" d="M404.0 55.20625C438.6862 55.20625 472.482 62.8929 500.54373 77.16452L452.27185 123.67288C438.241 116.53707 421.3431 112.69375 404.0 112.69375Z" fill-rule="nonzero"/><path fill="#9500ae" d="M452.27185 123.67288C466.30273 130.8087 476.74622 140.87065 482.10553 152.41664L482.10553 177.05414C476.74622 165.50815 466.30273 155.4462 452.27185 148.31038Z" fill-rule="nonzero"/><path fill="#d500f9" d="M500.54373 77.16452C528.60547 91.43614 549.49243 111.56005 560.21106 134.65202L482.10553 152.41664C476.74622 140.87065 466.30273 130.8087 452.27185 123.67288Z" fill-rule="nonzero"/><path fill="#ac003d" d="M568.25 194.81876C568.25 206.88373 565.5372 218.8735 560.21106 230.34798L560.21106 205.71048C565.5372 194.23601 568.25 182.24622 568.25 170.18124Z" fill-rule="nonzero"/><path fill="#ac003d" d="M482.10553 152.41664C484.7686 158.15387 486.125 164.14876 486.125 170.18124L486.125 194.81876C486.125 188.78627 484.7686 182.79137 482.10553 177.05414Z" fill-rule="nonzero"/><path fill="#f50057" d="M560.21106 134.65202C570.9296 157.74399 570.9296 182.61852 560.21106 205.71048L482.10553 187.94586C487.4648 176.39987 487.4648 163.96262 482.10553 152.41664Z" fill-rule="nonzero"/><path fill="#b3a400" d="M560.21106 230.34798C549.49243 253.43996 528.60547 273.56384 500.54373 287.83548L500.54373 263.19797C528.60547 248.92636 549.49243 228.80244 560.21106 205.71048Z" fill-rule="nonzero"/><path fill="#ffea00" d="M560.21106 205.71048C549.49243 228.80244 528.60547 248.92636 500.54373 263.19797L452.27185 216.68962C466.30273 209.5538 476.74622 199.49185 482.10553 187.94586Z" fill-rule="nonzero"/><path fill="#b32b00" d="M500.54373 287.83548C472.482 302.10712 438.6862 309.79376 404.0 309.79376L404.0 285.15625C438.6862 285.15625 472.482 277.4696 500.54373 263.19797Z" fill-rule="nonzero"/><path fill="#ff3d00" d="M500.54373 263.19797C472.482 277.4696 438.6862 285.15625 404.0 285.15625L404.0 227.66875C421.3431 227.66875 438.241 223.82542 452.27185 216.68962Z" fill-rule="nonzero"/><path fill="#53b302" d="M404.0 309.79376C313.28723 309.79376 239.75 258.3177 239.75 194.81876L239.75 170.18124C239.75 233.68019 313.28723 285.15625 404.0 285.15625Z" fill-rule="nonzero"/><path fill="#53b302" d="M321.875 170.18124C321.875 138.43178 358.64362 112.69375 404.0 112.69375L404.0 137.33125C358.64362 137.33125 321.875 163.06927 321.875 194.81876Z" fill-rule="nonzero"/><path fill="#76ff03" d="M404.0 285.15625C313.28723 285.15625 239.75 233.68019 239.75 170.18124C239.75 106.68231 313.28723 55.20625 404.0 55.20625L404.0 112.69375C358.64362 112.69375 321.875 138.43178 321.875 170.18124C321.875 201.93073 358.64362 227.66875 404.0 227.66875Z" fill-rule="nonzero"/><path fill="#ffffff" d="M22.890625 163.025L23.890625 163.18124Q23.71875 164.47812 23.03125 165.16562Q22.34375 165.85312 21.375 165.85312Q20.203125 165.85312 19.4375 164.9Q18.6875 163.93124 18.6875 162.04062Q18.6875 160.15 19.453125 159.2125Q20.21875 158.25937 21.421875 158.25937Q22.34375 158.25937 22.96875 158.8375Q23.609375 159.4 23.78125 160.55624L22.796875 160.74374Q22.65625 159.99374 22.296875 159.63437Q21.953125 159.275 21.453125 159.275Q20.703125 159.275 20.21875 159.93124Q19.734375 160.5875 19.734375 162.025Q19.734375 163.50937 20.1875 164.18124Q20.65625 164.8375 21.390625 164.8375Q21.96875 164.8375 22.375 164.4Q22.78125 163.94687 22.890625 163.025ZM24.96875 168.47812L24.859375 167.32187Q25.1875 167.43124 25.421875 167.43124Q25.75 167.43124 25.953125 167.29062Q26.171875 167.16562 26.296875 166.9Q26.34375 166.80624 26.703125 165.69687L24.4375 158.41562L25.515625 158.41562L26.765625 162.61874Q27.0 163.41562 27.203125 164.30624Q27.375 163.4625 27.609375 162.65L28.875 158.41562L29.890625 158.41562L27.625 165.80624Q27.1875 167.24374 26.921875 167.7125Q26.671875 168.19687 26.34375 168.41562Q26.015625 168.63437 25.609375 168.63437Q25.328125 168.63437 24.96875 168.47812ZM31.921875 165.68124L30.984375 165.68124L30.984375 155.66562L31.984375 155.66562L31.984375 159.22812Q32.3125 158.74374 32.71875 158.50937Q33.125 158.25937 33.625 158.25937Q34.3125 158.25937 34.875 158.68124Q35.453125 159.0875 35.796875 159.94687Q36.140625 160.79062 36.140625 161.99374Q36.140625 163.8375 35.359375 164.85312Q34.59375 165.85312 33.5625 165.85312Q33.046875 165.85312 32.625 165.5875Q32.21875 165.30624 31.921875 164.775L31.921875 165.68124ZM31.90625 161.99374Q31.90625 163.11874 32.109375 163.68124Q32.3125 164.24374 32.6875 164.54062Q33.0625 164.8375 33.53125 164.8375Q34.140625 164.8375 34.625 164.13437Q35.109375 163.43124 35.109375 162.04062Q35.109375 160.60312 34.640625 159.94687Q34.1875 159.275 33.5 159.275Q32.875 159.275 32.390625 159.97812Q31.90625 160.66562 31.90625 161.99374ZM41.0625 163.3375L42.109375 163.49374Q41.84375 164.66562 41.15625 165.25937Q40.484375 165.85312 39.484375 165.85312Q38.21875 165.85312 37.421875 164.9Q36.640625 163.93124 36.640625 162.11874Q36.640625 160.22812 37.421875 159.24374Q38.21875 158.25937 39.4375 158.25937Q40.59375 158.25937 41.359375 159.22812Q42.140625 160.19687 42.140625 162.04062L42.125 162.36874L37.6875 162.36874Q37.75 163.5875 38.25 164.2125Q38.765625 164.8375 39.484375 164.8375Q40.625 164.8375 41.0625 163.3375ZM37.75 161.35312L41.0625 161.35312Q41.0 160.41562 40.671875 159.94687Q40.1875 159.275 39.421875 159.275Q38.75 159.275 38.265625 159.8375Q37.796875 160.4 37.75 161.35312ZM42.984375 165.68124L42.984375 158.41562L43.890625 158.41562L43.890625 159.525Q44.25 158.75937 44.53125 158.50937Q44.828125 158.25937 45.1875 158.25937Q45.703125 158.25937 46.21875 158.65L45.875 159.79062Q45.5 159.525 45.15625 159.525Q44.828125 159.525 44.5625 159.75937Q44.296875 159.97812 44.1875 160.38437Q44.0 161.0875 44.0 161.88437L44.0 165.68124L42.984375 165.68124ZM46.875 160.775Q46.875 160.025 47.296875 159.54062Q47.734375 159.04062 48.296875 159.04062Q48.875 159.04062 49.296875 159.54062Q49.71875 160.025 49.71875 160.775Q49.71875 161.525 49.28125 162.025Q48.859375 162.50937 48.296875 162.50937Q47.734375 162.50937 47.296875 162.025Q46.875 161.525 46.875 160.775ZM50.234375 165.68124L53.390625 155.66562L54.5625 155.66562L57.921875 165.68124L56.6875 165.68124L55.71875 162.65L52.296875 162.65L51.390625 165.68124L50.234375 165.68124ZM52.609375 161.57187L55.390625 161.57187L54.53125 158.79062Q54.140625 157.50937 53.953125 156.7125Q53.796875 157.68124 53.515625 158.61874L52.609375 161.57187ZM62.890625 165.68124L62.890625 164.61874Q62.546875 165.22812 62.0625 165.54062Q61.59375 165.85312 61.0 165.85312Q60.296875 165.85312 59.796875 165.47812Q59.296875 165.0875 59.125 164.50937Q58.96875 163.93124 58.96875 162.91562L58.96875 158.41562L59.96875 158.41562L59.96875 162.44687Q59.96875 163.57187 60.078125 163.94687Q60.203125 164.32187 60.5 164.55624Q60.8125 164.79062 61.203125 164.79062Q61.921875 164.79062 62.390625 164.19687Q62.78125 163.68124 62.78125 162.30624L62.78125 158.41562L63.796875 158.41562L63.796875 165.68124L62.890625 165.68124ZM68.890625 163.025L69.890625 163.18124Q69.71875 164.47812 69.03125 165.16562Q68.34375 165.85312 67.375 165.85312Q66.203125 165.85312 65.4375 164.9Q64.6875 163.93124 64.6875 162.04062Q64.6875 160.15 65.453125 159.2125Q66.21875 158.25937 67.421875 158.25937Q68.34375 158.25937 68.96875 158.8375Q69.609375 159.4 69.78125 160.55624L68.796875 160.74374Q68.65625 159.99374 68.296875 159.63437Q67.953125 159.275 67.453125 159.275Q66.703125 159.275 66.21875 159.93124Q65.734375 160.5875 65.734375 162.025Q65.734375 163.50937 66.1875 164.18124Q66.65625 164.8375 67.390625 164.8375Q67.96875 164.8375 68.375 164.4Q68.78125 163.94687 68.890625 163.025ZM73.234375 164.5875L73.375 165.66562Q72.953125 165.775 72.625 165.775Q72.09375 165.775 71.765625 165.57187Q71.453125 165.35312 71.328125 164.99374Q71.21875 164.63437 71.21875 163.55624L71.21875 159.38437L70.46875 159.38437L70.46875 158.41562L71.21875 158.41562L71.21875 156.61874L72.21875 155.88437L72.21875 158.41562L73.234375 158.41562L73.234375 159.38437L72.21875 159.38437L72.21875 163.61874Q72.21875 164.2125 72.3125 164.38437Q72.4375 164.63437 72.796875 164.63437Q72.96875 164.63437 73.234375 164.5875ZM73.984375 157.07187L73.984375 155.66562L75.0 155.66562L75.0 157.07187L73.984375 157.07187ZM73.984375 165.68124L73.984375 158.41562L75.0 158.41562L75.0 165.68124L73.984375 165.68124ZM76.609375 162.05624Q76.609375 160.16562 77.390625 159.2125Q78.1875 158.25937 79.40625 158.25937Q80.59375 158.25937 81.390625 159.2125Q82.1875 160.16562 82.1875 161.97812Q82.1875 163.93124 81.40625 164.9Q80.625 165.85312 79.40625 165.85312Q78.203125 165.85312 77.40625 164.9Q76.609375 163.93124 76.609375 162.05624ZM77.640625 162.05624Q77.640625 163.4625 78.15625 164.15Q78.671875 164.8375 79.421875 164.8375Q80.140625 164.8375 80.640625 164.15Q81.15625 163.44687 81.15625 162.05624Q81.15625 160.65 80.640625 159.9625Q80.140625 159.275 79.375 159.275Q78.65625 159.275 78.140625 159.9625Q77.640625 160.65 77.640625 162.05624ZM82.984375 165.68124L82.984375 158.41562L83.890625 158.41562L83.890625 159.44687Q84.21875 158.85312 84.6875 158.55624Q85.171875 158.25937 85.796875 158.25937Q86.265625 158.25937 86.671875 158.44687Q87.078125 158.63437 87.328125 158.94687Q87.578125 159.24374 87.703125 159.72812Q87.828125 160.2125 87.828125 161.2125L87.828125 165.68124L86.8125 165.68124L86.8125 161.25937Q86.8125 160.4625 86.671875 160.10312Q86.546875 159.72812 86.25 159.525Q85.96875 159.32187 85.578125 159.32187Q84.859375 159.32187 84.421875 159.86874Q84.0 160.4 84.0 161.7125L84.0 165.68124L82.984375 165.68124Z" fill-rule="nonzero"/><path fill="#616161" d="M18.703125 183.05624L19.765625 182.94687Q19.890625 183.9 20.328125 184.36874Q20.765625 184.8375 21.328125 184.8375Q22.046875 184.8375 22.5625 184.18124Q23.09375 183.525 23.09375 182.38437Q23.09375 181.30624 22.578125 180.7125Q22.078125 180.11874 21.328125 180.11874Q20.875 180.11874 20.46875 180.38437Q20.0625 180.63437 19.84375 181.0875L18.890625 180.94687L19.6875 175.79062L23.765625 175.79062L23.765625 176.97812L20.5 176.97812L20.046875 179.66562Q20.78125 179.04062 21.59375 179.04062Q22.625 179.04062 23.390625 179.91562Q24.15625 180.79062 24.15625 182.29062Q24.15625 183.75937 23.390625 184.80624Q22.625 185.85312 21.34375 185.85312Q20.28125 185.85312 19.546875 185.11874Q18.8125 184.36874 18.703125 183.05624ZM24.703125 180.74374Q24.703125 178.2125 25.375 176.91562Q26.0625 175.61874 27.390625 175.61874Q28.578125 175.61874 29.25 176.66562Q30.0625 177.94687 30.0625 180.74374Q30.0625 183.24374 29.390625 184.55624Q28.71875 185.85312 27.375 185.85312Q26.203125 185.85312 25.453125 184.7125Q24.703125 183.55624 24.703125 180.74374ZM25.734375 180.74374Q25.734375 183.18124 26.203125 184.00937Q26.671875 184.8375 27.40625 184.8375Q28.09375 184.8375 28.5625 184.00937Q29.03125 183.16562 29.03125 180.74374Q29.03125 178.29062 28.5625 177.4625Q28.09375 176.63437 27.34375 176.63437Q26.65625 176.63437 26.1875 177.47812Q25.734375 178.32187 25.734375 180.74374ZM31.3125 185.68124L31.3125 184.275L32.453125 184.275L32.453125 185.68124L31.3125 185.68124ZM33.703125 180.74374Q33.703125 178.2125 34.375 176.91562Q35.0625 175.61874 36.390625 175.61874Q37.578125 175.61874 38.25 176.66562Q39.0625 177.94687 39.0625 180.74374Q39.0625 183.24374 38.390625 184.55624Q37.71875 185.85312 36.375 185.85312Q35.203125 185.85312 34.453125 184.7125Q33.703125 183.55624 33.703125 180.74374ZM34.734375 180.74374Q34.734375 183.18124 35.203125 184.00937Q35.671875 184.8375 36.40625 184.8375Q37.09375 184.8375 37.5625 184.00937Q38.03125 183.16562 38.03125 180.74374Q38.03125 178.29062 37.5625 177.4625Q37.09375 176.63437 36.34375 176.63437Q35.65625 176.63437 35.1875 177.47812Q34.734375 178.32187 34.734375 180.74374ZM39.890625 178.07187Q39.890625 176.82187 40.390625 176.16562Q40.890625 175.49374 41.609375 175.49374Q42.375 175.49374 42.890625 176.16562Q43.40625 176.82187 43.40625 178.13437Q43.40625 179.43124 42.890625 180.11874Q42.375 180.79062 41.625 180.79062Q40.90625 180.79062 40.390625 180.11874Q39.890625 179.44687 39.890625 178.07187ZM41.65625 176.3375Q41.28125 176.3375 41.03125 176.74374Q40.78125 177.13437 40.78125 178.13437Q40.78125 179.15 41.03125 179.54062Q41.28125 179.93124 41.671875 179.93124Q42.03125 179.93124 42.28125 179.54062Q42.53125 179.13437 42.53125 178.13437Q42.53125 177.15 42.28125 176.74374Q42.03125 176.3375 41.65625 176.3375ZM41.65625 186.05624L46.140625 175.49374L46.96875 175.49374L42.484375 186.05624L41.65625 186.05624ZM45.21875 183.32187Q45.21875 182.07187 45.703125 181.41562Q46.203125 180.75937 46.921875 180.75937Q47.6875 180.75937 48.203125 181.41562Q48.71875 182.07187 48.71875 183.38437Q48.71875 184.69687 48.1875 185.38437Q47.671875 186.05624 46.953125 186.05624Q46.21875 186.05624 45.71875 185.38437Q45.21875 184.69687 45.21875 183.32187ZM46.96875 181.60312Q46.578125 181.60312 46.328125 182.00937Q46.09375 182.4 46.09375 183.4Q46.09375 184.41562 46.34375 184.80624Q46.59375 185.19687 46.984375 185.19687Q47.34375 185.19687 47.59375 184.80624Q47.84375 184.4 47.84375 183.4Q47.84375 182.4 47.59375 182.00937Q47.34375 181.60312 46.96875 181.60312Z" fill-rule="nonzero"/><path stroke="#8a8a8a" stroke-width="1.0" stroke-linecap="butt" d="M18.25 170.18124L233.75 170.18124L247.9625 170.18124" fill-rule="nonzero"/><path fill="#616161" d="M249.9625 170.18124C249.9625 169.07668 249.06706 168.18124 247.9625 168.18124C246.85793 168.18124 245.9625 169.07668 245.9625 170.18124C245.9625 171.28581 246.85793 172.18124 247.9625 172.18124C249.06706 172.18124 249.9625 171.28581 249.9625 170.18124" fill-rule="nonzero"/><path fill="#ffffff" d="M714.3906 59.144665L715.3906 59.300915Q715.21875 60.59779 714.53125 61.28529Q713.84375 61.97279 712.875 61.97279Q711.7031 61.97279 710.9375 61.019665Q710.1875 60.050915 710.1875 58.16029Q710.1875 56.269665 710.9531 55.332165Q711.71875 54.37904 712.9219 54.37904Q713.84375 54.37904 714.46875 54.957165Q715.1094 55.519665 715.28125 56.675915L714.2969 56.863415Q714.15625 56.113415 713.7969 55.75404Q713.4531 55.394665 712.9531 55.394665Q712.2031 55.394665 711.71875 56.050915Q711.2344 56.707165 711.2344 58.144665Q711.2344 59.62904 711.6875 60.300915Q712.15625 60.957165 712.8906 60.957165Q713.46875 60.957165 713.875 60.519665Q714.28125 60.06654 714.3906 59.144665ZM716.46875 64.59779L716.3594 63.44154Q716.6875 63.550915 716.9219 63.550915Q717.25 63.550915 717.4531 63.41029Q717.6719 63.28529 717.7969 63.019665Q717.84375 62.925915 718.2031 61.81654L715.9375 54.53529L717.0156 54.53529L718.2656 58.738415Q718.5 59.53529 718.7031 60.425915Q718.875 59.582165 719.1094 58.769665L720.375 54.53529L721.3906 54.53529L719.125 61.925915Q718.6875 63.363415 718.4219 63.832165Q718.1719 64.31654 717.84375 64.53529Q717.5156 64.75404 717.1094 64.75404Q716.8281 64.75404 716.46875 64.59779ZM723.4219 61.800915L722.4844 61.800915L722.4844 51.78529L723.4844 51.78529L723.4844 55.34779Q723.8125 54.863415 724.21875 54.62904Q724.625 54.37904 725.125 54.37904Q725.8125 54.37904 726.375 54.800915Q726.9531 55.207165 727.2969 56.06654Q727.6406 56.91029 727.6406 58.113415Q727.6406 59.957165 726.8594 60.97279Q726.09375 61.97279 725.0625 61.97279Q724.5469 61.97279 724.125 61.707165Q723.71875 61.425915 723.4219 60.894665L723.4219 61.800915ZM723.40625 58.113415Q723.40625 59.238415 723.6094 59.800915Q723.8125 60.363415 724.1875 60.66029Q724.5625 60.957165 725.03125 60.957165Q725.6406 60.957165 726.125 60.25404Q726.6094 59.550915 726.6094 58.16029Q726.6094 56.72279 726.1406 56.06654Q725.6875 55.394665 725.0 55.394665Q724.375 55.394665 723.8906 56.09779Q723.40625 56.78529 723.40625 58.113415ZM732.5625 59.457165L733.6094 59.613415Q733.34375 60.78529 732.65625 61.37904Q731.9844 61.97279 730.9844 61.97279Q729.71875 61.97279 728.9219 61.019665Q728.1406 60.050915 728.1406 58.238415Q728.1406 56.34779 728.9219 55.363415Q729.71875 54.37904 730.9375 54.37904Q732.09375 54.37904 732.8594 55.34779Q733.6406 56.31654 733.6406 58.16029L733.625 58.488415L729.1875 58.488415Q729.25 59.707165 729.75 60.332165Q730.2656 60.957165 730.9844 60.957165Q732.125 60.957165 732.5625 59.457165ZM729.25 57.47279L732.5625 57.47279Q732.5 56.53529 732.1719 56.06654Q731.6875 55.394665 730.9219 55.394665Q730.25 55.394665 729.7656 55.957165Q729.2969 56.519665 729.25 57.47279ZM734.4844 61.800915L734.4844 54.53529L735.3906 54.53529L735.3906 55.644665Q735.75 54.87904 736.03125 54.62904Q736.3281 54.37904 736.6875 54.37904Q737.2031 54.37904 737.71875 54.769665L737.375 55.91029Q737.0 55.644665 736.65625 55.644665Q736.3281 55.644665 736.0625 55.87904Q735.7969 56.09779 735.6875 56.50404Q735.5 57.207165 735.5 58.00404L735.5 61.800915L734.4844 61.800915ZM738.375 56.894665Q738.375 56.144665 738.7969 55.66029Q739.2344 55.16029 739.7969 55.16029Q740.375 55.16029 740.7969 55.66029Q741.21875 56.144665 741.21875 56.894665Q741.21875 57.644665 740.78125 58.144665Q740.3594 58.62904 739.7969 58.62904Q739.2344 58.62904 738.7969 58.144665Q738.375 57.644665 738.375 56.894665ZM748.46875 58.28529L749.5625 58.62904Q749.2031 60.31654 748.2969 61.144665Q747.3906 61.97279 746.09375 61.97279Q744.9531 61.97279 744.1406 61.425915Q743.3281 60.863415 742.8125 59.62904Q742.2969 58.394665 742.2969 56.72279Q742.2969 55.06654 742.8125 53.925915Q743.3281 52.769665 744.2031 52.19154Q745.09375 51.613415 746.1875 51.613415Q747.375 51.613415 748.21875 52.363415Q749.0781 53.09779 749.4219 54.519665L748.3594 54.832165Q747.8125 52.738415 746.15625 52.738415Q745.34375 52.738415 744.7344 53.16029Q744.1406 53.582165 743.78125 54.47279Q743.4219 55.363415 743.4219 56.72279Q743.4219 58.78529 744.1406 59.81654Q744.875 60.832165 746.0781 60.832165Q746.9531 60.832165 747.59375 60.207165Q748.25 59.56654 748.46875 58.28529ZM750.1094 58.175915Q750.1094 56.28529 750.8906 55.332165Q751.6875 54.37904 752.90625 54.37904Q754.09375 54.37904 754.8906 55.332165Q755.6875 56.28529 755.6875 58.09779Q755.6875 60.050915 754.90625 61.019665Q754.125 61.97279 752.90625 61.97279Q751.7031 61.97279 750.90625 61.019665Q750.1094 60.050915 750.1094 58.175915ZM751.1406 58.175915Q751.1406 59.582165 751.65625 60.269665Q752.1719 60.957165 752.9219 60.957165Q753.6406 60.957165 754.1406 60.269665Q754.65625 59.56654 754.65625 58.175915Q754.65625 56.769665 754.1406 56.082165Q753.6406 55.394665 752.875 55.394665Q752.15625 55.394665 751.6406 56.082165Q751.1406 56.769665 751.1406 58.175915ZM756.4844 61.800915L756.4844 54.53529L757.3906 54.53529L757.3906 55.56654Q757.71875 54.97279 758.1875 54.675915Q758.6719 54.37904 759.2969 54.37904Q759.7656 54.37904 760.1719 54.56654Q760.5781 54.75404 760.8281 55.06654Q761.0781 55.363415 761.2031 55.84779Q761.3281 56.332165 761.3281 57.332165L761.3281 61.800915L760.3125 61.800915L760.3125 57.37904Q760.3125 56.582165 760.1719 56.22279Q760.0469 55.84779 759.75 55.644665Q759.46875 55.44154 759.0781 55.44154Q758.3594 55.44154 757.9219 55.988415Q757.5 56.519665 757.5 57.832165L757.5 61.800915L756.4844 61.800915ZM762.2969 62.41029L763.28125 62.582165Q763.34375 63.16029 763.6875 63.44154Q764.03125 63.72279 764.6406 63.72279Q765.3125 63.72279 765.7031 63.41029Q766.09375 63.09779 766.2344 62.457165Q766.3281 62.082165 766.3281 60.84779Q766.0 61.31654 765.5781 61.56654Q765.1719 61.800915 764.6719 61.800915Q763.6094 61.800915 762.90625 60.894665Q762.09375 59.863415 762.09375 58.113415Q762.09375 56.94154 762.4531 56.06654Q762.8125 55.19154 763.3906 54.78529Q763.96875 54.37904 764.6875 54.37904Q765.2031 54.37904 765.6406 54.644665Q766.0781 54.894665 766.40625 55.41029L766.40625 54.53529L767.34375 54.53529L767.34375 60.81654Q767.34375 62.488415 767.0625 63.207165Q766.7969 63.925915 766.1719 64.33217Q765.5469 64.75404 764.6719 64.75404Q763.5156 64.75404 762.8906 64.12904Q762.28125 63.50404 762.2969 62.41029ZM763.1406 58.03529Q763.1406 59.47279 763.6094 60.12904Q764.0781 60.78529 764.7656 60.78529Q765.4531 60.78529 765.9219 60.144665Q766.40625 59.50404 766.40625 58.09779Q766.40625 56.72279 765.90625 56.06654Q765.4219 55.394665 764.71875 55.394665Q764.09375 55.394665 763.6094 56.06654Q763.1406 56.72279 763.1406 58.03529ZM768.4844 61.800915L768.4844 54.53529L769.3906 54.53529L769.3906 55.644665Q769.75 54.87904 770.03125 54.62904Q770.3281 54.37904 770.6875 54.37904Q771.2031 54.37904 771.71875 54.769665L771.375 55.91029Q771.0 55.644665 770.65625 55.644665Q770.3281 55.644665 770.0625 55.87904Q769.7969 56.09779 769.6875 56.50404Q769.5 57.207165 769.5 58.00404L769.5 61.800915L768.4844 61.800915ZM776.5625 59.457165L777.6094 59.613415Q777.34375 60.78529 776.65625 61.37904Q775.9844 61.97279 774.9844 61.97279Q773.71875 61.97279 772.9219 61.019665Q772.1406 60.050915 772.1406 58.238415Q772.1406 56.34779 772.9219 55.363415Q773.71875 54.37904 774.9375 54.37904Q776.09375 54.37904 776.8594 55.34779Q777.6406 56.31654 777.6406 58.16029L777.625 58.488415L773.1875 58.488415Q773.25 59.707165 773.75 60.332165Q774.2656 60.957165 774.9844 60.957165Q776.125 60.957165 776.5625 59.457165ZM773.25 57.47279L776.5625 57.47279Q776.5 56.53529 776.1719 56.06654Q775.6875 55.394665 774.9219 55.394665Q774.25 55.394665 773.7656 55.957165Q773.2969 56.519665 773.25 57.47279ZM778.1094 59.62904L779.1094 59.44154Q779.1875 60.207165 779.5781 60.582165Q779.9844 60.957165 780.6406 60.957165Q781.2969 60.957165 781.65625 60.62904Q782.0156 60.300915 782.0156 59.800915Q782.0156 59.37904 781.7031 59.12904Q781.5 58.97279 780.6875 58.72279Q779.5 58.363415 779.1094 58.113415Q778.71875 57.863415 778.5 57.44154Q778.28125 57.00404 778.28125 56.47279Q778.28125 55.53529 778.875 54.957165Q779.46875 54.37904 780.5156 54.37904Q781.1875 54.37904 781.6875 54.613415Q782.1875 54.84779 782.4531 55.25404Q782.71875 55.66029 782.8281 56.41029L781.84375 56.582165Q781.7031 55.394665 780.5469 55.394665Q779.8906 55.394665 779.5625 55.66029Q779.25 55.91029 779.25 56.332165Q779.25 56.72279 779.5625 56.957165Q779.7344 57.09779 780.65625 57.394665Q781.90625 57.800915 782.2656 58.03529Q782.6406 58.269665 782.84375 58.675915Q783.0469 59.082165 783.0469 59.644665Q783.0469 60.69154 782.3906 61.332165Q781.7344 61.97279 780.59375 61.97279Q778.4531 61.97279 778.1094 59.62904ZM784.1094 59.62904L785.1094 59.44154Q785.1875 60.207165 785.5781 60.582165Q785.9844 60.957165 786.6406 60.957165Q787.2969 60.957165 787.65625 60.62904Q788.0156 60.300915 788.0156 59.800915Q788.0156 59.37904 787.7031 59.12904Q787.5 58.97279 786.6875 58.72279Q785.5 58.363415 785.1094 58.113415Q784.71875 57.863415 784.5 57.44154Q784.28125 57.00404 784.28125 56.47279Q784.28125 55.53529 784.875 54.957165Q785.46875 54.37904 786.5156 54.37904Q787.1875 54.37904 787.6875 54.613415Q788.1875 54.84779 788.4531 55.25404Q788.71875 55.66029 788.8281 56.41029L787.84375 56.582165Q787.7031 55.394665 786.5469 55.394665Q785.8906 55.394665 785.5625 55.66029Q785.25 55.91029 785.25 56.332165Q785.25 56.72279 785.5625 56.957165Q785.7344 57.09779 786.65625 57.394665Q787.90625 57.800915 788.2656 58.03529Q788.6406 58.269665 788.84375 58.675915Q789.0469 59.082165 789.0469 59.644665Q789.0469 60.69154 788.3906 61.332165Q787.7344 61.97279 786.59375 61.97279Q784.4531 61.97279 784.1094 59.62904Z" fill-rule="nonzero"/><path fill="#616161" d="M763.0156 81.80091L762.0 81.80091L762.0 73.95716Q761.65625 74.36341 761.0625 74.80091Q760.46875 75.222786 759.9844 75.441536L759.9844 74.254036Q760.8125 73.76966 761.4531 73.08216Q762.09375 72.39466 762.3594 71.73841L763.0156 71.73841L763.0156 81.80091ZM765.2031 76.86341Q765.2031 74.33216 765.875 73.035286Q766.5625 71.73841 767.8906 71.73841Q769.0781 71.73841 769.75 72.785286Q770.5625 74.066536 770.5625 76.86341Q770.5625 79.36341 769.8906 80.67591Q769.21875 81.972786 767.875 81.972786Q766.7031 81.972786 765.9531 80.83216Q765.2031 79.67591 765.2031 76.86341ZM766.2344 76.86341Q766.2344 79.30091 766.7031 80.129036Q767.1719 80.95716 767.90625 80.95716Q768.59375 80.95716 769.0625 80.129036Q769.53125 79.285286 769.53125 76.86341Q769.53125 74.410286 769.0625 73.58216Q768.59375 72.754036 767.84375 72.754036Q767.15625 72.754036 766.6875 73.597786Q766.2344 74.441536 766.2344 76.86341ZM771.8125 81.80091L771.8125 80.39466L772.9531 80.39466L772.9531 81.80091L771.8125 81.80091ZM774.2031 76.86341Q774.2031 74.33216 774.875 73.035286Q775.5625 71.73841 776.8906 71.73841Q778.0781 71.73841 778.75 72.785286Q779.5625 74.066536 779.5625 76.86341Q779.5625 79.36341 778.8906 80.67591Q778.21875 81.972786 776.875 81.972786Q775.7031 81.972786 774.9531 80.83216Q774.2031 79.67591 774.2031 76.86341ZM775.2344 76.86341Q775.2344 79.30091 775.7031 80.129036Q776.1719 80.95716 776.90625 80.95716Q777.59375 80.95716 778.0625 80.129036Q778.53125 79.285286 778.53125 76.86341Q778.53125 74.410286 778.0625 73.58216Q777.59375 72.754036 776.84375 72.754036Q776.15625 72.754036 775.6875 73.597786Q775.2344 74.441536 775.2344 76.86341ZM780.3906 74.191536Q780.3906 72.941536 780.8906 72.285286Q781.3906 71.61341 782.1094 71.61341Q782.875 71.61341 783.3906 72.285286Q783.90625 72.941536 783.90625 74.254036Q783.90625 75.55091 783.3906 76.23841Q782.875 76.910286 782.125 76.910286Q781.40625 76.910286 780.8906 76.23841Q780.3906 75.566536 780.3906 74.191536ZM782.15625 72.45716Q781.78125 72.45716 781.53125 72.86341Q781.28125 73.254036 781.28125 74.254036Q781.28125 75.26966 781.53125 75.660286Q781.78125 76.05091 782.1719 76.05091Q782.53125 76.05091 782.78125 75.660286Q783.03125 75.254036 783.03125 74.254036Q783.03125 73.26966 782.78125 72.86341Q782.53125 72.45716 782.15625 72.45716ZM782.15625 82.17591L786.6406 71.61341L787.46875 71.61341L782.9844 82.17591L782.15625 82.17591ZM785.71875 79.441536Q785.71875 78.191536 786.2031 77.535286Q786.7031 76.879036 787.4219 76.879036Q788.1875 76.879036 788.7031 77.535286Q789.21875 78.191536 789.21875 79.504036Q789.21875 80.816536 788.6875 81.504036Q788.1719 82.17591 787.4531 82.17591Q786.71875 82.17591 786.21875 81.504036Q785.71875 80.816536 785.71875 79.441536ZM787.46875 77.722786Q787.0781 77.722786 786.8281 78.129036Q786.59375 78.51966 786.59375 79.51966Q786.59375 80.535286 786.84375 80.92591Q787.09375 81.316536 787.4844 81.316536Q787.84375 81.316536 788.09375 80.92591Q788.34375 80.51966 788.34375 79.51966Q788.34375 78.51966 788.09375 78.129036Q787.84375 77.722786 787.46875 77.722786Z" fill-rule="nonzero"/><path stroke="#8a8a8a" stroke-width="1.0" stroke-linecap="butt" d="M789.75 66.30091L574.25 66.30091L452.21823 66.30091" fill-rule="nonzero"/><path fill="#616161" d="M454.21823 66.30091C454.21823 65.19634 453.3228 64.30091 452.21823 64.30091C451.11368 64.30091 450.21823 65.19634 450.21823 66.30091C450.21823 67.40548 451.11368 68.30091 452.21823 68.30091C453.3228 68.30091 454.21823 67.40548 454.21823 66.30091" fill-rule="nonzero"/><path fill="#ffffff" d="M645.2969 102.08904L646.28125 102.26092Q646.34375 102.83904 646.6875 103.12029Q647.03125 103.40154 647.6406 103.40154Q648.3125 103.40154 648.7031 103.08904Q649.09375 102.77654 649.2344 102.13592Q649.3281 101.76092 649.3281 100.52654Q649.0 100.99529 648.5781 101.24529Q648.1719 101.47967 647.6719 101.47967Q646.6094 101.47967 645.90625 100.57342Q645.09375 99.54217 645.09375 97.79217Q645.09375 96.62029 645.4531 95.74529Q645.8125 94.87029 646.3906 94.46404Q646.96875 94.05779 647.6875 94.05779Q648.2031 94.05779 648.6406 94.32342Q649.0781 94.57342 649.40625 95.08904L649.40625 94.21404L650.34375 94.21404L650.34375 100.49529Q650.34375 102.16717 650.0625 102.88592Q649.7969 103.60467 649.1719 104.01092Q648.5469 104.43279 647.6719 104.43279Q646.5156 104.43279 645.8906 103.80779Q645.28125 103.18279 645.2969 102.08904ZM646.1406 97.71404Q646.1406 99.15154 646.6094 99.80779Q647.0781 100.46404 647.7656 100.46404Q648.4531 100.46404 648.9219 99.82342Q649.40625 99.18279 649.40625 97.77654Q649.40625 96.40154 648.90625 95.74529Q648.4219 95.07342 647.71875 95.07342Q647.09375 95.07342 646.6094 95.74529Q646.1406 96.40154 646.1406 97.71404ZM651.4844 92.87029L651.4844 91.46404L652.5 91.46404L652.5 92.87029L651.4844 92.87029ZM651.4844 101.47967L651.4844 94.21404L652.5 94.21404L652.5 101.47967L651.4844 101.47967ZM654.78125 101.47967L654.78125 95.18279L653.875 95.18279L653.875 94.21404L654.78125 94.21404L654.78125 93.44842Q654.78125 92.58904 654.9531 92.16717Q655.125 91.74529 655.4844 91.52654Q655.8594 91.29217 656.4219 91.29217Q656.84375 91.29217 657.3594 91.41717L657.2031 92.47967Q656.8906 92.41717 656.6094 92.41717Q656.15625 92.41717 655.96875 92.65154Q655.78125 92.88592 655.78125 93.54217L655.78125 94.21404L656.9375 94.21404L656.9375 95.18279L655.78125 95.18279L655.78125 101.47967L654.78125 101.47967ZM659.7344 100.38592L659.875 101.46404Q659.4531 101.57342 659.125 101.57342Q658.59375 101.57342 658.2656 101.37029Q657.9531 101.15154 657.8281 100.79217Q657.71875 100.43279 657.71875 99.35467L657.71875 95.18279L656.96875 95.18279L656.96875 94.21404L657.71875 94.21404L657.71875 92.41717L658.71875 91.68279L658.71875 94.21404L659.7344 94.21404L659.7344 95.18279L658.71875 95.18279L658.71875 99.41717Q658.71875 100.01092 658.8125 100.18279Q658.9375 100.43279 659.2969 100.43279Q659.46875 100.43279 659.7344 100.38592ZM665.7344 100.38592L665.875 101.46404Q665.4531 101.57342 665.125 101.57342Q664.59375 101.57342 664.2656 101.37029Q663.9531 101.15154 663.8281 100.79217Q663.71875 100.43279 663.71875 99.35467L663.71875 95.18279L662.96875 95.18279L662.96875 94.21404L663.71875 94.21404L663.71875 92.41717L664.71875 91.68279L664.71875 94.21404L665.7344 94.21404L665.7344 95.18279L664.71875 95.18279L664.71875 99.41717Q664.71875 100.01092 664.8125 100.18279Q664.9375 100.43279 665.2969 100.43279Q665.46875 100.43279 665.7344 100.38592ZM666.1094 97.85467Q666.1094 95.96404 666.8906 95.01092Q667.6875 94.05779 668.90625 94.05779Q670.09375 94.05779 670.8906 95.01092Q671.6875 95.96404 671.6875 97.77654Q671.6875 99.72967 670.90625 100.69842Q670.125 101.65154 668.90625 101.65154Q667.7031 101.65154 666.90625 100.69842Q666.1094 99.72967 666.1094 97.85467ZM667.1406 97.85467Q667.1406 99.26092 667.65625 99.94842Q668.1719 100.63592 668.9219 100.63592Q669.6406 100.63592 670.1406 99.94842Q670.65625 99.24529 670.65625 97.85467Q670.65625 96.44842 670.1406 95.76092Q669.6406 95.07342 668.875 95.07342Q668.15625 95.07342 667.6406 95.76092Q667.1406 96.44842 667.1406 97.85467ZM675.65625 101.47967L675.65625 91.46404L681.59375 91.46404L681.59375 92.63592L676.75 92.63592L676.75 95.71404L681.2969 95.71404L681.2969 96.88592L676.75 96.88592L676.75 100.29217L681.7969 100.29217L681.7969 101.47967L675.65625 101.47967ZM685.7344 100.38592L685.875 101.46404Q685.4531 101.57342 685.125 101.57342Q684.59375 101.57342 684.2656 101.37029Q683.9531 101.15154 683.8281 100.79217Q683.71875 100.43279 683.71875 99.35467L683.71875 95.18279L682.96875 95.18279L682.96875 94.21404L683.71875 94.21404L683.71875 92.41717L684.71875 91.68279L684.71875 94.21404L685.7344 94.21404L685.7344 95.18279L684.71875 95.18279L684.71875 99.41717Q684.71875 100.01092 684.8125 100.18279Q684.9375 100.43279 685.2969 100.43279Q685.46875 100.43279 685.7344 100.38592ZM686.4844 101.47967L686.4844 91.46404L687.5 91.46404L687.5 95.05779Q687.84375 94.55779 688.2969 94.30779Q688.75 94.05779 689.28125 94.05779Q690.2344 94.05779 690.78125 94.66717Q691.3281 95.26092 691.3281 96.88592L691.3281 101.47967L690.3281 101.47967L690.3281 96.88592Q690.3281 95.93279 689.9844 95.52654Q689.65625 95.12029 689.0781 95.12029Q688.4219 95.12029 687.9531 95.65154Q687.5 96.16717 687.5 97.51092L687.5 101.47967L686.4844 101.47967ZM696.5625 99.13592L697.6094 99.29217Q697.34375 100.46404 696.65625 101.05779Q695.9844 101.65154 694.9844 101.65154Q693.71875 101.65154 692.9219 100.69842Q692.1406 99.72967 692.1406 97.91717Q692.1406 96.02654 692.9219 95.04217Q693.71875 94.05779 694.9375 94.05779Q696.09375 94.05779 696.8594 95.02654Q697.6406 95.99529 697.6406 97.83904L697.625 98.16717L693.1875 98.16717Q693.25 99.38592 693.75 100.01092Q694.2656 100.63592 694.9844 100.63592Q696.125 100.63592 696.5625 99.13592ZM693.25 97.15154L696.5625 97.15154Q696.5 96.21404 696.1719 95.74529Q695.6875 95.07342 694.9219 95.07342Q694.25 95.07342 693.7656 95.63592Q693.2969 96.19842 693.25 97.15154ZM698.4844 101.47967L698.4844 94.21404L699.3906 94.21404L699.3906 95.32342Q699.75 94.55779 700.03125 94.30779Q700.3281 94.05779 700.6875 94.05779Q701.2031 94.05779 701.71875 94.44842L701.375 95.58904Q701.0 95.32342 700.65625 95.32342Q700.3281 95.32342 700.0625 95.55779Q699.7969 95.77654 699.6875 96.18279Q699.5 96.88592 699.5 97.68279L699.5 101.47967L698.4844 101.47967ZM706.5625 99.13592L707.6094 99.29217Q707.34375 100.46404 706.65625 101.05779Q705.9844 101.65154 704.9844 101.65154Q703.71875 101.65154 702.9219 100.69842Q702.1406 99.72967 702.1406 97.91717Q702.1406 96.02654 702.9219 95.04217Q703.71875 94.05779 704.9375 94.05779Q706.09375 94.05779 706.8594 95.02654Q707.6406 95.99529 707.6406 97.83904L707.625 98.16717L703.1875 98.16717Q703.25 99.38592 703.75 100.01092Q704.2656 100.63592 704.9844 100.63592Q706.125 100.63592 706.5625 99.13592ZM703.25 97.15154L706.5625 97.15154Q706.5 96.21404 706.1719 95.74529Q705.6875 95.07342 704.9219 95.07342Q704.25 95.07342 703.7656 95.63592Q703.2969 96.19842 703.25 97.15154ZM712.3906 101.47967L712.3906 100.41717Q712.0469 101.02654 711.5625 101.33904Q711.09375 101.65154 710.5 101.65154Q709.7969 101.65154 709.2969 101.27654Q708.7969 100.88592 708.625 100.30779Q708.46875 99.72967 708.46875 98.71404L708.46875 94.21404L709.46875 94.21404L709.46875 98.24529Q709.46875 99.37029 709.5781 99.74529Q709.7031 100.12029 710.0 100.35467Q710.3125 100.58904 710.7031 100.58904Q711.4219 100.58904 711.8906 99.99529Q712.28125 99.47967 712.28125 98.10467L712.28125 94.21404L713.2969 94.21404L713.2969 101.47967L712.3906 101.47967ZM714.5 101.47967L714.5 94.21404L715.40625 94.21404L715.40625 95.24529Q715.7031 94.66717 716.1719 94.37029Q716.65625 94.05779 717.2031 94.05779Q717.84375 94.05779 718.2656 94.38592Q718.7031 94.69842 718.8906 95.32342Q719.25 94.69842 719.7031 94.38592Q720.1719 94.05779 720.7344 94.05779Q721.5781 94.05779 722.0625 94.63592Q722.5625 95.21404 722.5625 96.49529L722.5625 101.47967L721.5625 101.47967L721.5625 96.90154Q721.5625 96.12029 721.4531 95.80779Q721.34375 95.47967 721.0781 95.30779Q720.8281 95.12029 720.5156 95.12029Q719.875 95.12029 719.4531 95.63592Q719.0469 96.15154 719.0469 97.26092L719.0469 101.47967L718.03125 101.47967L718.03125 96.76092Q718.03125 95.85467 717.75 95.49529Q717.4844 95.12029 717.0 95.12029Q716.3125 95.12029 715.90625 95.68279Q715.5 96.22967 715.5 97.71404L715.5 101.47967L714.5 101.47967ZM731.375 100.58904Q730.8594 101.10467 730.3125 101.38592Q729.7656 101.65154 729.1875 101.65154Q728.25 101.65154 727.6875 101.08904Q727.1406 100.52654 727.1406 99.57342Q727.1406 98.94842 727.40625 98.46404Q727.6719 97.97967 728.1094 97.71404Q728.5625 97.43279 729.4844 97.29217Q730.71875 97.12029 731.2969 96.87029L731.2969 96.55779Q731.2969 95.80779 731.03125 95.51092Q730.65625 95.07342 729.875 95.07342Q729.1719 95.07342 728.8125 95.37029Q728.46875 95.65154 728.3125 96.44842L727.3125 96.29217Q727.53125 95.12029 728.1719 94.58904Q728.8281 94.05779 730.03125 94.05779Q730.96875 94.05779 731.5 94.41717Q732.03125 94.76092 732.1719 95.27654Q732.3125 95.79217 732.3125 96.79217L732.3125 98.43279Q732.3125 100.16717 732.375 100.62029Q732.4375 101.05779 732.625 101.47967L731.5781 101.47967Q731.4219 101.10467 731.375 100.58904ZM731.2969 97.83904Q730.7344 98.10467 729.6406 98.30779Q729.0 98.41717 728.75 98.55779Q728.5 98.68279 728.3594 98.94842Q728.21875 99.19842 728.21875 99.54217Q728.21875 100.05779 728.53125 100.37029Q728.8594 100.68279 729.4375 100.68279Q729.96875 100.68279 730.40625 100.40154Q730.8594 100.12029 731.0781 99.65154Q731.2969 99.18279 731.2969 98.29217L731.2969 97.83904ZM733.4844 101.47967L733.4844 94.21404L734.3906 94.21404L734.3906 95.24529Q734.71875 94.65154 735.1875 94.35467Q735.6719 94.05779 736.2969 94.05779Q736.7656 94.05779 737.1719 94.24529Q737.5781 94.43279 737.8281 94.74529Q738.0781 95.04217 738.2031 95.52654Q738.3281 96.01092 738.3281 97.01092L738.3281 101.47967L737.3125 101.47967L737.3125 97.05779Q737.3125 96.26092 737.1719 95.90154Q737.0469 95.52654 736.75 95.32342Q736.46875 95.12029 736.0781 95.12029Q735.3594 95.12029 734.9219 95.66717Q734.5 96.19842 734.5 97.51092L734.5 101.47967L733.4844 101.47967ZM743.34375 101.47967L743.34375 100.55779Q743.0781 101.08904 742.6406 101.37029Q742.21875 101.65154 741.71875 101.65154Q740.6719 101.65154 739.8906 100.65154Q739.125 99.65154 739.125 97.85467Q739.125 96.60467 739.46875 95.74529Q739.8125 94.88592 740.375 94.47967Q740.9531 94.05779 741.65625 94.05779Q742.1406 94.05779 742.5625 94.32342Q743.0 94.58904 743.28125 95.05779L743.28125 91.46404L744.2969 91.46404L744.2969 101.47967L743.34375 101.47967ZM740.15625 97.85467Q740.15625 99.26092 740.6406 99.94842Q741.1406 100.63592 741.78125 100.63592Q742.4219 100.63592 742.8906 99.97967Q743.375 99.32342 743.375 97.99529Q743.375 96.46404 742.8906 95.77654Q742.4219 95.07342 741.7031 95.07342Q741.0781 95.07342 740.6094 95.74529Q740.15625 96.41717 740.15625 97.85467ZM754.46875 97.96404L755.5625 98.30779Q755.2031 99.99529 754.2969 100.82342Q753.3906 101.65154 752.09375 101.65154Q750.9531 101.65154 750.1406 101.10467Q749.3281 100.54217 748.8125 99.30779Q748.2969 98.07342 748.2969 96.40154Q748.2969 94.74529 748.8125 93.60467Q749.3281 92.44842 750.2031 91.87029Q751.09375 91.29217 752.1875 91.29217Q753.375 91.29217 754.21875 92.04217Q755.0781 92.77654 755.4219 94.19842L754.3594 94.51092Q753.8125 92.41717 752.15625 92.41717Q751.34375 92.41717 750.7344 92.83904Q750.1406 93.26092 749.78125 94.15154Q749.4219 95.04217 749.4219 96.40154Q749.4219 98.46404 750.1406 99.49529Q750.875 100.51092 752.0781 100.51092Q752.9531 100.51092 753.59375 99.88592Q754.25 99.24529 754.46875 97.96404ZM756.1094 97.85467Q756.1094 95.96404 756.8906 95.01092Q757.6875 94.05779 758.90625 94.05779Q760.09375 94.05779 760.8906 95.01092Q761.6875 95.96404 761.6875 97.77654Q761.6875 99.72967 760.90625 100.69842Q760.125 101.65154 758.90625 101.65154Q757.7031 101.65154 756.90625 100.69842Q756.1094 99.72967 756.1094 97.85467ZM757.1406 97.85467Q757.1406 99.26092 757.65625 99.94842Q758.1719 100.63592 758.9219 100.63592Q759.6406 100.63592 760.1406 99.94842Q760.65625 99.24529 760.65625 97.85467Q760.65625 96.44842 760.1406 95.76092Q759.6406 95.07342 758.875 95.07342Q758.15625 95.07342 757.6406 95.76092Q757.1406 96.44842 757.1406 97.85467ZM762.1094 99.30779L763.1094 99.12029Q763.1875 99.88592 763.5781 100.26092Q763.9844 100.63592 764.6406 100.63592Q765.2969 100.63592 765.65625 100.30779Q766.0156 99.97967 766.0156 99.47967Q766.0156 99.05779 765.7031 98.80779Q765.5 98.65154 764.6875 98.40154Q763.5 98.04217 763.1094 97.79217Q762.71875 97.54217 762.5 97.12029Q762.28125 96.68279 762.28125 96.15154Q762.28125 95.21404 762.875 94.63592Q763.46875 94.05779 764.5156 94.05779Q765.1875 94.05779 765.6875 94.29217Q766.1875 94.52654 766.4531 94.93279Q766.71875 95.33904 766.8281 96.08904L765.84375 96.26092Q765.7031 95.07342 764.5469 95.07342Q763.8906 95.07342 763.5625 95.33904Q763.25 95.58904 763.25 96.01092Q763.25 96.40154 763.5625 96.63592Q763.7344 96.77654 764.65625 97.07342Q765.90625 97.47967 766.2656 97.71404Q766.6406 97.94842 766.84375 98.35467Q767.0469 98.76092 767.0469 99.32342Q767.0469 100.37029 766.3906 101.01092Q765.7344 101.65154 764.59375 101.65154Q762.4531 101.65154 762.1094 99.30779ZM768.5 101.47967L768.5 94.21404L769.40625 94.21404L769.40625 95.24529Q769.7031 94.66717 770.1719 94.37029Q770.65625 94.05779 771.2031 94.05779Q771.84375 94.05779 772.2656 94.38592Q772.7031 94.69842 772.8906 95.32342Q773.25 94.69842 773.7031 94.38592Q774.1719 94.05779 774.7344 94.05779Q775.5781 94.05779 776.0625 94.63592Q776.5625 95.21404 776.5625 96.49529L776.5625 101.47967L775.5625 101.47967L775.5625 96.90154Q775.5625 96.12029 775.4531 95.80779Q775.34375 95.47967 775.0781 95.30779Q774.8281 95.12029 774.5156 95.12029Q773.875 95.12029 773.4531 95.63592Q773.0469 96.15154 773.0469 97.26092L773.0469 101.47967L772.03125 101.47967L772.03125 96.76092Q772.03125 95.85467 771.75 95.49529Q771.4844 95.12029 771.0 95.12029Q770.3125 95.12029 769.90625 95.68279Q769.5 96.22967 769.5 97.71404L769.5 101.47967L768.5 101.47967ZM778.1094 97.85467Q778.1094 95.96404 778.8906 95.01092Q779.6875 94.05779 780.90625 94.05779Q782.09375 94.05779 782.8906 95.01092Q783.6875 95.96404 783.6875 97.77654Q783.6875 99.72967 782.90625 100.69842Q782.125 101.65154 780.90625 101.65154Q779.7031 101.65154 778.90625 100.69842Q778.1094 99.72967 778.1094 97.85467ZM779.1406 97.85467Q779.1406 99.26092 779.65625 99.94842Q780.1719 100.63592 780.9219 100.63592Q781.6406 100.63592 782.1406 99.94842Q782.65625 99.24529 782.65625 97.85467Q782.65625 96.44842 782.1406 95.76092Q781.6406 95.07342 780.875 95.07342Q780.15625 95.07342 779.6406 95.76092Q779.1406 96.44842 779.1406 97.85467ZM784.1094 99.30779L785.1094 99.12029Q785.1875 99.88592 785.5781 100.26092Q785.9844 100.63592 786.6406 100.63592Q787.2969 100.63592 787.65625 100.30779Q788.0156 99.97967 788.0156 99.47967Q788.0156 99.05779 787.7031 98.80779Q787.5 98.65154 786.6875 98.40154Q785.5 98.04217 785.1094 97.79217Q784.71875 97.54217 784.5 97.12029Q784.28125 96.68279 784.28125 96.15154Q784.28125 95.21404 784.875 94.63592Q785.46875 94.05779 786.5156 94.05779Q787.1875 94.05779 787.6875 94.29217Q788.1875 94.52654 788.4531 94.93279Q788.71875 95.33904 788.8281 96.08904L787.84375 96.26092Q787.7031 95.07342 786.5469 95.07342Q785.8906 95.07342 785.5625 95.33904Q785.25 95.58904 785.25 96.01092Q785.25 96.40154 785.5625 96.63592Q785.7344 96.77654 786.65625 97.07342Q787.90625 97.47967 788.2656 97.71404Q788.6406 97.94842 788.84375 98.35467Q789.0469 98.76092 789.0469 99.32342Q789.0469 100.37029 788.3906 101.01092Q787.7344 101.65154 786.59375 101.65154Q784.4531 101.65154 784.1094 99.30779Z" fill-rule="nonzero"/><path fill="#616161" d="M763.0156 121.47967L762.0 121.47967L762.0 113.63592Q761.65625 114.04217 761.0625 114.47967Q760.46875 114.90154 759.9844 115.12029L759.9844 113.93279Q760.8125 113.44842 761.4531 112.76092Q762.09375 112.07342 762.3594 111.41717L763.0156 111.41717L763.0156 121.47967ZM765.2031 116.54217Q765.2031 114.01092 765.875 112.71404Q766.5625 111.41717 767.8906 111.41717Q769.0781 111.41717 769.75 112.46404Q770.5625 113.74529 770.5625 116.54217Q770.5625 119.04217 769.8906 120.35467Q769.21875 121.65154 767.875 121.65154Q766.7031 121.65154 765.9531 120.51092Q765.2031 119.35467 765.2031 116.54217ZM766.2344 116.54217Q766.2344 118.97967 766.7031 119.80779Q767.1719 120.63592 767.90625 120.63592Q768.59375 120.63592 769.0625 119.80779Q769.53125 118.96404 769.53125 116.54217Q769.53125 114.08904 769.0625 113.26092Q768.59375 112.43279 767.84375 112.43279Q767.15625 112.43279 766.6875 113.27654Q766.2344 114.12029 766.2344 116.54217ZM771.8125 121.47967L771.8125 120.07342L772.9531 120.07342L772.9531 121.47967L771.8125 121.47967ZM774.2031 116.54217Q774.2031 114.01092 774.875 112.71404Q775.5625 111.41717 776.8906 111.41717Q778.0781 111.41717 778.75 112.46404Q779.5625 113.74529 779.5625 116.54217Q779.5625 119.04217 778.8906 120.35467Q778.21875 121.65154 776.875 121.65154Q775.7031 121.65154 774.9531 120.51092Q774.2031 119.35467 774.2031 116.54217ZM775.2344 116.54217Q775.2344 118.97967 775.7031 119.80779Q776.1719 120.63592 776.90625 120.63592Q777.59375 120.63592 778.0625 119.80779Q778.53125 118.96404 778.53125 116.54217Q778.53125 114.08904 778.0625 113.26092Q777.59375 112.43279 776.84375 112.43279Q776.15625 112.43279 775.6875 113.27654Q775.2344 114.12029 775.2344 116.54217ZM780.3906 113.87029Q780.3906 112.62029 780.8906 111.96404Q781.3906 111.29217 782.1094 111.29217Q782.875 111.29217 783.3906 111.96404Q783.90625 112.62029 783.90625 113.93279Q783.90625 115.22967 783.3906 115.91717Q782.875 116.58904 782.125 116.58904Q781.40625 116.58904 780.8906 115.91717Q780.3906 115.24529 780.3906 113.87029ZM782.15625 112.13592Q781.78125 112.13592 781.53125 112.54217Q781.28125 112.93279 781.28125 113.93279Q781.28125 114.94842 781.53125 115.33904Q781.78125 115.72967 782.1719 115.72967Q782.53125 115.72967 782.78125 115.33904Q783.03125 114.93279 783.03125 113.93279Q783.03125 112.94842 782.78125 112.54217Q782.53125 112.13592 782.15625 112.13592ZM782.15625 121.85467L786.6406 111.29217L787.46875 111.29217L782.9844 121.85467L782.15625 121.85467ZM785.71875 119.12029Q785.71875 117.87029 786.2031 117.21404Q786.7031 116.55779 787.4219 116.55779Q788.1875 116.55779 788.7031 117.21404Q789.21875 117.87029 789.21875 119.18279Q789.21875 120.49529 788.6875 121.18279Q788.1719 121.85467 787.4531 121.85467Q786.71875 121.85467 786.21875 121.18279Q785.71875 120.49529 785.71875 119.12029ZM787.46875 117.40154Q787.0781 117.40154 786.8281 117.80779Q786.59375 118.19842 786.59375 119.19842Q786.59375 120.21404 786.84375 120.60467Q787.09375 120.99529 787.4844 120.99529Q787.84375 120.99529 788.09375 120.60467Q788.34375 120.19842 788.34375 119.19842Q788.34375 118.19842 788.09375 117.80779Q787.84375 117.40154 787.46875 117.40154Z" fill-rule="nonzero"/><path stroke="#8a8a8a" stroke-width="1.0" stroke-linecap="butt" d="M789.75 105.97967L574.25 105.97967L530.237 105.97967" fill-rule="nonzero"/><path fill="#616161" d="M532.237 105.97967C532.237 104.8751 531.34155 103.97967 530.237 103.97967C529.13245 103.97967 528.237 104.8751 528.237 105.97967C528.237 107.08424 529.13245 107.97967 530.237 107.97967C531.34155 107.97967 532.237 107.08424 532.237 105.97967" fill-rule="nonzero"/><path fill="#ffffff" d="M721.5156 161.74374L721.5156 160.57187L724.9844 160.57187L724.9844 164.29062Q724.1875 165.07187 723.3281 165.4625Q722.4844 165.85312 721.5781 165.85312Q720.375 165.85312 719.4219 165.25937Q718.4844 164.65 717.9375 163.49374Q717.3906 162.3375 717.3906 160.7125Q717.3906 159.07187 717.9375 157.86874Q718.5 156.65 719.3906 156.07187Q720.28125 155.49374 721.5156 155.49374Q722.40625 155.49374 723.0781 155.8375Q723.7656 156.16562 724.2031 156.775Q724.6406 157.38437 724.8594 158.4625L723.875 158.79062Q723.6875 157.94687 723.375 157.525Q723.0781 157.10312 722.5781 156.86874Q722.09375 156.61874 721.4844 156.61874Q720.5781 156.61874 719.9375 157.05624Q719.2969 157.49374 718.8906 158.41562Q718.5 159.32187 718.5 160.65Q718.5 162.65 719.34375 163.65Q720.1875 164.65 721.53125 164.65Q722.1719 164.65 722.84375 164.35312Q723.53125 164.04062 723.9219 163.61874L723.9219 161.74374L721.5156 161.74374ZM730.375 164.79062Q729.8594 165.30624 729.3125 165.5875Q728.7656 165.85312 728.1875 165.85312Q727.25 165.85312 726.6875 165.29062Q726.1406 164.72812 726.1406 163.775Q726.1406 163.15 726.40625 162.66562Q726.6719 162.18124 727.1094 161.91562Q727.5625 161.63437 728.4844 161.49374Q729.71875 161.32187 730.2969 161.07187L730.2969 160.75937Q730.2969 160.00937 730.03125 159.7125Q729.65625 159.275 728.875 159.275Q728.1719 159.275 727.8125 159.57187Q727.46875 159.85312 727.3125 160.65L726.3125 160.49374Q726.53125 159.32187 727.1719 158.79062Q727.8281 158.25937 729.03125 158.25937Q729.96875 158.25937 730.5 158.61874Q731.03125 158.9625 731.1719 159.47812Q731.3125 159.99374 731.3125 160.99374L731.3125 162.63437Q731.3125 164.36874 731.375 164.82187Q731.4375 165.25937 731.625 165.68124L730.5781 165.68124Q730.4219 165.30624 730.375 164.79062ZM730.2969 162.04062Q729.7344 162.30624 728.6406 162.50937Q728.0 162.61874 727.75 162.75937Q727.5 162.88437 727.3594 163.15Q727.21875 163.4 727.21875 163.74374Q727.21875 164.25937 727.53125 164.57187Q727.8594 164.88437 728.4375 164.88437Q728.96875 164.88437 729.40625 164.60312Q729.8594 164.32187 730.0781 163.85312Q730.2969 163.38437 730.2969 162.49374L730.2969 162.04062ZM732.5 165.68124L732.5 158.41562L733.40625 158.41562L733.40625 159.44687Q733.7031 158.86874 734.1719 158.57187Q734.65625 158.25937 735.2031 158.25937Q735.84375 158.25937 736.2656 158.5875Q736.7031 158.9 736.8906 159.525Q737.25 158.9 737.7031 158.5875Q738.1719 158.25937 738.7344 158.25937Q739.5781 158.25937 740.0625 158.8375Q740.5625 159.41562 740.5625 160.69687L740.5625 165.68124L739.5625 165.68124L739.5625 161.10312Q739.5625 160.32187 739.4531 160.00937Q739.34375 159.68124 739.0781 159.50937Q738.8281 159.32187 738.5156 159.32187Q737.875 159.32187 737.4531 159.8375Q737.0469 160.35312 737.0469 161.4625L737.0469 165.68124L736.03125 165.68124L736.03125 160.9625Q736.03125 160.05624 735.75 159.69687Q735.4844 159.32187 735.0 159.32187Q734.3125 159.32187 733.90625 159.88437Q733.5 160.43124 733.5 161.91562L733.5 165.68124L732.5 165.68124ZM746.5625 163.3375L747.6094 163.49374Q747.34375 164.66562 746.65625 165.25937Q745.9844 165.85312 744.9844 165.85312Q743.71875 165.85312 742.9219 164.9Q742.1406 163.93124 742.1406 162.11874Q742.1406 160.22812 742.9219 159.24374Q743.71875 158.25937 744.9375 158.25937Q746.09375 158.25937 746.8594 159.22812Q747.6406 160.19687 747.6406 162.04062L747.625 162.36874L743.1875 162.36874Q743.25 163.5875 743.75 164.2125Q744.2656 164.8375 744.9844 164.8375Q746.125 164.8375 746.5625 163.3375ZM743.25 161.35312L746.5625 161.35312Q746.5 160.41562 746.1719 159.94687Q745.6875 159.275 744.9219 159.275Q744.25 159.275 743.7656 159.8375Q743.2969 160.4 743.25 161.35312ZM751.1094 162.05624Q751.1094 160.16562 751.8906 159.2125Q752.6875 158.25937 753.90625 158.25937Q755.09375 158.25937 755.8906 159.2125Q756.6875 160.16562 756.6875 161.97812Q756.6875 163.93124 755.90625 164.9Q755.125 165.85312 753.90625 165.85312Q752.7031 165.85312 751.90625 164.9Q751.1094 163.93124 751.1094 162.05624ZM752.1406 162.05624Q752.1406 163.4625 752.65625 164.15Q753.1719 164.8375 753.9219 164.8375Q754.6406 164.8375 755.1406 164.15Q755.65625 163.44687 755.65625 162.05624Q755.65625 160.65 755.1406 159.9625Q754.6406 159.275 753.875 159.275Q753.15625 159.275 752.6406 159.9625Q752.1406 160.65 752.1406 162.05624ZM757.78125 165.68124L757.78125 159.38437L756.875 159.38437L756.875 158.41562L757.78125 158.41562L757.78125 157.65Q757.78125 156.79062 757.9531 156.36874Q758.125 155.94687 758.4844 155.72812Q758.8594 155.49374 759.4219 155.49374Q759.84375 155.49374 760.3594 155.61874L760.2031 156.68124Q759.8906 156.61874 759.6094 156.61874Q759.15625 156.61874 758.96875 156.85312Q758.78125 157.0875 758.78125 157.74374L758.78125 158.41562L759.9375 158.41562L759.9375 159.38437L758.78125 159.38437L758.78125 165.68124L757.78125 165.68124ZM763.5781 165.68124L763.5781 155.66562L764.65625 155.66562L764.65625 164.49374L768.7031 164.49374L768.7031 165.68124L763.5781 165.68124ZM769.4844 157.07187L769.4844 155.66562L770.5 155.66562L770.5 157.07187L769.4844 157.07187ZM769.4844 165.68124L769.4844 158.41562L770.5 158.41562L770.5 165.68124L769.4844 165.68124ZM772.4844 165.68124L772.4844 158.41562L773.3906 158.41562L773.3906 159.44687Q773.71875 158.85312 774.1875 158.55624Q774.6719 158.25937 775.2969 158.25937Q775.7656 158.25937 776.1719 158.44687Q776.5781 158.63437 776.8281 158.94687Q777.0781 159.24374 777.2031 159.72812Q777.3281 160.2125 777.3281 161.2125L777.3281 165.68124L776.3125 165.68124L776.3125 161.25937Q776.3125 160.4625 776.1719 160.10312Q776.0469 159.72812 775.75 159.525Q775.46875 159.32187 775.0781 159.32187Q774.3594 159.32187 773.9219 159.86874Q773.5 160.4 773.5 161.7125L773.5 165.68124L772.4844 165.68124ZM778.5156 165.68124L778.5156 155.66562L779.5156 155.66562L779.5156 161.36874L781.90625 158.41562L783.21875 158.41562L780.9375 161.11874L783.4375 165.68124L782.2031 165.68124L780.2344 161.9625L779.5156 162.80624L779.5156 165.68124L778.5156 165.68124ZM784.1094 163.50937L785.1094 163.32187Q785.1875 164.0875 785.5781 164.4625Q785.9844 164.8375 786.6406 164.8375Q787.2969 164.8375 787.65625 164.50937Q788.0156 164.18124 788.0156 163.68124Q788.0156 163.25937 787.7031 163.00937Q787.5 162.85312 786.6875 162.60312Q785.5 162.24374 785.1094 161.99374Q784.71875 161.74374 784.5 161.32187Q784.28125 160.88437 784.28125 160.35312Q784.28125 159.41562 784.875 158.8375Q785.46875 158.25937 786.5156 158.25937Q787.1875 158.25937 787.6875 158.49374Q788.1875 158.72812 788.4531 159.13437Q788.71875 159.54062 788.8281 160.29062L787.84375 160.4625Q787.7031 159.275 786.5469 159.275Q785.8906 159.275 785.5625 159.54062Q785.25 159.79062 785.25 160.2125Q785.25 160.60312 785.5625 160.8375Q785.7344 160.97812 786.65625 161.275Q787.90625 161.68124 788.2656 161.91562Q788.6406 162.15 788.84375 162.55624Q789.0469 162.9625 789.0469 163.525Q789.0469 164.57187 788.3906 165.2125Q787.7344 165.85312 786.59375 165.85312Q784.4531 165.85312 784.1094 163.50937Z" fill-rule="nonzero"/><path fill="#616161" d="M763.0156 185.68124L762.0 185.68124L762.0 177.8375Q761.65625 178.24374 761.0625 178.68124Q760.46875 179.10312 759.9844 179.32187L759.9844 178.13437Q760.8125 177.65 761.4531 176.9625Q762.09375 176.275 762.3594 175.61874L763.0156 175.61874L763.0156 185.68124ZM765.2031 180.74374Q765.2031 178.2125 765.875 176.91562Q766.5625 175.61874 767.8906 175.61874Q769.0781 175.61874 769.75 176.66562Q770.5625 177.94687 770.5625 180.74374Q770.5625 183.24374 769.8906 184.55624Q769.21875 185.85312 767.875 185.85312Q766.7031 185.85312 765.9531 184.7125Q765.2031 183.55624 765.2031 180.74374ZM766.2344 180.74374Q766.2344 183.18124 766.7031 184.00937Q767.1719 184.8375 767.90625 184.8375Q768.59375 184.8375 769.0625 184.00937Q769.53125 183.16562 769.53125 180.74374Q769.53125 178.29062 769.0625 177.4625Q768.59375 176.63437 767.84375 176.63437Q767.15625 176.63437 766.6875 177.47812Q766.2344 178.32187 766.2344 180.74374ZM771.8125 185.68124L771.8125 184.275L772.9531 184.275L772.9531 185.68124L771.8125 185.68124ZM774.2031 180.74374Q774.2031 178.2125 774.875 176.91562Q775.5625 175.61874 776.8906 175.61874Q778.0781 175.61874 778.75 176.66562Q779.5625 177.94687 779.5625 180.74374Q779.5625 183.24374 778.8906 184.55624Q778.21875 185.85312 776.875 185.85312Q775.7031 185.85312 774.9531 184.7125Q774.2031 183.55624 774.2031 180.74374ZM775.2344 180.74374Q775.2344 183.18124 775.7031 184.00937Q776.1719 184.8375 776.90625 184.8375Q777.59375 184.8375 778.0625 184.00937Q778.53125 183.16562 778.53125 180.74374Q778.53125 178.29062 778.0625 177.4625Q777.59375 176.63437 776.84375 176.63437Q776.15625 176.63437 775.6875 177.47812Q775.2344 178.32187 775.2344 180.74374ZM780.3906 178.07187Q780.3906 176.82187 780.8906 176.16562Q781.3906 175.49374 782.1094 175.49374Q782.875 175.49374 783.3906 176.16562Q783.90625 176.82187 783.90625 178.13437Q783.90625 179.43124 783.3906 180.11874Q782.875 180.79062 782.125 180.79062Q781.40625 180.79062 780.8906 180.11874Q780.3906 179.44687 780.3906 178.07187ZM782.15625 176.3375Q781.78125 176.3375 781.53125 176.74374Q781.28125 177.13437 781.28125 178.13437Q781.28125 179.15 781.53125 179.54062Q781.78125 179.93124 782.1719 179.93124Q782.53125 179.93124 782.78125 179.54062Q783.03125 179.13437 783.03125 178.13437Q783.03125 177.15 782.78125 176.74374Q782.53125 176.3375 782.15625 176.3375ZM782.15625 186.05624L786.6406 175.49374L787.46875 175.49374L782.9844 186.05624L782.15625 186.05624ZM785.71875 183.32187Q785.71875 182.07187 786.2031 181.41562Q786.7031 180.75937 787.4219 180.75937Q788.1875 180.75937 788.7031 181.41562Q789.21875 182.07187 789.21875 183.38437Q789.21875 184.69687 788.6875 185.38437Q788.1719 186.05624 787.4531 186.05624Q786.71875 186.05624 786.21875 185.38437Q785.71875 184.69687 785.71875 183.32187ZM787.46875 181.60312Q787.0781 181.60312 786.8281 182.00937Q786.59375 182.4 786.59375 183.4Q786.59375 184.41562 786.84375 184.80624Q787.09375 185.19687 787.4844 185.19687Q787.84375 185.19687 788.09375 184.80624Q788.34375 184.4 788.34375 183.4Q788.34375 182.4 788.09375 182.00937Q787.84375 181.60312 787.46875 181.60312Z" fill-rule="nonzero"/><path stroke="#8a8a8a" stroke-width="1.0" stroke-linecap="butt" d="M789.75 170.18124L574.25 170.18124L560.0375 170.18124" fill-rule="nonzero"/><path fill="#616161" d="M562.0375 170.18124C562.0375 169.07668 561.1421 168.18124 560.0375 168.18124C558.9329 168.18124 558.0375 169.07668 558.0375 170.18124C558.0375 171.28581 558.9329 172.18124 560.0375 172.18124C561.1421 172.18124 562.0375 171.28581 562.0375 170.18124" fill-rule="nonzero"/><path fill="#ffffff" d="M658.5156 225.94533L658.5156 224.77345L661.9844 224.77345L661.9844 228.4922Q661.1875 229.27345 660.3281 229.66408Q659.4844 230.0547 658.5781 230.0547Q657.375 230.0547 656.4219 229.46095Q655.4844 228.85158 654.9375 227.69533Q654.3906 226.53908 654.3906 224.91408Q654.3906 223.27345 654.9375 222.07033Q655.5 220.85158 656.3906 220.27345Q657.28125 219.69533 658.5156 219.69533Q659.40625 219.69533 660.0781 220.03908Q660.7656 220.3672 661.2031 220.97658Q661.6406 221.58595 661.8594 222.66408L660.875 222.9922Q660.6875 222.14845 660.375 221.72658Q660.0781 221.3047 659.5781 221.07033Q659.09375 220.82033 658.4844 220.82033Q657.5781 220.82033 656.9375 221.25783Q656.2969 221.69533 655.8906 222.6172Q655.5 223.52345 655.5 224.85158Q655.5 226.85158 656.34375 227.85158Q657.1875 228.85158 658.53125 228.85158Q659.1719 228.85158 659.84375 228.5547Q660.53125 228.2422 660.9219 227.82033L660.9219 225.94533L658.5156 225.94533ZM667.375 228.9922Q666.8594 229.50783 666.3125 229.78908Q665.7656 230.0547 665.1875 230.0547Q664.25 230.0547 663.6875 229.4922Q663.1406 228.9297 663.1406 227.97658Q663.1406 227.35158 663.40625 226.8672Q663.6719 226.38283 664.1094 226.1172Q664.5625 225.83595 665.4844 225.69533Q666.71875 225.52345 667.2969 225.27345L667.2969 224.96095Q667.2969 224.21095 667.03125 223.91408Q666.65625 223.47658 665.875 223.47658Q665.1719 223.47658 664.8125 223.77345Q664.46875 224.0547 664.3125 224.85158L663.3125 224.69533Q663.53125 223.52345 664.1719 222.9922Q664.8281 222.46095 666.03125 222.46095Q666.96875 222.46095 667.5 222.82033Q668.03125 223.16408 668.1719 223.6797Q668.3125 224.19533 668.3125 225.19533L668.3125 226.83595Q668.3125 228.57033 668.375 229.02345Q668.4375 229.46095 668.625 229.88283L667.5781 229.88283Q667.4219 229.50783 667.375 228.9922ZM667.2969 226.2422Q666.7344 226.50783 665.6406 226.71095Q665.0 226.82033 664.75 226.96095Q664.5 227.08595 664.3594 227.35158Q664.21875 227.60158 664.21875 227.94533Q664.21875 228.46095 664.53125 228.77345Q664.8594 229.08595 665.4375 229.08595Q665.96875 229.08595 666.40625 228.8047Q666.8594 228.52345 667.0781 228.0547Q667.2969 227.58595 667.2969 226.69533L667.2969 226.2422ZM669.5 229.88283L669.5 222.6172L670.40625 222.6172L670.40625 223.64845Q670.7031 223.07033 671.1719 222.77345Q671.65625 222.46095 672.2031 222.46095Q672.84375 222.46095 673.2656 222.78908Q673.7031 223.10158 673.8906 223.72658Q674.25 223.10158 674.7031 222.78908Q675.1719 222.46095 675.7344 222.46095Q676.5781 222.46095 677.0625 223.03908Q677.5625 223.6172 677.5625 224.89845L677.5625 229.88283L676.5625 229.88283L676.5625 225.3047Q676.5625 224.52345 676.4531 224.21095Q676.34375 223.88283 676.0781 223.71095Q675.8281 223.52345 675.5156 223.52345Q674.875 223.52345 674.4531 224.03908Q674.0469 224.5547 674.0469 225.66408L674.0469 229.88283L673.03125 229.88283L673.03125 225.16408Q673.03125 224.25783 672.75 223.89845Q672.4844 223.52345 672.0 223.52345Q671.3125 223.52345 670.90625 224.08595Q670.5 224.63283 670.5 226.1172L670.5 229.88283L669.5 229.88283ZM683.5625 227.53908L684.6094 227.69533Q684.34375 228.8672 683.65625 229.46095Q682.9844 230.0547 681.9844 230.0547Q680.71875 230.0547 679.9219 229.10158Q679.1406 228.13283 679.1406 226.32033Q679.1406 224.4297 679.9219 223.44533Q680.71875 222.46095 681.9375 222.46095Q683.09375 222.46095 683.8594 223.4297Q684.6406 224.39845 684.6406 226.2422L684.625 226.57033L680.1875 226.57033Q680.25 227.78908 680.75 228.41408Q681.2656 229.03908 681.9844 229.03908Q683.125 229.03908 683.5625 227.53908ZM680.25 225.5547L683.5625 225.5547Q683.5 224.6172 683.1719 224.14845Q682.6875 223.47658 681.9219 223.47658Q681.25 223.47658 680.7656 224.03908Q680.2969 224.60158 680.25 225.5547ZM688.1094 226.25783Q688.1094 224.3672 688.8906 223.41408Q689.6875 222.46095 690.90625 222.46095Q692.09375 222.46095 692.8906 223.41408Q693.6875 224.3672 693.6875 226.1797Q693.6875 228.13283 692.90625 229.10158Q692.125 230.0547 690.90625 230.0547Q689.7031 230.0547 688.90625 229.10158Q688.1094 228.13283 688.1094 226.25783ZM689.1406 226.25783Q689.1406 227.66408 689.65625 228.35158Q690.1719 229.03908 690.9219 229.03908Q691.6406 229.03908 692.1406 228.35158Q692.65625 227.64845 692.65625 226.25783Q692.65625 224.85158 692.1406 224.16408Q691.6406 223.47658 690.875 223.47658Q690.15625 223.47658 689.6406 224.16408Q689.1406 224.85158 689.1406 226.25783ZM694.78125 229.88283L694.78125 223.58595L693.875 223.58595L693.875 222.6172L694.78125 222.6172L694.78125 221.85158Q694.78125 220.9922 694.9531 220.57033Q695.125 220.14845 695.4844 219.9297Q695.8594 219.69533 696.4219 219.69533Q696.84375 219.69533 697.3594 219.82033L697.2031 220.88283Q696.8906 220.82033 696.6094 220.82033Q696.15625 220.82033 695.96875 221.0547Q695.78125 221.28908 695.78125 221.94533L695.78125 222.6172L696.9375 222.6172L696.9375 223.58595L695.78125 223.58595L695.78125 229.88283L694.78125 229.88283ZM702.75 229.88283L702.75 221.03908L700.03125 221.03908L700.03125 219.8672L706.5469 219.8672L706.5469 221.03908L703.8281 221.03908L703.8281 229.88283L702.75 229.88283ZM707.4844 229.88283L707.4844 219.8672L708.5 219.8672L708.5 223.46095Q708.84375 222.96095 709.2969 222.71095Q709.75 222.46095 710.28125 222.46095Q711.2344 222.46095 711.78125 223.07033Q712.3281 223.66408 712.3281 225.28908L712.3281 229.88283L711.3281 229.88283L711.3281 225.28908Q711.3281 224.33595 710.9844 223.9297Q710.65625 223.52345 710.0781 223.52345Q709.4219 223.52345 708.9531 224.0547Q708.5 224.57033 708.5 225.91408L708.5 229.88283L707.4844 229.88283ZM713.4844 229.88283L713.4844 222.6172L714.3906 222.6172L714.3906 223.72658Q714.75 222.96095 715.03125 222.71095Q715.3281 222.46095 715.6875 222.46095Q716.2031 222.46095 716.71875 222.85158L716.375 223.9922Q716.0 223.72658 715.65625 223.72658Q715.3281 223.72658 715.0625 223.96095Q714.7969 224.1797 714.6875 224.58595Q714.5 225.28908 714.5 226.08595L714.5 229.88283L713.4844 229.88283ZM717.1094 226.25783Q717.1094 224.3672 717.8906 223.41408Q718.6875 222.46095 719.90625 222.46095Q721.09375 222.46095 721.8906 223.41408Q722.6875 224.3672 722.6875 226.1797Q722.6875 228.13283 721.90625 229.10158Q721.125 230.0547 719.90625 230.0547Q718.7031 230.0547 717.90625 229.10158Q717.1094 228.13283 717.1094 226.25783ZM718.1406 226.25783Q718.1406 227.66408 718.65625 228.35158Q719.1719 229.03908 719.9219 229.03908Q720.6406 229.03908 721.1406 228.35158Q721.65625 227.64845 721.65625 226.25783Q721.65625 224.85158 721.1406 224.16408Q720.6406 223.47658 719.875 223.47658Q719.15625 223.47658 718.6406 224.16408Q718.1406 224.85158 718.1406 226.25783ZM723.4844 229.88283L723.4844 222.6172L724.3906 222.6172L724.3906 223.64845Q724.71875 223.0547 725.1875 222.75783Q725.6719 222.46095 726.2969 222.46095Q726.7656 222.46095 727.1719 222.64845Q727.5781 222.83595 727.8281 223.14845Q728.0781 223.44533 728.2031 223.9297Q728.3281 224.41408 728.3281 225.41408L728.3281 229.88283L727.3125 229.88283L727.3125 225.46095Q727.3125 224.66408 727.1719 224.3047Q727.0469 223.9297 726.75 223.72658Q726.46875 223.52345 726.0781 223.52345Q725.3594 223.52345 724.9219 224.07033Q724.5 224.60158 724.5 225.91408L724.5 229.88283L723.4844 229.88283ZM733.5625 227.53908L734.6094 227.69533Q734.34375 228.8672 733.65625 229.46095Q732.9844 230.0547 731.9844 230.0547Q730.71875 230.0547 729.9219 229.10158Q729.1406 228.13283 729.1406 226.32033Q729.1406 224.4297 729.9219 223.44533Q730.71875 222.46095 731.9375 222.46095Q733.09375 222.46095 733.8594 223.4297Q734.6406 224.39845 734.6406 226.2422L734.625 226.57033L730.1875 226.57033Q730.25 227.78908 730.75 228.41408Q731.2656 229.03908 731.9844 229.03908Q733.125 229.03908 733.5625 227.53908ZM730.25 225.5547L733.5625 225.5547Q733.5 224.6172 733.1719 224.14845Q732.6875 223.47658 731.9219 223.47658Q731.25 223.47658 730.7656 224.03908Q730.2969 224.60158 730.25 225.5547ZM735.1094 227.71095L736.1094 227.52345Q736.1875 228.28908 736.5781 228.66408Q736.9844 229.03908 737.6406 229.03908Q738.2969 229.03908 738.65625 228.71095Q739.0156 228.38283 739.0156 227.88283Q739.0156 227.46095 738.7031 227.21095Q738.5 227.0547 737.6875 226.8047Q736.5 226.44533 736.1094 226.19533Q735.71875 225.94533 735.5 225.52345Q735.28125 225.08595 735.28125 224.5547Q735.28125 223.6172 735.875 223.03908Q736.46875 222.46095 737.5156 222.46095Q738.1875 222.46095 738.6875 222.69533Q739.1875 222.9297 739.4531 223.33595Q739.71875 223.7422 739.8281 224.4922L738.84375 224.66408Q738.7031 223.47658 737.5469 223.47658Q736.8906 223.47658 736.5625 223.7422Q736.25 223.9922 736.25 224.41408Q736.25 224.8047 736.5625 225.03908Q736.7344 225.1797 737.65625 225.47658Q738.90625 225.88283 739.2656 226.1172Q739.6406 226.35158 739.84375 226.75783Q740.0469 227.16408 740.0469 227.72658Q740.0469 228.77345 739.3906 229.41408Q738.7344 230.0547 737.59375 230.0547Q735.4531 230.0547 735.1094 227.71095ZM744.4844 221.27345L744.4844 219.8672L745.5 219.8672L745.5 221.27345L744.4844 221.27345ZM744.4844 229.88283L744.4844 222.6172L745.5 222.6172L745.5 229.88283L744.4844 229.88283ZM747.4844 229.88283L747.4844 222.6172L748.3906 222.6172L748.3906 223.64845Q748.71875 223.0547 749.1875 222.75783Q749.6719 222.46095 750.2969 222.46095Q750.7656 222.46095 751.1719 222.64845Q751.5781 222.83595 751.8281 223.14845Q752.0781 223.44533 752.2031 223.9297Q752.3281 224.41408 752.3281 225.41408L752.3281 229.88283L751.3125 229.88283L751.3125 225.46095Q751.3125 224.66408 751.1719 224.3047Q751.0469 223.9297 750.75 223.72658Q750.46875 223.52345 750.0781 223.52345Q749.3594 223.52345 748.9219 224.07033Q748.5 224.60158 748.5 225.91408L748.5 229.88283L747.4844 229.88283ZM755.7344 229.88283L758.8906 219.8672L760.0625 219.8672L763.4219 229.88283L762.1875 229.88283L761.21875 226.85158L757.7969 226.85158L756.8906 229.88283L755.7344 229.88283ZM758.1094 225.77345L760.8906 225.77345L760.03125 222.9922Q759.6406 221.71095 759.4531 220.91408Q759.2969 221.88283 759.0156 222.82033L758.1094 225.77345ZM766.75 229.88283L766.75 221.03908L764.03125 221.03908L764.03125 219.8672L770.5469 219.8672L770.5469 221.03908L767.8281 221.03908L767.8281 229.88283L766.75 229.88283ZM771.3281 225.00783Q771.3281 222.44533 772.4531 221.07033Q773.59375 219.6797 775.2656 219.6797Q776.3594 219.6797 777.25 220.3047Q778.1406 220.91408 778.65625 222.08595Q779.1875 223.25783 779.1875 224.88283Q779.1875 227.10158 778.1875 228.50783Q777.0625 230.0547 775.2656 230.0547Q773.4375 230.0547 772.34375 228.46095Q771.3281 227.03908 771.3281 225.00783ZM772.4531 225.02345Q772.4531 226.8672 773.2656 227.89845Q774.09375 228.91408 775.25 228.91408Q776.4531 228.91408 777.2656 227.88283Q778.0781 226.85158 778.0781 224.85158Q778.0781 223.5547 777.65625 222.53908Q777.3281 221.75783 776.6875 221.28908Q776.0469 220.82033 775.28125 220.82033Q774.0469 220.82033 773.25 221.85158Q772.4531 222.88283 772.4531 225.02345ZM780.6094 229.88283L780.6094 219.8672L782.2344 219.8672L784.1875 226.96095L784.5781 228.44533Q784.71875 227.88283 785.0156 226.83595L786.9844 219.8672L788.4531 219.8672L788.4531 229.88283L787.40625 229.88283L787.40625 221.4922L785.0 229.88283L784.03125 229.88283L781.65625 221.35158L781.65625 229.88283L780.6094 229.88283Z" fill-rule="nonzero"/><path fill="#616161" d="M763.0156 249.88283L762.0 249.88283L762.0 242.03908Q761.65625 242.44533 761.0625 242.88283Q760.46875 243.3047 759.9844 243.52345L759.9844 242.33595Q760.8125 241.85158 761.4531 241.16408Q762.09375 240.47658 762.3594 239.82033L763.0156 239.82033L763.0156 249.88283ZM765.2031 244.94533Q765.2031 242.41408 765.875 241.1172Q766.5625 239.82033 767.8906 239.82033Q769.0781 239.82033 769.75 240.8672Q770.5625 242.14845 770.5625 244.94533Q770.5625 247.44533 769.8906 248.75783Q769.21875 250.0547 767.875 250.0547Q766.7031 250.0547 765.9531 248.91408Q765.2031 247.75783 765.2031 244.94533ZM766.2344 244.94533Q766.2344 247.38283 766.7031 248.21095Q767.1719 249.03908 767.90625 249.03908Q768.59375 249.03908 769.0625 248.21095Q769.53125 247.3672 769.53125 244.94533Q769.53125 242.4922 769.0625 241.66408Q768.59375 240.83595 767.84375 240.83595Q767.15625 240.83595 766.6875 241.6797Q766.2344 242.52345 766.2344 244.94533ZM771.8125 249.88283L771.8125 248.47658L772.9531 248.47658L772.9531 249.88283L771.8125 249.88283ZM774.2031 244.94533Q774.2031 242.41408 774.875 241.1172Q775.5625 239.82033 776.8906 239.82033Q778.0781 239.82033 778.75 240.8672Q779.5625 242.14845 779.5625 244.94533Q779.5625 247.44533 778.8906 248.75783Q778.21875 250.0547 776.875 250.0547Q775.7031 250.0547 774.9531 248.91408Q774.2031 247.75783 774.2031 244.94533ZM775.2344 244.94533Q775.2344 247.38283 775.7031 248.21095Q776.1719 249.03908 776.90625 249.03908Q777.59375 249.03908 778.0625 248.21095Q778.53125 247.3672 778.53125 244.94533Q778.53125 242.4922 778.0625 241.66408Q777.59375 240.83595 776.84375 240.83595Q776.15625 240.83595 775.6875 241.6797Q775.2344 242.52345 775.2344 244.94533ZM780.3906 242.27345Q780.3906 241.02345 780.8906 240.3672Q781.3906 239.69533 782.1094 239.69533Q782.875 239.69533 783.3906 240.3672Q783.90625 241.02345 783.90625 242.33595Q783.90625 243.63283 783.3906 244.32033Q782.875 244.9922 782.125 244.9922Q781.40625 244.9922 780.8906 244.32033Q780.3906 243.64845 780.3906 242.27345ZM782.15625 240.53908Q781.78125 240.53908 781.53125 240.94533Q781.28125 241.33595 781.28125 242.33595Q781.28125 243.35158 781.53125 243.7422Q781.78125 244.13283 782.1719 244.13283Q782.53125 244.13283 782.78125 243.7422Q783.03125 243.33595 783.03125 242.33595Q783.03125 241.35158 782.78125 240.94533Q782.53125 240.53908 782.15625 240.53908ZM782.15625 250.25783L786.6406 239.69533L787.46875 239.69533L782.9844 250.25783L782.15625 250.25783ZM785.71875 247.52345Q785.71875 246.27345 786.2031 245.6172Q786.7031 244.96095 787.4219 244.96095Q788.1875 244.96095 788.7031 245.6172Q789.21875 246.27345 789.21875 247.58595Q789.21875 248.89845 788.6875 249.58595Q788.1719 250.25783 787.4531 250.25783Q786.71875 250.25783 786.21875 249.58595Q785.71875 248.89845 785.71875 247.52345ZM787.46875 245.8047Q787.0781 245.8047 786.8281 246.21095Q786.59375 246.60158 786.59375 247.60158Q786.59375 248.6172 786.84375 249.00783Q787.09375 249.39845 787.4844 249.39845Q787.84375 249.39845 788.09375 249.00783Q788.34375 248.60158 788.34375 247.60158Q788.34375 246.60158 788.09375 246.21095Q787.84375 245.8047 787.46875 245.8047Z" fill-rule="nonzero"/><path stroke="#8a8a8a" stroke-width="1.0" stroke-linecap="butt" d="M789.75 234.38283L574.25 234.38283L530.237 234.38283" fill-rule="nonzero"/><path fill="#616161" d="M532.237 234.38283C532.237 233.27826 531.34155 232.38283 530.237 232.38283C529.13245 232.38283 528.237 233.27826 528.237 234.38283C528.237 235.4874 529.13245 236.38283 530.237 236.38283C531.34155 236.38283 532.237 235.4874 532.237 234.38283" fill-rule="nonzero"/><path fill="#ffffff" d="M669.5156 265.62408L669.5156 264.4522L672.9844 264.4522L672.9844 268.17096Q672.1875 268.9522 671.3281 269.34283Q670.4844 269.73346 669.5781 269.73346Q668.375 269.73346 667.4219 269.1397Q666.4844 268.53033 665.9375 267.37408Q665.3906 266.21783 665.3906 264.59283Q665.3906 262.9522 665.9375 261.74908Q666.5 260.53033 667.3906 259.9522Q668.28125 259.37408 669.5156 259.37408Q670.40625 259.37408 671.0781 259.71783Q671.7656 260.04596 672.2031 260.65533Q672.6406 261.2647 672.8594 262.34283L671.875 262.67096Q671.6875 261.8272 671.375 261.40533Q671.0781 260.98346 670.5781 260.74908Q670.09375 260.49908 669.4844 260.49908Q668.5781 260.49908 667.9375 260.93658Q667.2969 261.37408 666.8906 262.29596Q666.5 263.2022 666.5 264.53033Q666.5 266.53033 667.34375 267.53033Q668.1875 268.53033 669.53125 268.53033Q670.1719 268.53033 670.84375 268.23346Q671.53125 267.92096 671.9219 267.49908L671.9219 265.62408L669.5156 265.62408ZM678.375 268.67096Q677.8594 269.18658 677.3125 269.46783Q676.7656 269.73346 676.1875 269.73346Q675.25 269.73346 674.6875 269.17096Q674.1406 268.60846 674.1406 267.65533Q674.1406 267.03033 674.40625 266.54596Q674.6719 266.06158 675.1094 265.79596Q675.5625 265.5147 676.4844 265.37408Q677.71875 265.2022 678.2969 264.9522L678.2969 264.6397Q678.2969 263.8897 678.03125 263.59283Q677.65625 263.15533 676.875 263.15533Q676.1719 263.15533 675.8125 263.4522Q675.46875 263.73346 675.3125 264.53033L674.3125 264.37408Q674.53125 263.2022 675.1719 262.67096Q675.8281 262.1397 677.03125 262.1397Q677.96875 262.1397 678.5 262.49908Q679.03125 262.84283 679.1719 263.35846Q679.3125 263.87408 679.3125 264.87408L679.3125 266.5147Q679.3125 268.24908 679.375 268.7022Q679.4375 269.1397 679.625 269.56158L678.5781 269.56158Q678.4219 269.18658 678.375 268.67096ZM678.2969 265.92096Q677.7344 266.18658 676.6406 266.3897Q676.0 266.49908 675.75 266.6397Q675.5 266.7647 675.3594 267.03033Q675.21875 267.28033 675.21875 267.62408Q675.21875 268.1397 675.53125 268.4522Q675.8594 268.7647 676.4375 268.7647Q676.96875 268.7647 677.40625 268.48346Q677.8594 268.2022 678.0781 267.73346Q678.2969 267.2647 678.2969 266.37408L678.2969 265.92096ZM680.5 269.56158L680.5 262.29596L681.40625 262.29596L681.40625 263.3272Q681.7031 262.74908 682.1719 262.4522Q682.65625 262.1397 683.2031 262.1397Q683.84375 262.1397 684.2656 262.46783Q684.7031 262.78033 684.8906 263.40533Q685.25 262.78033 685.7031 262.46783Q686.1719 262.1397 686.7344 262.1397Q687.5781 262.1397 688.0625 262.71783Q688.5625 263.29596 688.5625 264.5772L688.5625 269.56158L687.5625 269.56158L687.5625 264.98346Q687.5625 264.2022 687.4531 263.8897Q687.34375 263.56158 687.0781 263.3897Q686.8281 263.2022 686.5156 263.2022Q685.875 263.2022 685.4531 263.71783Q685.0469 264.23346 685.0469 265.34283L685.0469 269.56158L684.03125 269.56158L684.03125 264.84283Q684.03125 263.93658 683.75 263.5772Q683.4844 263.2022 683.0 263.2022Q682.3125 263.2022 681.90625 263.7647Q681.5 264.31158 681.5 265.79596L681.5 269.56158L680.5 269.56158ZM694.5625 267.21783L695.6094 267.37408Q695.34375 268.54596 694.65625 269.1397Q693.9844 269.73346 692.9844 269.73346Q691.71875 269.73346 690.9219 268.78033Q690.1406 267.81158 690.1406 265.99908Q690.1406 264.10846 690.9219 263.12408Q691.71875 262.1397 692.9375 262.1397Q694.09375 262.1397 694.8594 263.10846Q695.6406 264.0772 695.6406 265.92096L695.625 266.24908L691.1875 266.24908Q691.25 267.46783 691.75 268.09283Q692.2656 268.71783 692.9844 268.71783Q694.125 268.71783 694.5625 267.21783ZM691.25 265.23346L694.5625 265.23346Q694.5 264.29596 694.1719 263.8272Q693.6875 263.15533 692.9219 263.15533Q692.25 263.15533 691.7656 263.71783Q691.2969 264.28033 691.25 265.23346ZM699.1094 265.93658Q699.1094 264.04596 699.8906 263.09283Q700.6875 262.1397 701.90625 262.1397Q703.09375 262.1397 703.8906 263.09283Q704.6875 264.04596 704.6875 265.85846Q704.6875 267.81158 703.90625 268.78033Q703.125 269.73346 701.90625 269.73346Q700.7031 269.73346 699.90625 268.78033Q699.1094 267.81158 699.1094 265.93658ZM700.1406 265.93658Q700.1406 267.34283 700.65625 268.03033Q701.1719 268.71783 701.9219 268.71783Q702.6406 268.71783 703.1406 268.03033Q703.65625 267.3272 703.65625 265.93658Q703.65625 264.53033 703.1406 263.84283Q702.6406 263.15533 701.875 263.15533Q701.15625 263.15533 700.6406 263.84283Q700.1406 264.53033 700.1406 265.93658ZM705.78125 269.56158L705.78125 263.2647L704.875 263.2647L704.875 262.29596L705.78125 262.29596L705.78125 261.53033Q705.78125 260.67096 705.9531 260.24908Q706.125 259.8272 706.4844 259.60846Q706.8594 259.37408 707.4219 259.37408Q707.84375 259.37408 708.3594 259.49908L708.2031 260.56158Q707.8906 260.49908 707.6094 260.49908Q707.15625 260.49908 706.96875 260.73346Q706.78125 260.96783 706.78125 261.62408L706.78125 262.29596L707.9375 262.29596L707.9375 263.2647L706.78125 263.2647L706.78125 269.56158L705.78125 269.56158ZM713.75 269.56158L713.75 260.71783L711.03125 260.71783L711.03125 259.54596L717.5469 259.54596L717.5469 260.71783L714.8281 260.71783L714.8281 269.56158L713.75 269.56158ZM718.4844 269.56158L718.4844 259.54596L719.5 259.54596L719.5 263.1397Q719.84375 262.6397 720.2969 262.3897Q720.75 262.1397 721.28125 262.1397Q722.2344 262.1397 722.78125 262.74908Q723.3281 263.34283 723.3281 264.96783L723.3281 269.56158L722.3281 269.56158L722.3281 264.96783Q722.3281 264.0147 721.9844 263.60846Q721.65625 263.2022 721.0781 263.2022Q720.4219 263.2022 719.9531 263.73346Q719.5 264.24908 719.5 265.59283L719.5 269.56158L718.4844 269.56158ZM724.4844 269.56158L724.4844 262.29596L725.3906 262.29596L725.3906 263.40533Q725.75 262.6397 726.03125 262.3897Q726.3281 262.1397 726.6875 262.1397Q727.2031 262.1397 727.71875 262.53033L727.375 263.67096Q727.0 263.40533 726.65625 263.40533Q726.3281 263.40533 726.0625 263.6397Q725.7969 263.85846 725.6875 264.2647Q725.5 264.96783 725.5 265.7647L725.5 269.56158L724.4844 269.56158ZM728.1094 265.93658Q728.1094 264.04596 728.8906 263.09283Q729.6875 262.1397 730.90625 262.1397Q732.09375 262.1397 732.8906 263.09283Q733.6875 264.04596 733.6875 265.85846Q733.6875 267.81158 732.90625 268.78033Q732.125 269.73346 730.90625 269.73346Q729.7031 269.73346 728.90625 268.78033Q728.1094 267.81158 728.1094 265.93658ZM729.1406 265.93658Q729.1406 267.34283 729.65625 268.03033Q730.1719 268.71783 730.9219 268.71783Q731.6406 268.71783 732.1406 268.03033Q732.65625 267.3272 732.65625 265.93658Q732.65625 264.53033 732.1406 263.84283Q731.6406 263.15533 730.875 263.15533Q730.15625 263.15533 729.6406 263.84283Q729.1406 264.53033 729.1406 265.93658ZM734.4844 269.56158L734.4844 262.29596L735.3906 262.29596L735.3906 263.3272Q735.71875 262.73346 736.1875 262.43658Q736.6719 262.1397 737.2969 262.1397Q737.7656 262.1397 738.1719 262.3272Q738.5781 262.5147 738.8281 262.8272Q739.0781 263.12408 739.2031 263.60846Q739.3281 264.09283 739.3281 265.09283L739.3281 269.56158L738.3125 269.56158L738.3125 265.1397Q738.3125 264.34283 738.1719 263.98346Q738.0469 263.60846 737.75 263.40533Q737.46875 263.2022 737.0781 263.2022Q736.3594 263.2022 735.9219 263.74908Q735.5 264.28033 735.5 265.59283L735.5 269.56158L734.4844 269.56158ZM744.5625 267.21783L745.6094 267.37408Q745.34375 268.54596 744.65625 269.1397Q743.9844 269.73346 742.9844 269.73346Q741.71875 269.73346 740.9219 268.78033Q740.1406 267.81158 740.1406 265.99908Q740.1406 264.10846 740.9219 263.12408Q741.71875 262.1397 742.9375 262.1397Q744.09375 262.1397 744.8594 263.10846Q745.6406 264.0772 745.6406 265.92096L745.625 266.24908L741.1875 266.24908Q741.25 267.46783 741.75 268.09283Q742.2656 268.71783 742.9844 268.71783Q744.125 268.71783 744.5625 267.21783ZM741.25 265.23346L744.5625 265.23346Q744.5 264.29596 744.1719 263.8272Q743.6875 263.15533 742.9219 263.15533Q742.25 263.15533 741.7656 263.71783Q741.2969 264.28033 741.25 265.23346ZM746.1094 267.3897L747.1094 267.2022Q747.1875 267.96783 747.5781 268.34283Q747.9844 268.71783 748.6406 268.71783Q749.2969 268.71783 749.65625 268.3897Q750.0156 268.06158 750.0156 267.56158Q750.0156 267.1397 749.7031 266.8897Q749.5 266.73346 748.6875 266.48346Q747.5 266.12408 747.1094 265.87408Q746.71875 265.62408 746.5 265.2022Q746.28125 264.7647 746.28125 264.23346Q746.28125 263.29596 746.875 262.71783Q747.46875 262.1397 748.5156 262.1397Q749.1875 262.1397 749.6875 262.37408Q750.1875 262.60846 750.4531 263.0147Q750.71875 263.42096 750.8281 264.17096L749.84375 264.34283Q749.7031 263.15533 748.5469 263.15533Q747.8906 263.15533 747.5625 263.42096Q747.25 263.67096 747.25 264.09283Q747.25 264.48346 747.5625 264.71783Q747.7344 264.85846 748.65625 265.15533Q749.90625 265.56158 750.2656 265.79596Q750.6406 266.03033 750.84375 266.43658Q751.0469 266.84283 751.0469 267.40533Q751.0469 268.4522 750.3906 269.09283Q749.7344 269.73346 748.59375 269.73346Q746.4531 269.73346 746.1094 267.3897ZM755.4844 260.9522L755.4844 259.54596L756.5 259.54596L756.5 260.9522L755.4844 260.9522ZM755.4844 269.56158L755.4844 262.29596L756.5 262.29596L756.5 269.56158L755.4844 269.56158ZM758.4844 269.56158L758.4844 262.29596L759.3906 262.29596L759.3906 263.3272Q759.71875 262.73346 760.1875 262.43658Q760.6719 262.1397 761.2969 262.1397Q761.7656 262.1397 762.1719 262.3272Q762.5781 262.5147 762.8281 262.8272Q763.0781 263.12408 763.2031 263.60846Q763.3281 264.09283 763.3281 265.09283L763.3281 269.56158L762.3125 269.56158L762.3125 265.1397Q762.3125 264.34283 762.1719 263.98346Q762.0469 263.60846 761.75 263.40533Q761.46875 263.2022 761.0781 263.2022Q760.3594 263.2022 759.9219 263.74908Q759.5 264.28033 759.5 265.59283L759.5 269.56158L758.4844 269.56158ZM767.65625 269.56158L767.65625 259.54596L773.59375 259.54596L773.59375 260.71783L768.75 260.71783L768.75 263.79596L773.2969 263.79596L773.2969 264.96783L768.75 264.96783L768.75 268.37408L773.7969 268.37408L773.7969 269.56158L767.65625 269.56158ZM777.75 269.56158L777.75 260.71783L775.03125 260.71783L775.03125 259.54596L781.5469 259.54596L781.5469 260.71783L778.8281 260.71783L778.8281 269.56158L777.75 269.56158ZM782.625 269.56158L782.625 259.54596L783.71875 259.54596L783.71875 263.65533L787.9844 263.65533L787.9844 259.54596L789.0781 259.54596L789.0781 269.56158L787.9844 269.56158L787.9844 264.84283L783.71875 264.84283L783.71875 269.56158L782.625 269.56158Z" fill-rule="nonzero"/><path fill="#616161" d="M763.0156 289.56158L762.0 289.56158L762.0 281.71783Q761.65625 282.12408 761.0625 282.56158Q760.46875 282.98346 759.9844 283.2022L759.9844 282.0147Q760.8125 281.53033 761.4531 280.84283Q762.09375 280.15533 762.3594 279.49908L763.0156 279.49908L763.0156 289.56158ZM765.2031 284.62408Q765.2031 282.09283 765.875 280.79596Q766.5625 279.49908 767.8906 279.49908Q769.0781 279.49908 769.75 280.54596Q770.5625 281.8272 770.5625 284.62408Q770.5625 287.12408 769.8906 288.43658Q769.21875 289.73346 767.875 289.73346Q766.7031 289.73346 765.9531 288.59283Q765.2031 287.43658 765.2031 284.62408ZM766.2344 284.62408Q766.2344 287.06158 766.7031 287.8897Q767.1719 288.71783 767.90625 288.71783Q768.59375 288.71783 769.0625 287.8897Q769.53125 287.04596 769.53125 284.62408Q769.53125 282.17096 769.0625 281.34283Q768.59375 280.5147 767.84375 280.5147Q767.15625 280.5147 766.6875 281.35846Q766.2344 282.2022 766.2344 284.62408ZM771.8125 289.56158L771.8125 288.15533L772.9531 288.15533L772.9531 289.56158L771.8125 289.56158ZM774.2031 284.62408Q774.2031 282.09283 774.875 280.79596Q775.5625 279.49908 776.8906 279.49908Q778.0781 279.49908 778.75 280.54596Q779.5625 281.8272 779.5625 284.62408Q779.5625 287.12408 778.8906 288.43658Q778.21875 289.73346 776.875 289.73346Q775.7031 289.73346 774.9531 288.59283Q774.2031 287.43658 774.2031 284.62408ZM775.2344 284.62408Q775.2344 287.06158 775.7031 287.8897Q776.1719 288.71783 776.90625 288.71783Q777.59375 288.71783 778.0625 287.8897Q778.53125 287.04596 778.53125 284.62408Q778.53125 282.17096 778.0625 281.34283Q777.59375 280.5147 776.84375 280.5147Q776.15625 280.5147 775.6875 281.35846Q775.2344 282.2022 775.2344 284.62408ZM780.3906 281.9522Q780.3906 280.7022 780.8906 280.04596Q781.3906 279.37408 782.1094 279.37408Q782.875 279.37408 783.3906 280.04596Q783.90625 280.7022 783.90625 282.0147Q783.90625 283.31158 783.3906 283.99908Q782.875 284.67096 782.125 284.67096Q781.40625 284.67096 780.8906 283.99908Q780.3906 283.3272 780.3906 281.9522ZM782.15625 280.21783Q781.78125 280.21783 781.53125 280.62408Q781.28125 281.0147 781.28125 282.0147Q781.28125 283.03033 781.53125 283.42096Q781.78125 283.81158 782.1719 283.81158Q782.53125 283.81158 782.78125 283.42096Q783.03125 283.0147 783.03125 282.0147Q783.03125 281.03033 782.78125 280.62408Q782.53125 280.21783 782.15625 280.21783ZM782.15625 289.93658L786.6406 279.37408L787.46875 279.37408L782.9844 289.93658L782.15625 289.93658ZM785.71875 287.2022Q785.71875 285.9522 786.2031 285.29596Q786.7031 284.6397 787.4219 284.6397Q788.1875 284.6397 788.7031 285.29596Q789.21875 285.9522 789.21875 287.2647Q789.21875 288.5772 788.6875 289.2647Q788.1719 289.93658 787.4531 289.93658Q786.71875 289.93658 786.21875 289.2647Q785.71875 288.5772 785.71875 287.2022ZM787.46875 285.48346Q787.0781 285.48346 786.8281 285.8897Q786.59375 286.28033 786.59375 287.28033Q786.59375 288.29596 786.84375 288.68658Q787.09375 289.0772 787.4844 289.0772Q787.84375 289.0772 788.09375 288.68658Q788.34375 288.28033 788.34375 287.28033Q788.34375 286.28033 788.09375 285.8897Q787.84375 285.48346 787.46875 285.48346Z" fill-rule="nonzero"/><path stroke="#8a8a8a" stroke-width="1.0" stroke-linecap="butt" d="M789.75 274.06158L574.25 274.06158L452.21823 274.06158" fill-rule="nonzero"/><path fill="#616161" d="M454.21823 274.06158C454.21823 272.95703 453.3228 272.06158 452.21823 272.06158C451.11368 272.06158 450.21823 272.95703 450.21823 274.06158C450.21823 275.16617 451.11368 276.06158 452.21823 276.06158C453.3228 276.06158 454.21823 275.16617 454.21823 274.06158" fill-rule="nonzero"/></svg>