<svg version="1.1" viewBox="0.0 0.0 808.0 371.0" fill="none" stroke="none" stroke-linecap="square" stroke-miterlimit="10" width="808" height="371" xmlns:xlink="http://www.w3.org/1999/xlink" xmlns="http://www.w3.org/2000/svg"><path fill="#000000" d="M0 0L808.0 0L808.0 371.0L0 371.0L0 0Z" fill-rule="nonzero"/><path fill="#9500ae" d="M404.0 114.54625C425.2316 114.54625 445.6654 120.209465 461.14258 130.38329L461.14258 155.4258C445.6654 145.25197 425.2316 139.58875 404.0 139.58875Z" fill-rule="nonzero"/><path fill="#d500f9" d="M404.0 56.11375C446.46323 56.11375 487.33078 67.44018 518.28516 87.787834L461.14258 130.38329C445.6654 120.209465 425.2316 114.54625 404.0 114.54625Z" fill-rule="nonzero"/><path fill="#b32b00" d="M461.14258 130.38329C471.3922 137.12082 479.04453 145.56151 483.38943 154.92212L483.38943 179.96461C479.04453 170.604 471.3922 162.16333 461.14258 155.4258Z" fill-rule="nonzero"/><path fill="#ff3d00" d="M518.28516 87.787834C538.7844 101.26289 554.08905 118.14427 562.7789 136.86548L483.38943 154.92212C479.04453 145.56151 471.3922 137.12082 461.14258 130.38329Z" fill-rule="nonzero"/><path fill="#b3a400" d="M570.95 198.02126C570.95 210.28455 568.19257 222.47144 562.7789 234.13452L562.7789 209.09203C568.19257 197.42892 570.95 185.24205 570.95 172.97874Z" fill-rule="nonzero"/><path fill="#b3a400" d="M483.38943 154.92212C486.09628 160.75366 487.475 166.8471 487.475 172.97874L487.475 198.02126C487.475 191.8896 486.09628 185.79616 483.38943 179.96461Z" fill-rule="nonzero"/><path fill="#ffea00" d="M562.7789 136.86548C573.6737 160.33704 573.6737 185.62045 562.7789 209.09203L483.38943 191.03539C488.83685 179.2996 488.83685 166.6579 483.38943 154.92212Z" fill-rule="nonzero"/><path fill="#b3b3b3" d="M562.7789 234.13452C537.402 288.80603 458.99368 322.4401 377.88327 313.44745C296.77283 304.4548 237.05 255.50629 237.05 198.02126L237.05 172.97874C237.05 230.46378 296.77283 279.4123 377.88327 288.40494C458.99368 297.39758 537.402 263.76355 562.7789 209.09203Z" fill-rule="nonzero"/><path fill="#b3b3b3" d="M320.525 172.97874C320.525 140.70737 357.89804 114.54625 404.0 114.54625L404.0 139.58875C357.89804 139.58875 320.525 165.74988 320.525 198.02126Z" fill-rule="nonzero"/><path fill="#ffffff" d="M562.7789 209.09203C536.37396 265.9782 452.87003 299.72592 369.28915 287.28998C285.70825 274.854 229.0328 220.24905 237.96457 160.76303C246.89633 101.277 318.55188 56.11375 404.0 56.11375L404.0 114.54625C361.27594 114.54625 325.44815 137.12788 320.9823 166.8709C316.51642 196.6139 344.85413 223.91638 386.64456 230.13435C428.43503 236.35234 470.18698 219.47849 483.38943 191.03539Z" fill-rule="nonzero"/><path fill="#ffffff" d="M21.1125 233.7357L21.1125 226.15758L18.8 226.15758L18.8 225.14195L24.378124 225.14195L24.378124 226.15758L22.05 226.15758L22.05 233.7357L21.1125 233.7357ZM25.3 233.7357L25.3 225.14195L26.2375 225.14195L26.2375 228.6732L29.89375 228.6732L29.89375 225.14195L30.83125 225.14195L30.83125 233.7357L29.89375 233.7357L29.89375 229.68883L26.2375 229.68883L26.2375 233.7357L25.3 233.7357ZM37.315624 230.72008L38.253124 231.01695Q37.940624 232.45445 37.159374 233.1732Q36.378124 233.87633 35.26875 233.87633Q34.3 233.87633 33.596874 233.40758Q32.909374 232.9232 32.45625 231.87633Q32.01875 230.81383 32.01875 229.37633Q32.01875 227.97008 32.45625 226.9857Q32.909374 226.00133 33.659374 225.50133Q34.409374 225.00133 35.346874 225.00133Q36.3625 225.00133 37.096874 225.64195Q37.83125 226.26695 38.128124 227.50133L37.20625 227.76695Q36.7375 225.97008 35.33125 225.97008Q34.628124 225.97008 34.1125 226.32945Q33.596874 226.68883 33.284374 227.45445Q32.9875 228.22008 32.9875 229.37633Q32.9875 231.14195 33.596874 232.03258Q34.221874 232.90758 35.253124 232.90758Q36.01875 232.90758 36.565624 232.37633Q37.128124 231.82945 37.315624 230.72008ZM41.8625 231.87633L42.70625 231.72008Q42.784374 232.37633 43.128124 232.68883Q43.471874 233.00133 44.034374 233.00133Q44.596874 233.00133 44.89375 232.7357Q45.20625 232.45445 45.20625 232.01695Q45.20625 231.65758 44.940624 231.45445Q44.76875 231.31383 44.065624 231.09508Q43.05 230.78258 42.70625 230.57945Q42.378124 230.3607 42.190624 230.00133Q42.003124 229.62633 42.003124 229.15758Q42.003124 228.3607 42.503124 227.87633Q43.01875 227.37633 43.925 227.37633Q44.4875 227.37633 44.909374 227.57945Q45.346874 227.78258 45.58125 228.12633Q45.815624 228.47008 45.89375 229.1107L45.05 229.25133Q44.940624 228.2357 43.940624 228.2357Q43.378124 228.2357 43.096874 228.47008Q42.83125 228.68883 42.83125 229.0482Q42.83125 229.39195 43.096874 229.57945Q43.253124 229.70445 44.034374 229.95445Q45.1125 230.31383 45.425 230.51695Q45.7375 230.70445 45.909374 231.06383Q46.096874 231.40758 46.096874 231.89195Q46.096874 232.78258 45.51875 233.32945Q44.95625 233.87633 43.9875 233.87633Q42.14375 233.87633 41.8625 231.87633ZM49.1125 232.7982L49.221874 233.72008Q48.878124 233.81383 48.58125 233.81383Q48.128124 233.81383 47.846874 233.64195Q47.58125 233.45445 47.471874 233.15758Q47.378124 232.84508 47.378124 231.90758L47.378124 228.32945L46.7375 228.32945L46.7375 227.51695L47.378124 227.51695L47.378124 225.97008L48.2375 225.34508L48.2375 227.51695L49.1125 227.51695L49.1125 228.32945L48.2375 228.32945L48.2375 231.97008Q48.2375 232.47008 48.315624 232.62633Q48.425 232.82945 48.7375 232.82945Q48.878124 232.82945 49.1125 232.7982ZM53.51875 232.97008Q53.08125 233.4232 52.6125 233.65758Q52.14375 233.87633 51.64375 233.87633Q50.846874 233.87633 50.3625 233.39195Q49.89375 232.90758 49.89375 232.09508Q49.89375 231.56383 50.1125 231.15758Q50.33125 230.7357 50.721874 230.50133Q51.1125 230.26695 51.89375 230.14195Q52.95625 230.00133 53.440624 229.78258L53.440624 229.51695Q53.440624 228.87633 53.221874 228.62633Q52.89375 228.25133 52.221874 228.25133Q51.628124 228.25133 51.33125 228.50133Q51.034374 228.7357 50.89375 229.4232L50.034374 229.28258Q50.221874 228.28258 50.76875 227.82945Q51.33125 227.37633 52.3625 227.37633Q53.159374 227.37633 53.6125 227.6732Q54.08125 227.97008 54.190624 228.4232Q54.315624 228.8607 54.315624 229.72008L54.315624 231.12633Q54.315624 232.6107 54.3625 233.00133Q54.425 233.37633 54.596874 233.7357L53.690624 233.7357Q53.55 233.40758 53.51875 232.97008ZM53.440624 230.6107Q52.971874 230.84508 52.034374 231.01695Q51.4875 231.1107 51.26875 231.2357Q51.05 231.34508 50.925 231.56383Q50.815624 231.78258 50.815624 232.06383Q50.815624 232.51695 51.08125 232.78258Q51.3625 233.0482 51.846874 233.0482Q52.315624 233.0482 52.690624 232.81383Q53.065624 232.56383 53.253124 232.1732Q53.440624 231.76695 53.440624 231.00133L53.440624 230.6107ZM55.20625 233.7357L55.20625 225.14195L56.065624 225.14195L56.065624 230.0482L58.1125 227.51695L59.2375 227.51695L57.284374 229.81383L59.425 233.7357L58.378124 233.7357L56.675 230.5482L56.065624 231.26695L56.065624 233.7357L55.20625 233.7357ZM63.675 231.7357L64.56563 231.8607Q64.34688 232.8607 63.753124 233.37633Q63.175 233.87633 62.315624 233.87633Q61.2375 233.87633 60.565624 233.06383Q59.89375 232.2357 59.89375 230.6732Q59.89375 229.06383 60.565624 228.22008Q61.2375 227.37633 62.284374 227.37633Q63.26875 227.37633 63.925 228.20445Q64.59688 229.03258 64.59688 230.6107L64.59688 230.89195L60.784374 230.89195Q60.83125 231.93883 61.26875 232.47008Q61.70625 233.00133 62.315624 233.00133Q63.3 233.00133 63.675 231.7357ZM60.83125 230.03258L63.675 230.03258Q63.628124 229.22008 63.33125 228.81383Q62.925 228.2357 62.26875 228.2357Q61.690624 228.2357 61.284374 228.72008Q60.878124 229.20445 60.83125 230.03258ZM65.19063 233.7357L65.19063 227.51695L65.95625 227.51695L65.95625 228.45445Q66.26875 227.7982 66.50313 227.59508Q66.75313 227.37633 67.06563 227.37633Q67.50313 227.37633 67.95625 227.70445L67.65938 228.68883Q67.34688 228.45445 67.03438 228.45445Q66.75313 228.45445 66.51875 228.65758Q66.3 228.84508 66.20625 229.18883Q66.05 229.7982 66.05 230.47008L66.05 233.7357L65.19063 233.7357ZM67.8625 231.87633L68.70625 231.72008Q68.78438 232.37633 69.12813 232.68883Q69.47188 233.00133 70.03438 233.00133Q70.59688 233.00133 70.89375 232.7357Q71.20625 232.45445 71.20625 232.01695Q71.20625 231.65758 70.94063 231.45445Q70.76875 231.31383 70.06563 231.09508Q69.05 230.78258 68.70625 230.57945Q68.37813 230.3607 68.19063 230.00133Q68.00313 229.62633 68.00313 229.15758Q68.00313 228.3607 68.50313 227.87633Q69.01875 227.37633 69.925 227.37633Q70.4875 227.37633 70.90938 227.57945Q71.34688 227.78258 71.58125 228.12633Q71.81563 228.47008 71.89375 229.1107L71.05 229.25133Q70.94063 228.2357 69.94063 228.2357Q69.37813 228.2357 69.09688 228.47008Q68.83125 228.68883 68.83125 229.0482Q68.83125 229.39195 69.09688 229.57945Q69.25313 229.70445 70.03438 229.95445Q71.1125 230.31383 71.425 230.51695Q71.7375 230.70445 71.90938 231.06383Q72.09688 231.40758 72.09688 231.89195Q72.09688 232.78258 71.51875 233.32945Q70.95625 233.87633 69.9875 233.87633Q68.14375 233.87633 67.8625 231.87633Z" fill-rule="nonzero"/><path fill="#616161" d="M19.003124 244.26695L19.003124 243.25133L23.565624 243.25133L23.565624 244.07945Q22.534374 245.40758 21.753124 247.53258Q20.9875 249.64195 20.878124 251.7357L19.9875 251.7357Q20.003124 250.65758 20.33125 249.22008Q20.659374 247.78258 21.221874 246.4857Q21.784374 245.18883 22.440624 244.26695L19.003124 244.26695ZM23.940624 247.50133Q23.940624 245.32945 24.51875 244.22008Q25.1125 243.1107 26.253124 243.1107Q27.253124 243.1107 27.83125 244.01695Q28.534374 245.09508 28.534374 247.50133Q28.534374 249.64195 27.95625 250.76695Q27.378124 251.87633 26.2375 251.87633Q25.221874 251.87633 24.58125 250.89195Q23.940624 249.90758 23.940624 247.50133ZM24.83125 247.50133Q24.83125 249.59508 25.221874 250.31383Q25.628124 251.01695 26.253124 251.01695Q26.846874 251.01695 27.2375 250.2982Q27.64375 249.57945 27.64375 247.50133Q27.64375 245.40758 27.2375 244.70445Q26.846874 243.9857 26.20625 243.9857Q25.6125 243.9857 25.221874 244.70445Q24.83125 245.4232 24.83125 247.50133ZM29.45625 251.7357L29.45625 250.53258L30.440624 250.53258L30.440624 251.7357L29.45625 251.7357ZM31.940624 247.50133Q31.940624 245.32945 32.51875 244.22008Q33.1125 243.1107 34.253124 243.1107Q35.253124 243.1107 35.83125 244.01695Q36.534374 245.09508 36.534374 247.50133Q36.534374 249.64195 35.95625 250.76695Q35.378124 251.87633 34.2375 251.87633Q33.221874 251.87633 32.58125 250.89195Q31.940624 249.90758 31.940624 247.50133ZM32.83125 247.50133Q32.83125 249.59508 33.221874 250.31383Q33.628124 251.01695 34.253124 251.01695Q34.846874 251.01695 35.2375 250.2982Q35.64375 249.57945 35.64375 247.50133Q35.64375 245.40758 35.2375 244.70445Q34.846874 243.9857 34.20625 243.9857Q33.6125 243.9857 33.221874 244.70445Q32.83125 245.4232 32.83125 247.50133ZM37.096874 245.20445Q37.096874 244.14195 37.51875 243.57945Q37.95625 243.00133 38.58125 243.00133Q39.221874 243.00133 39.659374 243.57945Q40.1125 244.14195 40.1125 245.26695Q40.1125 246.37633 39.659374 246.95445Q39.221874 247.53258 38.596874 247.53258Q37.971874 247.53258 37.534374 246.97008Q37.096874 246.39195 37.096874 245.20445ZM38.6125 243.72008Q38.284374 243.72008 38.065624 244.06383Q37.8625 244.40758 37.8625 245.26695Q37.8625 246.12633 38.065624 246.47008Q38.284374 246.81383 38.628124 246.81383Q38.940624 246.81383 39.14375 246.47008Q39.3625 246.12633 39.3625 245.26695Q39.3625 244.4232 39.14375 244.07945Q38.925 243.72008 38.6125 243.72008ZM38.6125 252.0482L42.45625 243.00133L43.159374 243.00133L39.33125 252.0482L38.6125 252.0482ZM41.659374 249.72008Q41.659374 248.64195 42.08125 248.07945Q42.51875 247.51695 43.128124 247.51695Q43.784374 247.51695 44.221874 248.07945Q44.675 248.64195 44.675 249.76695Q44.675 250.89195 44.221874 251.47008Q43.76875 252.0482 43.14375 252.0482Q42.534374 252.0482 42.096874 251.47008Q41.659374 250.89195 41.659374 249.72008ZM43.159374 248.2357Q42.83125 248.2357 42.6125 248.57945Q42.409374 248.9232 42.409374 249.78258Q42.409374 250.64195 42.628124 250.9857Q42.846874 251.32945 43.190624 251.32945Q43.4875 251.32945 43.690624 250.9857Q43.909374 250.62633 43.909374 249.78258Q43.909374 248.9232 43.690624 248.57945Q43.4875 248.2357 43.159374 248.2357Z" fill-rule="nonzero"/><path stroke="#8a8a8a" stroke-width="1.0" stroke-linecap="butt" d="M18.55 238.2357L231.05 238.2357L275.6879 238.2357" fill-rule="nonzero"/><path fill="#616161" d="M277.6879 238.2357C277.6879 237.13113 276.79245 236.2357 275.6879 236.2357C274.5833 236.2357 273.6879 237.13113 273.6879 238.2357C273.6879 239.34027 274.5833 240.2357 275.6879 240.2357C276.79245 240.2357 277.6879 239.34027 277.6879 238.2357" fill-rule="nonzero"/><path fill="#ffffff" d="M665.91876 65.76896L666.7625 65.92521Q666.825 66.42521 667.10626 66.659584Q667.40314 66.909584 667.9344 66.909584Q668.4969 66.909584 668.825 66.628334Q669.16876 66.36271 669.29376 65.815834Q669.3719 65.48771 669.3719 64.440834Q669.09064 64.847084 668.73126 65.05021Q668.3875 65.253334 667.96564 65.253334Q667.04376 65.253334 666.4344 64.472084Q665.7469 63.58146 665.7469 62.097084Q665.7469 61.097084 666.04376 60.347084Q666.35626 59.597084 666.85626 59.253334Q667.35626 58.89396 667.96564 58.89396Q668.41876 58.89396 668.77814 59.11271Q669.15314 59.33146 669.45 59.784584L669.45 59.034584L670.2469 59.034584L670.2469 64.409584Q670.2469 65.847084 670.0125 66.45646Q669.77814 67.065834 669.2469 67.42521Q668.71564 67.784584 667.96564 67.784584Q666.96564 67.784584 666.4344 67.23771Q665.90314 66.70646 665.91876 65.76896ZM666.6375 62.034584Q666.6375 63.253334 667.04376 63.815834Q667.45 64.378334 668.02814 64.378334Q668.6219 64.378334 669.02814 63.83146Q669.4344 63.284584 669.4344 62.08146Q669.4344 60.909584 669.0125 60.347084Q668.59064 59.76896 667.9969 59.76896Q667.45 59.76896 667.04376 60.347084Q666.6375 60.909584 666.6375 62.034584ZM671.09064 57.878334L671.09064 56.659584L671.95 56.659584L671.95 57.878334L671.09064 57.878334ZM671.09064 65.253334L671.09064 59.034584L671.95 59.034584L671.95 65.253334L671.09064 65.253334ZM673.325 65.253334L673.325 59.847084L672.5594 59.847084L672.5594 59.034584L673.325 59.034584L673.325 58.36271Q673.325 57.628334 673.48126 57.26896Q673.6375 56.909584 673.95 56.722084Q674.2625 56.51896 674.73126 56.51896Q675.10626 56.51896 675.54376 56.628334L675.41876 57.534584Q675.15314 57.48771 674.90314 57.48771Q674.5125 57.48771 674.34064 57.690834Q674.1844 57.89396 674.1844 58.45646L674.1844 59.034584L675.1844 59.034584L675.1844 59.847084L674.1844 59.847084L674.1844 65.253334L673.325 65.253334ZM678.0125 64.315834L678.1219 65.23771Q677.77814 65.33146 677.48126 65.33146Q677.02814 65.33146 676.7469 65.159584Q676.48126 64.972084 676.3719 64.67521Q676.27814 64.36271 676.27814 63.42521L676.27814 59.847084L675.6375 59.847084L675.6375 59.034584L676.27814 59.034584L676.27814 57.48771L677.1375 56.86271L677.1375 59.034584L678.0125 59.034584L678.0125 59.847084L677.1375 59.847084L677.1375 63.48771Q677.1375 63.98771 677.21564 64.14396Q677.325 64.347084 677.6375 64.347084Q677.77814 64.347084 678.0125 64.315834ZM684.0125 64.315834L684.1219 65.23771Q683.77814 65.33146 683.48126 65.33146Q683.02814 65.33146 682.7469 65.159584Q682.48126 64.972084 682.3719 64.67521Q682.27814 64.36271 682.27814 63.42521L682.27814 59.847084L681.6375 59.847084L681.6375 59.034584L682.27814 59.034584L682.27814 57.48771L683.1375 56.86271L683.1375 59.034584L684.0125 59.034584L684.0125 59.847084L683.1375 59.847084L683.1375 63.48771Q683.1375 63.98771 683.21564 64.14396Q683.325 64.347084 683.6375 64.347084Q683.77814 64.347084 684.0125 64.315834ZM684.7625 62.14396Q684.7625 60.534584 685.4344 59.722084Q686.1219 58.89396 687.15314 58.89396Q688.16876 58.89396 688.85626 59.722084Q689.54376 60.534584 689.54376 62.08146Q689.54376 63.753334 688.8719 64.58146Q688.2 65.39396 687.15314 65.39396Q686.1219 65.39396 685.4344 64.58146Q684.7625 63.753334 684.7625 62.14396ZM685.65314 62.14396Q685.65314 63.347084 686.09064 63.940834Q686.52814 64.51896 687.16876 64.51896Q687.77814 64.51896 688.21564 63.92521Q688.65314 63.33146 688.65314 62.14396Q688.65314 60.940834 688.21564 60.36271Q687.77814 59.76896 687.1219 59.76896Q686.5125 59.76896 686.075 60.36271Q685.65314 60.940834 685.65314 62.14396ZM693.23126 65.253334L693.23126 56.659584L698.325 56.659584L698.325 57.67521L694.16876 57.67521L694.16876 60.30021L698.0594 60.30021L698.0594 61.315834L694.16876 61.315834L694.16876 64.23771L698.48126 64.23771L698.48126 65.253334L693.23126 65.253334ZM702.0125 64.315834L702.1219 65.23771Q701.77814 65.33146 701.48126 65.33146Q701.02814 65.33146 700.7469 65.159584Q700.48126 64.972084 700.3719 64.67521Q700.27814 64.36271 700.27814 63.42521L700.27814 59.847084L699.6375 59.847084L699.6375 59.034584L700.27814 59.034584L700.27814 57.48771L701.1375 56.86271L701.1375 59.034584L702.0125 59.034584L702.0125 59.847084L701.1375 59.847084L701.1375 63.48771Q701.1375 63.98771 701.21564 64.14396Q701.325 64.347084 701.6375 64.347084Q701.77814 64.347084 702.0125 64.315834ZM703.09064 65.253334L703.09064 56.659584L703.95 56.659584L703.95 59.73771Q704.2469 59.315834 704.6219 59.11271Q705.0125 58.89396 705.48126 58.89396Q706.29376 58.89396 706.7625 59.409584Q707.23126 59.92521 707.23126 61.315834L707.23126 65.253334L706.3719 65.253334L706.3719 61.315834Q706.3719 60.503334 706.09064 60.159584Q705.8094 59.80021 705.29376 59.80021Q704.73126 59.80021 704.34064 60.253334Q703.95 60.70646 703.95 61.847084L703.95 65.253334L703.09064 65.253334ZM711.575 63.253334L712.46564 63.378334Q712.2469 64.378334 711.65314 64.89396Q711.075 65.39396 710.21564 65.39396Q709.1375 65.39396 708.46564 64.58146Q707.79376 63.753334 707.79376 62.190834Q707.79376 60.58146 708.46564 59.73771Q709.1375 58.89396 710.1844 58.89396Q711.16876 58.89396 711.825 59.722084Q712.4969 60.55021 712.4969 62.128334L712.4969 62.409584L708.6844 62.409584Q708.73126 63.45646 709.16876 63.98771Q709.60626 64.51896 710.21564 64.51896Q711.2 64.51896 711.575 63.253334ZM708.73126 61.55021L711.575 61.55021Q711.52814 60.73771 711.23126 60.33146Q710.825 59.753334 710.16876 59.753334Q709.59064 59.753334 709.1844 60.23771Q708.77814 60.722084 708.73126 61.55021ZM713.09064 65.253334L713.09064 59.034584L713.85626 59.034584L713.85626 59.972084Q714.16876 59.315834 714.40314 59.11271Q714.65314 58.89396 714.96564 58.89396Q715.40314 58.89396 715.85626 59.222084L715.5594 60.20646Q715.2469 59.972084 714.9344 59.972084Q714.65314 59.972084 714.41876 60.17521Q714.2 60.36271 714.10626 60.70646Q713.95 61.315834 713.95 61.98771L713.95 65.253334L713.09064 65.253334ZM719.575 63.253334L720.46564 63.378334Q720.2469 64.378334 719.65314 64.89396Q719.075 65.39396 718.21564 65.39396Q717.1375 65.39396 716.46564 64.58146Q715.79376 63.753334 715.79376 62.190834Q715.79376 60.58146 716.46564 59.73771Q717.1375 58.89396 718.1844 58.89396Q719.16876 58.89396 719.825 59.722084Q720.4969 60.55021 720.4969 62.128334L720.4969 62.409584L716.6844 62.409584Q716.73126 63.45646 717.16876 63.98771Q717.60626 64.51896 718.21564 64.51896Q719.2 64.51896 719.575 63.253334ZM716.73126 61.55021L719.575 61.55021Q719.52814 60.73771 719.23126 60.33146Q718.825 59.753334 718.16876 59.753334Q717.59064 59.753334 717.1844 60.23771Q716.77814 60.722084 716.73126 61.55021ZM724.4344 65.253334L724.4344 64.33146Q724.1375 64.86271 723.73126 65.128334Q723.325 65.39396 722.8094 65.39396Q722.21564 65.39396 721.77814 65.065834Q721.35626 64.73771 721.2 64.253334Q721.0594 63.753334 721.0594 62.878334L721.0594 59.034584L721.9344 59.034584L721.9344 62.48771Q721.9344 63.440834 722.02814 63.76896Q722.1219 64.097084 722.3719 64.30021Q722.6375 64.48771 722.98126 64.48771Q723.59064 64.48771 723.9969 63.972084Q724.34064 63.534584 724.34064 62.36271L724.34064 59.034584L725.2 59.034584L725.2 65.253334L724.4344 65.253334ZM726.09064 65.253334L726.09064 59.034584L726.8719 59.034584L726.8719 59.909584Q727.1219 59.409584 727.52814 59.159584Q727.9344 58.89396 728.41876 58.89396Q728.95 58.89396 729.325 59.17521Q729.7 59.440834 729.85626 59.972084Q730.16876 59.440834 730.5594 59.17521Q730.95 58.89396 731.4344 58.89396Q732.16876 58.89396 732.59064 59.39396Q733.0125 59.878334 733.0125 60.98771L733.0125 65.253334L732.15314 65.253334L732.15314 61.33146Q732.15314 60.659584 732.04376 60.39396Q731.95 60.11271 731.73126 59.95646Q731.52814 59.80021 731.2469 59.80021Q730.7 59.80021 730.34064 60.253334Q729.9969 60.690834 729.9969 61.64396L729.9969 65.253334L729.1219 65.253334L729.1219 61.20646Q729.1219 60.440834 728.8875 60.128334Q728.65314 59.80021 728.23126 59.80021Q727.6375 59.80021 727.29376 60.284584Q726.95 60.753334 726.95 62.01896L726.95 65.253334L726.09064 65.253334ZM740.41876 64.48771Q739.98126 64.940834 739.5125 65.17521Q739.04376 65.39396 738.54376 65.39396Q737.7469 65.39396 737.2625 64.909584Q736.79376 64.42521 736.79376 63.61271Q736.79376 63.08146 737.0125 62.67521Q737.23126 62.253334 737.6219 62.01896Q738.0125 61.784584 738.79376 61.659584Q739.85626 61.51896 740.34064 61.30021L740.34064 61.034584Q740.34064 60.39396 740.1219 60.14396Q739.79376 59.76896 739.1219 59.76896Q738.52814 59.76896 738.23126 60.01896Q737.9344 60.253334 737.79376 60.940834L736.9344 60.80021Q737.1219 59.80021 737.66876 59.347084Q738.23126 58.89396 739.2625 58.89396Q740.0594 58.89396 740.5125 59.190834Q740.98126 59.48771 741.09064 59.940834Q741.21564 60.378334 741.21564 61.23771L741.21564 62.64396Q741.21564 64.128334 741.2625 64.51896Q741.325 64.89396 741.4969 65.253334L740.59064 65.253334Q740.45 64.92521 740.41876 64.48771ZM740.34064 62.128334Q739.8719 62.36271 738.9344 62.534584Q738.3875 62.628334 738.16876 62.753334Q737.95 62.86271 737.825 63.08146Q737.71564 63.30021 737.71564 63.58146Q737.71564 64.034584 737.98126 64.30021Q738.2625 64.565834 738.7469 64.565834Q739.21564 64.565834 739.59064 64.33146Q739.96564 64.08146 740.15314 63.690834Q740.34064 63.284584 740.34064 62.51896L740.34064 62.128334ZM742.09064 65.253334L742.09064 59.034584L742.85626 59.034584L742.85626 59.909584Q743.1375 59.39396 743.54376 59.14396Q743.96564 58.89396 744.48126 58.89396Q744.90314 58.89396 745.2469 59.05021Q745.59064 59.20646 745.8094 59.472084Q746.02814 59.73771 746.1219 60.159584Q746.23126 60.565834 746.23126 61.42521L746.23126 65.253334L745.3719 65.253334L745.3719 61.472084Q745.3719 60.784584 745.2469 60.472084Q745.1375 60.14396 744.8875 59.972084Q744.6375 59.80021 744.3094 59.80021Q743.6844 59.80021 743.3094 60.26896Q742.95 60.722084 742.95 61.847084L742.95 65.253334L742.09064 65.253334ZM750.3875 65.253334L750.3875 64.472084Q750.15314 64.92521 749.77814 65.159584Q749.41876 65.39396 748.9969 65.39396Q748.09064 65.39396 747.4344 64.55021Q746.77814 63.690834 746.77814 62.14396Q746.77814 61.08146 747.0594 60.347084Q747.35626 59.597084 747.84064 59.253334Q748.34064 58.89396 748.9344 58.89396Q749.35626 58.89396 749.71564 59.128334Q750.09064 59.347084 750.34064 59.73771L750.34064 56.659584L751.2 56.659584L751.2 65.253334L750.3875 65.253334ZM747.65314 62.14396Q747.65314 63.347084 748.075 63.940834Q748.4969 64.51896 749.0594 64.51896Q749.60626 64.51896 750.0125 63.95646Q750.41876 63.39396 750.41876 62.26896Q750.41876 60.95646 750.0125 60.36271Q749.60626 59.753334 748.98126 59.753334Q748.45 59.753334 748.04376 60.33146Q747.65314 60.909584 747.65314 62.14396ZM760.21564 62.23771L761.15314 62.534584Q760.84064 63.972084 760.0594 64.690834Q759.27814 65.39396 758.16876 65.39396Q757.2 65.39396 756.4969 64.92521Q755.8094 64.440834 755.35626 63.39396Q754.91876 62.33146 754.91876 60.89396Q754.91876 59.48771 755.35626 58.503334Q755.8094 57.51896 756.5594 57.01896Q757.3094 56.51896 758.2469 56.51896Q759.2625 56.51896 759.9969 57.159584Q760.73126 57.784584 761.02814 59.01896L760.10626 59.284584Q759.6375 57.48771 758.23126 57.48771Q757.52814 57.48771 757.0125 57.847084Q756.4969 58.20646 756.1844 58.972084Q755.8875 59.73771 755.8875 60.89396Q755.8875 62.659584 756.4969 63.55021Q757.1219 64.42521 758.15314 64.42521Q758.91876 64.42521 759.46564 63.89396Q760.02814 63.347084 760.21564 62.23771ZM761.7625 62.14396Q761.7625 60.534584 762.4344 59.722084Q763.1219 58.89396 764.15314 58.89396Q765.16876 58.89396 765.85626 59.722084Q766.54376 60.534584 766.54376 62.08146Q766.54376 63.753334 765.8719 64.58146Q765.2 65.39396 764.15314 65.39396Q763.1219 65.39396 762.4344 64.58146Q761.7625 63.753334 761.7625 62.14396ZM762.65314 62.14396Q762.65314 63.347084 763.09064 63.940834Q763.52814 64.51896 764.16876 64.51896Q764.77814 64.51896 765.21564 63.92521Q765.65314 63.33146 765.65314 62.14396Q765.65314 60.940834 765.21564 60.36271Q764.77814 59.76896 764.1219 59.76896Q763.5125 59.76896 763.075 60.36271Q762.65314 60.940834 762.65314 62.14396ZM766.7625 63.39396L767.60626 63.23771Q767.6844 63.89396 768.02814 64.20646Q768.3719 64.51896 768.9344 64.51896Q769.4969 64.51896 769.79376 64.253334Q770.10626 63.972084 770.10626 63.534584Q770.10626 63.17521 769.84064 62.972084Q769.66876 62.83146 768.96564 62.61271Q767.95 62.30021 767.60626 62.097084Q767.27814 61.878334 767.09064 61.51896Q766.90314 61.14396 766.90314 60.67521Q766.90314 59.878334 767.40314 59.39396Q767.91876 58.89396 768.825 58.89396Q769.3875 58.89396 769.8094 59.097084Q770.2469 59.30021 770.48126 59.64396Q770.71564 59.98771 770.79376 60.628334L769.95 60.76896Q769.84064 59.753334 768.84064 59.753334Q768.27814 59.753334 767.9969 59.98771Q767.73126 60.20646 767.73126 60.565834Q767.73126 60.909584 767.9969 61.097084Q768.15314 61.222084 768.9344 61.472084Q770.0125 61.83146 770.325 62.034584Q770.6375 62.222084 770.8094 62.58146Q770.9969 62.92521 770.9969 63.409584Q770.9969 64.30021 770.41876 64.847084Q769.85626 65.39396 768.8875 65.39396Q767.04376 65.39396 766.7625 63.39396ZM772.09064 65.253334L772.09064 59.034584L772.8719 59.034584L772.8719 59.909584Q773.1219 59.409584 773.52814 59.159584Q773.9344 58.89396 774.41876 58.89396Q774.95 58.89396 775.325 59.17521Q775.7 59.440834 775.85626 59.972084Q776.16876 59.440834 776.5594 59.17521Q776.95 58.89396 777.4344 58.89396Q778.16876 58.89396 778.59064 59.39396Q779.0125 59.878334 779.0125 60.98771L779.0125 65.253334L778.15314 65.253334L778.15314 61.33146Q778.15314 60.659584 778.04376 60.39396Q777.95 60.11271 777.73126 59.95646Q777.52814 59.80021 777.2469 59.80021Q776.7 59.80021 776.34064 60.253334Q775.9969 60.690834 775.9969 61.64396L775.9969 65.253334L775.1219 65.253334L775.1219 61.20646Q775.1219 60.440834 774.8875 60.128334Q774.65314 59.80021 774.23126 59.80021Q773.6375 59.80021 773.29376 60.284584Q772.95 60.753334 772.95 62.01896L772.95 65.253334L772.09064 65.253334ZM779.7625 62.14396Q779.7625 60.534584 780.4344 59.722084Q781.1219 58.89396 782.15314 58.89396Q783.16876 58.89396 783.85626 59.722084Q784.54376 60.534584 784.54376 62.08146Q784.54376 63.753334 783.8719 64.58146Q783.2 65.39396 782.15314 65.39396Q781.1219 65.39396 780.4344 64.58146Q779.7625 63.753334 779.7625 62.14396ZM780.65314 62.14396Q780.65314 63.347084 781.09064 63.940834Q781.52814 64.51896 782.16876 64.51896Q782.77814 64.51896 783.21564 63.92521Q783.65314 63.33146 783.65314 62.14396Q783.65314 60.940834 783.21564 60.36271Q782.77814 59.76896 782.1219 59.76896Q781.5125 59.76896 781.075 60.36271Q780.65314 60.940834 780.65314 62.14396ZM784.7625 63.39396L785.60626 63.23771Q785.6844 63.89396 786.02814 64.20646Q786.3719 64.51896 786.9344 64.51896Q787.4969 64.51896 787.79376 64.253334Q788.10626 63.972084 788.10626 63.534584Q788.10626 63.17521 787.84064 62.972084Q787.66876 62.83146 786.96564 62.61271Q785.95 62.30021 785.60626 62.097084Q785.27814 61.878334 785.09064 61.51896Q784.90314 61.14396 784.90314 60.67521Q784.90314 59.878334 785.40314 59.39396Q785.91876 58.89396 786.825 58.89396Q787.3875 58.89396 787.8094 59.097084Q788.2469 59.30021 788.48126 59.64396Q788.71564 59.98771 788.79376 60.628334L787.95 60.76896Q787.84064 59.753334 786.84064 59.753334Q786.27814 59.753334 785.9969 59.98771Q785.73126 60.20646 785.73126 60.565834Q785.73126 60.909584 785.9969 61.097084Q786.15314 61.222084 786.9344 61.472084Q788.0125 61.83146 788.325 62.034584Q788.6375 62.222084 788.8094 62.58146Q788.9969 62.92521 788.9969 63.409584Q788.9969 64.30021 788.41876 64.847084Q787.85626 65.39396 786.8875 65.39396Q785.04376 65.39396 784.7625 63.39396Z" fill-rule="nonzero"/><path fill="#616161" d="M766.10626 83.253334L765.23126 83.253334L765.23126 76.534584Q764.9344 76.878334 764.4344 77.253334Q763.9344 77.61271 763.5125 77.80021L763.5125 76.784584Q764.21564 76.378334 764.7625 75.784584Q765.3094 75.190834 765.54376 74.628334L766.10626 74.628334L766.10626 83.253334ZM772.40314 82.23771L772.40314 83.253334L767.7469 83.253334Q767.73126 82.64396 768.1219 81.878334Q768.5125 81.11271 769.54376 80.08146Q770.7625 78.86271 771.1375 78.20646Q771.5125 77.55021 771.5125 76.98771Q771.5125 76.33146 771.1219 75.92521Q770.73126 75.503334 770.16876 75.503334Q769.575 75.503334 769.1844 75.95646Q768.79376 76.39396 768.79376 77.222084L767.90314 77.11271Q767.9969 75.878334 768.60626 75.253334Q769.21564 74.628334 770.2 74.628334Q771.27814 74.628334 771.825 75.36271Q772.3875 76.08146 772.3875 77.003334Q772.3875 77.83146 771.95 78.58146Q771.52814 79.33146 770.3094 80.58146Q769.54376 81.378334 769.3094 81.67521Q769.09064 81.95646 768.95 82.23771L772.40314 82.23771ZM773.35626 83.253334L773.35626 82.05021L774.34064 82.05021L774.34064 83.253334L773.35626 83.253334ZM775.84064 79.01896Q775.84064 76.847084 776.41876 75.73771Q777.0125 74.628334 778.15314 74.628334Q779.15314 74.628334 779.73126 75.534584Q780.4344 76.61271 780.4344 79.01896Q780.4344 81.159584 779.85626 82.284584Q779.27814 83.39396 778.1375 83.39396Q777.1219 83.39396 776.48126 82.409584Q775.84064 81.42521 775.84064 79.01896ZM776.73126 79.01896Q776.73126 81.11271 777.1219 81.83146Q777.52814 82.534584 778.15314 82.534584Q778.7469 82.534584 779.1375 81.815834Q779.54376 81.097084 779.54376 79.01896Q779.54376 76.92521 779.1375 76.222084Q778.7469 75.503334 778.10626 75.503334Q777.5125 75.503334 777.1219 76.222084Q776.73126 76.940834 776.73126 79.01896ZM780.9969 76.722084Q780.9969 75.659584 781.41876 75.097084Q781.85626 74.51896 782.48126 74.51896Q783.1219 74.51896 783.5594 75.097084Q784.0125 75.659584 784.0125 76.784584Q784.0125 77.89396 783.5594 78.472084Q783.1219 79.05021 782.4969 79.05021Q781.8719 79.05021 781.4344 78.48771Q780.9969 77.909584 780.9969 76.722084ZM782.5125 75.23771Q782.1844 75.23771 781.96564 75.58146Q781.7625 75.92521 781.7625 76.784584Q781.7625 77.64396 781.96564 77.98771Q782.1844 78.33146 782.52814 78.33146Q782.84064 78.33146 783.04376 77.98771Q783.2625 77.64396 783.2625 76.784584Q783.2625 75.940834 783.04376 75.597084Q782.825 75.23771 782.5125 75.23771ZM782.5125 83.565834L786.35626 74.51896L787.0594 74.51896L783.23126 83.565834L782.5125 83.565834ZM785.5594 81.23771Q785.5594 80.159584 785.98126 79.597084Q786.41876 79.034584 787.02814 79.034584Q787.6844 79.034584 788.1219 79.597084Q788.575 80.159584 788.575 81.284584Q788.575 82.409584 788.1219 82.98771Q787.66876 83.565834 787.04376 83.565834Q786.4344 83.565834 785.9969 82.98771Q785.5594 82.409584 785.5594 81.23771ZM787.0594 79.753334Q786.73126 79.753334 786.5125 80.097084Q786.3094 80.440834 786.3094 81.30021Q786.3094 82.159584 786.52814 82.503334Q786.7469 82.847084 787.09064 82.847084Q787.3875 82.847084 787.59064 82.503334Q787.8094 82.14396 787.8094 81.30021Q787.8094 80.440834 787.59064 80.097084Q787.3875 79.753334 787.0594 79.753334Z" fill-rule="nonzero"/><path stroke="#8a8a8a" stroke-width="1.0" stroke-linecap="butt" d="M789.45 69.753334L576.95 69.753334L462.38547 69.753334" fill-rule="nonzero"/><path fill="#616161" d="M464.38547 69.753334C464.38547 68.648766 463.49005 67.753334 462.38547 67.753334C461.2809 67.753334 460.38547 68.648766 460.38547 69.753334C460.38547 70.85791 461.2809 71.753334 462.38547 71.753334C463.49005 71.753334 464.38547 70.85791 464.38547 69.753334" fill-rule="nonzero"/><path fill="#ffffff" d="M731.52814 105.61532L731.52814 104.61532L734.5125 104.59969L734.5125 107.78719Q733.825 108.45907 733.09064 108.80282Q732.35626 109.13094 731.59064 109.13094Q730.5594 109.13094 729.7469 108.61532Q728.9344 108.09969 728.46564 107.11532Q727.9969 106.13094 727.9969 104.74032Q727.9969 103.33407 728.46564 102.28719Q728.95 101.24032 729.71564 100.75594Q730.48126 100.25594 731.52814 100.25594Q732.3094 100.25594 732.8875 100.55282Q733.46564 100.83407 733.84064 101.36532Q734.21564 101.88094 734.40314 102.80282L733.5594 103.08407Q733.3875 102.34969 733.1219 101.99032Q732.8719 101.63094 732.45 101.42782Q732.02814 101.22469 731.5125 101.22469Q730.73126 101.22469 730.1844 101.59969Q729.6375 101.97469 729.29376 102.75594Q728.95 103.53719 728.95 104.67782Q728.95 106.39657 729.66876 107.25594Q730.40314 108.11532 731.5594 108.11532Q732.10626 108.11532 732.6844 107.84969Q733.2625 107.58407 733.59064 107.22469L733.59064 105.61532L731.52814 105.61532ZM739.41876 108.22469Q738.98126 108.67782 738.5125 108.91219Q738.04376 109.13094 737.54376 109.13094Q736.7469 109.13094 736.2625 108.64657Q735.79376 108.16219 735.79376 107.34969Q735.79376 106.81844 736.0125 106.41219Q736.23126 105.99032 736.6219 105.75594Q737.0125 105.52157 737.79376 105.39657Q738.85626 105.25594 739.34064 105.03719L739.34064 104.77157Q739.34064 104.13094 739.1219 103.88094Q738.79376 103.50594 738.1219 103.50594Q737.52814 103.50594 737.23126 103.75594Q736.9344 103.99032 736.79376 104.67782L735.9344 104.53719Q736.1219 103.53719 736.66876 103.08407Q737.23126 102.63094 738.2625 102.63094Q739.0594 102.63094 739.5125 102.92782Q739.98126 103.22469 740.09064 103.67782Q740.21564 104.11532 740.21564 104.97469L740.21564 106.38094Q740.21564 107.86532 740.2625 108.25594Q740.325 108.63094 740.4969 108.99032L739.59064 108.99032Q739.45 108.66219 739.41876 108.22469ZM739.34064 105.86532Q738.8719 106.09969 737.9344 106.27157Q737.3875 106.36532 737.16876 106.49032Q736.95 106.59969 736.825 106.81844Q736.71564 107.03719 736.71564 107.31844Q736.71564 107.77157 736.98126 108.03719Q737.2625 108.30282 737.7469 108.30282Q738.21564 108.30282 738.59064 108.06844Q738.96564 107.81844 739.15314 107.42782Q739.34064 107.02157 739.34064 106.25594L739.34064 105.86532ZM741.09064 108.99032L741.09064 102.77157L741.8719 102.77157L741.8719 103.64657Q742.1219 103.14657 742.52814 102.89657Q742.9344 102.63094 743.41876 102.63094Q743.95 102.63094 744.325 102.91219Q744.7 103.17782 744.85626 103.70907Q745.16876 103.17782 745.5594 102.91219Q745.95 102.63094 746.4344 102.63094Q747.16876 102.63094 747.59064 103.13094Q748.0125 103.61532 748.0125 104.72469L748.0125 108.99032L747.15314 108.99032L747.15314 105.06844Q747.15314 104.39657 747.04376 104.13094Q746.95 103.84969 746.73126 103.69344Q746.52814 103.53719 746.2469 103.53719Q745.7 103.53719 745.34064 103.99032Q744.9969 104.42782 744.9969 105.38094L744.9969 108.99032L744.1219 108.99032L744.1219 104.94344Q744.1219 104.17782 743.8875 103.86532Q743.65314 103.53719 743.23126 103.53719Q742.6375 103.53719 742.29376 104.02157Q741.95 104.49032 741.95 105.75594L741.95 108.99032L741.09064 108.99032ZM752.575 106.99032L753.46564 107.11532Q753.2469 108.11532 752.65314 108.63094Q752.075 109.13094 751.21564 109.13094Q750.1375 109.13094 749.46564 108.31844Q748.79376 107.49032 748.79376 105.92782Q748.79376 104.31844 749.46564 103.47469Q750.1375 102.63094 751.1844 102.63094Q752.16876 102.63094 752.825 103.45907Q753.4969 104.28719 753.4969 105.86532L753.4969 106.14657L749.6844 106.14657Q749.73126 107.19344 750.16876 107.72469Q750.60626 108.25594 751.21564 108.25594Q752.2 108.25594 752.575 106.99032ZM749.73126 105.28719L752.575 105.28719Q752.52814 104.47469 752.23126 104.06844Q751.825 103.49032 751.16876 103.49032Q750.59064 103.49032 750.1844 103.97469Q749.77814 104.45907 749.73126 105.28719ZM756.7625 105.88094Q756.7625 104.27157 757.4344 103.45907Q758.1219 102.63094 759.15314 102.63094Q760.16876 102.63094 760.85626 103.45907Q761.54376 104.27157 761.54376 105.81844Q761.54376 107.49032 760.8719 108.31844Q760.2 109.13094 759.15314 109.13094Q758.1219 109.13094 757.4344 108.31844Q756.7625 107.49032 756.7625 105.88094ZM757.65314 105.88094Q757.65314 107.08407 758.09064 107.67782Q758.52814 108.25594 759.16876 108.25594Q759.77814 108.25594 760.21564 107.66219Q760.65314 107.06844 760.65314 105.88094Q760.65314 104.67782 760.21564 104.09969Q759.77814 103.50594 759.1219 103.50594Q758.5125 103.50594 758.075 104.09969Q757.65314 104.67782 757.65314 105.88094ZM762.325 108.99032L762.325 103.58407L761.5594 103.58407L761.5594 102.77157L762.325 102.77157L762.325 102.09969Q762.325 101.36532 762.48126 101.00594Q762.6375 100.64657 762.95 100.45907Q763.2625 100.25594 763.73126 100.25594Q764.10626 100.25594 764.54376 100.36532L764.41876 101.27157Q764.15314 101.22469 763.90314 101.22469Q763.5125 101.22469 763.34064 101.42782Q763.1844 101.63094 763.1844 102.19344L763.1844 102.77157L764.1844 102.77157L764.1844 103.58407L763.1844 103.58407L763.1844 108.99032L762.325 108.99032ZM768.15314 108.99032L768.15314 100.39657L769.09064 100.39657L769.09064 107.97469L772.5594 107.97469L772.5594 108.99032L768.15314 108.99032ZM773.09064 101.61532L773.09064 100.39657L773.95 100.39657L773.95 101.61532L773.09064 101.61532ZM773.09064 108.99032L773.09064 102.77157L773.95 102.77157L773.95 108.99032L773.09064 108.99032ZM775.09064 108.99032L775.09064 102.77157L775.85626 102.77157L775.85626 103.64657Q776.1375 103.13094 776.54376 102.88094Q776.96564 102.63094 777.48126 102.63094Q777.90314 102.63094 778.2469 102.78719Q778.59064 102.94344 778.8094 103.20907Q779.02814 103.47469 779.1219 103.89657Q779.23126 104.30282 779.23126 105.16219L779.23126 108.99032L778.3719 108.99032L778.3719 105.20907Q778.3719 104.52157 778.2469 104.20907Q778.1375 103.88094 777.8875 103.70907Q777.6375 103.53719 777.3094 103.53719Q776.6844 103.53719 776.3094 104.00594Q775.95 104.45907 775.95 105.58407L775.95 108.99032L775.09064 108.99032ZM780.10626 108.99032L780.10626 100.39657L780.96564 100.39657L780.96564 105.30282L783.0125 102.77157L784.1375 102.77157L782.1844 105.06844L784.325 108.99032L783.27814 108.99032L781.575 105.80282L780.96564 106.52157L780.96564 108.99032L780.10626 108.99032ZM784.7625 107.13094L785.60626 106.97469Q785.6844 107.63094 786.02814 107.94344Q786.3719 108.25594 786.9344 108.25594Q787.4969 108.25594 787.79376 107.99032Q788.10626 107.70907 788.10626 107.27157Q788.10626 106.91219 787.84064 106.70907Q787.66876 106.56844 786.96564 106.34969Q785.95 106.03719 785.60626 105.83407Q785.27814 105.61532 785.09064 105.25594Q784.90314 104.88094 784.90314 104.41219Q784.90314 103.61532 785.40314 103.13094Q785.91876 102.63094 786.825 102.63094Q787.3875 102.63094 787.8094 102.83407Q788.2469 103.03719 788.48126 103.38094Q788.71564 103.72469 788.79376 104.36532L787.95 104.50594Q787.84064 103.49032 786.84064 103.49032Q786.27814 103.49032 785.9969 103.72469Q785.73126 103.94344 785.73126 104.30282Q785.73126 104.64657 785.9969 104.83407Q786.15314 104.95907 786.9344 105.20907Q788.0125 105.56844 788.325 105.77157Q788.6375 105.95907 788.8094 106.31844Q788.9969 106.66219 788.9969 107.14657Q788.9969 108.03719 788.41876 108.58407Q787.85626 109.13094 786.8875 109.13094Q785.04376 109.13094 784.7625 107.13094Z" fill-rule="nonzero"/><path fill="#616161" d="M769.16876 122.33407Q768.65314 122.09969 768.3875 121.66219Q768.1219 121.22469 768.1219 120.56844Q768.1219 119.59969 768.7 118.99032Q769.27814 118.36532 770.15314 118.36532Q771.02814 118.36532 771.60626 118.99032Q772.1844 119.61532 772.1844 120.61532Q772.1844 121.22469 771.91876 121.66219Q771.66876 122.08407 771.15314 122.33407Q771.79376 122.58407 772.1375 123.14657Q772.48126 123.70907 772.48126 124.53719Q772.48126 125.69344 771.8094 126.41219Q771.15314 127.13094 770.16876 127.13094Q769.16876 127.13094 768.4969 126.41219Q767.84064 125.69344 767.84064 124.50594Q767.84064 123.64657 768.1844 123.09969Q768.54376 122.53719 769.16876 122.33407ZM769.0125 120.53719Q769.0125 121.17782 769.34064 121.55282Q769.6844 121.92782 770.16876 121.92782Q770.6375 121.92782 770.96564 121.56844Q771.3094 121.19344 771.3094 120.59969Q771.3094 120.00594 770.96564 119.61532Q770.6219 119.22469 770.15314 119.22469Q769.6844 119.22469 769.34064 119.59969Q769.0125 119.97469 769.0125 120.53719ZM768.71564 124.50594Q768.71564 125.30282 769.1375 125.78719Q769.575 126.27157 770.16876 126.27157Q770.7625 126.27157 771.16876 125.80282Q771.59064 125.33407 771.59064 124.55282Q771.59064 123.75594 771.15314 123.27157Q770.73126 122.78719 770.1375 122.78719Q769.54376 122.78719 769.1219 123.27157Q768.71564 123.75594 768.71564 124.50594ZM773.35626 126.99032L773.35626 125.78719L774.34064 125.78719L774.34064 126.99032L773.35626 126.99032ZM775.84064 122.75594Q775.84064 120.58407 776.41876 119.47469Q777.0125 118.36532 778.15314 118.36532Q779.15314 118.36532 779.73126 119.27157Q780.4344 120.34969 780.4344 122.75594Q780.4344 124.89657 779.85626 126.02157Q779.27814 127.13094 778.1375 127.13094Q777.1219 127.13094 776.48126 126.14657Q775.84064 125.16219 775.84064 122.75594ZM776.73126 122.75594Q776.73126 124.84969 777.1219 125.56844Q777.52814 126.27157 778.15314 126.27157Q778.7469 126.27157 779.1375 125.55282Q779.54376 124.83407 779.54376 122.75594Q779.54376 120.66219 779.1375 119.95907Q778.7469 119.24032 778.10626 119.24032Q777.5125 119.24032 777.1219 119.95907Q776.73126 120.67782 776.73126 122.75594ZM780.9969 120.45907Q780.9969 119.39657 781.41876 118.83407Q781.85626 118.25594 782.48126 118.25594Q783.1219 118.25594 783.5594 118.83407Q784.0125 119.39657 784.0125 120.52157Q784.0125 121.63094 783.5594 122.20907Q783.1219 122.78719 782.4969 122.78719Q781.8719 122.78719 781.4344 122.22469Q780.9969 121.64657 780.9969 120.45907ZM782.5125 118.97469Q782.1844 118.97469 781.96564 119.31844Q781.7625 119.66219 781.7625 120.52157Q781.7625 121.38094 781.96564 121.72469Q782.1844 122.06844 782.52814 122.06844Q782.84064 122.06844 783.04376 121.72469Q783.2625 121.38094 783.2625 120.52157Q783.2625 119.67782 783.04376 119.33407Q782.825 118.97469 782.5125 118.97469ZM782.5125 127.30282L786.35626 118.25594L787.0594 118.25594L783.23126 127.30282L782.5125 127.30282ZM785.5594 124.97469Q785.5594 123.89657 785.98126 123.33407Q786.41876 122.77157 787.02814 122.77157Q787.6844 122.77157 788.1219 123.33407Q788.575 123.89657 788.575 125.02157Q788.575 126.14657 788.1219 126.72469Q787.66876 127.30282 787.04376 127.30282Q786.4344 127.30282 785.9969 126.72469Q785.5594 126.14657 785.5594 124.97469ZM787.0594 123.49032Q786.73126 123.49032 786.5125 123.83407Q786.3094 124.17782 786.3094 125.03719Q786.3094 125.89657 786.52814 126.24032Q786.7469 126.58407 787.09064 126.58407Q787.3875 126.58407 787.59064 126.24032Q787.8094 125.88094 787.8094 125.03719Q787.8094 124.17782 787.59064 123.83407Q787.3875 123.49032 787.0594 123.49032Z" fill-rule="nonzero"/><path stroke="#8a8a8a" stroke-width="1.0" stroke-linecap="butt" d="M789.45 113.49032L576.95 113.49032L537.91254 113.49032" fill-rule="nonzero"/><path fill="#616161" d="M539.91254 113.49032C539.91254 112.38575 539.0171 111.49032 537.91254 111.49032C536.8079 111.49032 535.91254 112.38575 535.91254 113.49032C535.91254 114.594894 536.8079 115.49032 537.91254 115.49032C539.0171 115.49032 539.91254 114.594894 539.91254 113.49032" fill-rule="nonzero"/><path fill="#ffffff" d="M677.52814 165.10374L677.52814 164.10374L680.5125 164.08812L680.5125 167.27562Q679.825 167.9475 679.09064 168.29124Q678.35626 168.61937 677.59064 168.61937Q676.5594 168.61937 675.7469 168.10374Q674.9344 167.58812 674.46564 166.60374Q673.9969 165.61937 673.9969 164.22874Q673.9969 162.8225 674.46564 161.77562Q674.95 160.72874 675.71564 160.24437Q676.48126 159.74437 677.52814 159.74437Q678.3094 159.74437 678.8875 160.04124Q679.46564 160.3225 679.84064 160.85374Q680.21564 161.36937 680.40314 162.29124L679.5594 162.5725Q679.3875 161.83812 679.1219 161.47874Q678.8719 161.11937 678.45 160.91624Q678.02814 160.71312 677.5125 160.71312Q676.73126 160.71312 676.1844 161.08812Q675.6375 161.46312 675.29376 162.24437Q674.95 163.02562 674.95 164.16624Q674.95 165.885 675.66876 166.74437Q676.40314 167.60374 677.5594 167.60374Q678.10626 167.60374 678.6844 167.33812Q679.2625 167.0725 679.59064 166.71312L679.59064 165.10374L677.52814 165.10374ZM685.41876 167.71312Q684.98126 168.16624 684.5125 168.40062Q684.04376 168.61937 683.54376 168.61937Q682.7469 168.61937 682.2625 168.135Q681.79376 167.65062 681.79376 166.83812Q681.79376 166.30687 682.0125 165.90062Q682.23126 165.47874 682.6219 165.24437Q683.0125 165.01 683.79376 164.885Q684.85626 164.74437 685.34064 164.52562L685.34064 164.26Q685.34064 163.61937 685.1219 163.36937Q684.79376 162.99437 684.1219 162.99437Q683.52814 162.99437 683.23126 163.24437Q682.9344 163.47874 682.79376 164.16624L681.9344 164.02562Q682.1219 163.02562 682.66876 162.5725Q683.23126 162.11937 684.2625 162.11937Q685.0594 162.11937 685.5125 162.41624Q685.98126 162.71312 686.09064 163.16624Q686.21564 163.60374 686.21564 164.46312L686.21564 165.86937Q686.21564 167.35374 686.2625 167.74437Q686.325 168.11937 686.4969 168.47874L685.59064 168.47874Q685.45 168.15062 685.41876 167.71312ZM685.34064 165.35374Q684.8719 165.58812 683.9344 165.76Q683.3875 165.85374 683.16876 165.97874Q682.95 166.08812 682.825 166.30687Q682.71564 166.52562 682.71564 166.80687Q682.71564 167.26 682.98126 167.52562Q683.2625 167.79124 683.7469 167.79124Q684.21564 167.79124 684.59064 167.55687Q684.96564 167.30687 685.15314 166.91624Q685.34064 166.51 685.34064 165.74437L685.34064 165.35374ZM687.09064 168.47874L687.09064 162.26L687.8719 162.26L687.8719 163.135Q688.1219 162.635 688.52814 162.385Q688.9344 162.11937 689.41876 162.11937Q689.95 162.11937 690.325 162.40062Q690.7 162.66624 690.85626 163.1975Q691.16876 162.66624 691.5594 162.40062Q691.95 162.11937 692.4344 162.11937Q693.16876 162.11937 693.59064 162.61937Q694.0125 163.10374 694.0125 164.21312L694.0125 168.47874L693.15314 168.47874L693.15314 164.55687Q693.15314 163.885 693.04376 163.61937Q692.95 163.33812 692.73126 163.18187Q692.52814 163.02562 692.2469 163.02562Q691.7 163.02562 691.34064 163.47874Q690.9969 163.91624 690.9969 164.86937L690.9969 168.47874L690.1219 168.47874L690.1219 164.43187Q690.1219 163.66624 689.8875 163.35374Q689.65314 163.02562 689.23126 163.02562Q688.6375 163.02562 688.29376 163.51Q687.95 163.97874 687.95 165.24437L687.95 168.47874L687.09064 168.47874ZM698.575 166.47874L699.46564 166.60374Q699.2469 167.60374 698.65314 168.11937Q698.075 168.61937 697.21564 168.61937Q696.1375 168.61937 695.46564 167.80687Q694.79376 166.97874 694.79376 165.41624Q694.79376 163.80687 695.46564 162.96312Q696.1375 162.11937 697.1844 162.11937Q698.16876 162.11937 698.825 162.9475Q699.4969 163.77562 699.4969 165.35374L699.4969 165.635L695.6844 165.635Q695.73126 166.68187 696.16876 167.21312Q696.60626 167.74437 697.21564 167.74437Q698.2 167.74437 698.575 166.47874ZM695.73126 164.77562L698.575 164.77562Q698.52814 163.96312 698.23126 163.55687Q697.825 162.97874 697.16876 162.97874Q696.59064 162.97874 696.1844 163.46312Q695.77814 163.9475 695.73126 164.77562ZM702.7625 165.36937Q702.7625 163.76 703.4344 162.9475Q704.1219 162.11937 705.15314 162.11937Q706.16876 162.11937 706.85626 162.9475Q707.54376 163.76 707.54376 165.30687Q707.54376 166.97874 706.8719 167.80687Q706.2 168.61937 705.15314 168.61937Q704.1219 168.61937 703.4344 167.80687Q702.7625 166.97874 702.7625 165.36937ZM703.65314 165.36937Q703.65314 166.5725 704.09064 167.16624Q704.52814 167.74437 705.16876 167.74437Q705.77814 167.74437 706.21564 167.15062Q706.65314 166.55687 706.65314 165.36937Q706.65314 164.16624 706.21564 163.58812Q705.77814 162.99437 705.1219 162.99437Q704.5125 162.99437 704.075 163.58812Q703.65314 164.16624 703.65314 165.36937ZM708.325 168.47874L708.325 163.0725L707.5594 163.0725L707.5594 162.26L708.325 162.26L708.325 161.58812Q708.325 160.85374 708.48126 160.49437Q708.6375 160.135 708.95 159.9475Q709.2625 159.74437 709.73126 159.74437Q710.10626 159.74437 710.54376 159.85374L710.41876 160.76Q710.15314 160.71312 709.90314 160.71312Q709.5125 160.71312 709.34064 160.91624Q709.1844 161.11937 709.1844 161.68187L709.1844 162.26L710.1844 162.26L710.1844 163.0725L709.1844 163.0725L709.1844 168.47874L708.325 168.47874ZM716.0125 168.47874L716.0125 160.90062L713.7 160.90062L713.7 159.885L719.27814 159.885L719.27814 160.90062L716.95 160.90062L716.95 168.47874L716.0125 168.47874ZM720.09064 168.47874L720.09064 159.885L720.95 159.885L720.95 162.96312Q721.2469 162.54124 721.6219 162.33812Q722.0125 162.11937 722.48126 162.11937Q723.29376 162.11937 723.7625 162.635Q724.23126 163.15062 724.23126 164.54124L724.23126 168.47874L723.3719 168.47874L723.3719 164.54124Q723.3719 163.72874 723.09064 163.385Q722.8094 163.02562 722.29376 163.02562Q721.73126 163.02562 721.34064 163.47874Q720.95 163.93187 720.95 165.0725L720.95 168.47874L720.09064 168.47874ZM725.09064 168.47874L725.09064 162.26L725.85626 162.26L725.85626 163.1975Q726.16876 162.54124 726.40314 162.33812Q726.65314 162.11937 726.96564 162.11937Q727.40314 162.11937 727.85626 162.4475L727.5594 163.43187Q727.2469 163.1975 726.9344 163.1975Q726.65314 163.1975 726.41876 163.40062Q726.2 163.58812 726.10626 163.93187Q725.95 164.54124 725.95 165.21312L725.95 168.47874L725.09064 168.47874ZM727.7625 165.36937Q727.7625 163.76 728.4344 162.9475Q729.1219 162.11937 730.15314 162.11937Q731.16876 162.11937 731.85626 162.9475Q732.54376 163.76 732.54376 165.30687Q732.54376 166.97874 731.8719 167.80687Q731.2 168.61937 730.15314 168.61937Q729.1219 168.61937 728.4344 167.80687Q727.7625 166.97874 727.7625 165.36937ZM728.65314 165.36937Q728.65314 166.5725 729.09064 167.16624Q729.52814 167.74437 730.16876 167.74437Q730.77814 167.74437 731.21564 167.15062Q731.65314 166.55687 731.65314 165.36937Q731.65314 164.16624 731.21564 163.58812Q730.77814 162.99437 730.1219 162.99437Q729.5125 162.99437 729.075 163.58812Q728.65314 164.16624 728.65314 165.36937ZM733.09064 168.47874L733.09064 162.26L733.85626 162.26L733.85626 163.135Q734.1375 162.61937 734.54376 162.36937Q734.96564 162.11937 735.48126 162.11937Q735.90314 162.11937 736.2469 162.27562Q736.59064 162.43187 736.8094 162.6975Q737.02814 162.96312 737.1219 163.385Q737.23126 163.79124 737.23126 164.65062L737.23126 168.47874L736.3719 168.47874L736.3719 164.6975Q736.3719 164.01 736.2469 163.6975Q736.1375 163.36937 735.8875 163.1975Q735.6375 163.02562 735.3094 163.02562Q734.6844 163.02562 734.3094 163.49437Q733.95 163.9475 733.95 165.0725L733.95 168.47874L733.09064 168.47874ZM741.575 166.47874L742.46564 166.60374Q742.2469 167.60374 741.65314 168.11937Q741.075 168.61937 740.21564 168.61937Q739.1375 168.61937 738.46564 167.80687Q737.79376 166.97874 737.79376 165.41624Q737.79376 163.80687 738.46564 162.96312Q739.1375 162.11937 740.1844 162.11937Q741.16876 162.11937 741.825 162.9475Q742.4969 163.77562 742.4969 165.35374L742.4969 165.635L738.6844 165.635Q738.73126 166.68187 739.16876 167.21312Q739.60626 167.74437 740.21564 167.74437Q741.2 167.74437 741.575 166.47874ZM738.73126 164.77562L741.575 164.77562Q741.52814 163.96312 741.23126 163.55687Q740.825 162.97874 740.16876 162.97874Q739.59064 162.97874 739.1844 163.46312Q738.77814 163.9475 738.73126 164.77562ZM742.7625 166.61937L743.60626 166.46312Q743.6844 167.11937 744.02814 167.43187Q744.3719 167.74437 744.9344 167.74437Q745.4969 167.74437 745.79376 167.47874Q746.10626 167.1975 746.10626 166.76Q746.10626 166.40062 745.84064 166.1975Q745.66876 166.05687 744.96564 165.83812Q743.95 165.52562 743.60626 165.3225Q743.27814 165.10374 743.09064 164.74437Q742.90314 164.36937 742.90314 163.90062Q742.90314 163.10374 743.40314 162.61937Q743.91876 162.11937 744.825 162.11937Q745.3875 162.11937 745.8094 162.3225Q746.2469 162.52562 746.48126 162.86937Q746.71564 163.21312 746.79376 163.85374L745.95 163.99437Q745.84064 162.97874 744.84064 162.97874Q744.27814 162.97874 743.9969 163.21312Q743.73126 163.43187 743.73126 163.79124Q743.73126 164.135 743.9969 164.3225Q744.15314 164.4475 744.9344 164.6975Q746.0125 165.05687 746.325 165.26Q746.6375 165.4475 746.8094 165.80687Q746.9969 166.15062 746.9969 166.635Q746.9969 167.52562 746.41876 168.0725Q745.85626 168.61937 744.8875 168.61937Q743.04376 168.61937 742.7625 166.61937ZM751.09064 161.10374L751.09064 159.885L751.95 159.885L751.95 161.10374L751.09064 161.10374ZM751.09064 168.47874L751.09064 162.26L751.95 162.26L751.95 168.47874L751.09064 168.47874ZM753.09064 168.47874L753.09064 162.26L753.85626 162.26L753.85626 163.135Q754.1375 162.61937 754.54376 162.36937Q754.96564 162.11937 755.48126 162.11937Q755.90314 162.11937 756.2469 162.27562Q756.59064 162.43187 756.8094 162.6975Q757.02814 162.96312 757.1219 163.385Q757.23126 163.79124 757.23126 164.65062L757.23126 168.47874L756.3719 168.47874L756.3719 164.6975Q756.3719 164.01 756.2469 163.6975Q756.1375 163.36937 755.8875 163.1975Q755.6375 163.02562 755.3094 163.02562Q754.6844 163.02562 754.3094 163.49437Q753.95 163.9475 753.95 165.0725L753.95 168.47874L753.09064 168.47874ZM760.4344 168.47874L763.15314 159.885L764.15314 159.885L767.02814 168.47874L765.96564 168.47874L765.1375 165.86937L762.2 165.86937L761.4344 168.47874L760.4344 168.47874ZM762.46564 164.9475L764.85626 164.9475L764.1219 162.5725Q763.77814 161.47874 763.6219 160.79124Q763.4969 161.61937 763.2469 162.43187L762.46564 164.9475ZM770.0125 168.47874L770.0125 160.90062L767.7 160.90062L767.7 159.885L773.27814 159.885L773.27814 160.90062L770.95 160.90062L770.95 168.47874L770.0125 168.47874ZM773.95 164.29124Q773.95 162.10374 774.91876 160.91624Q775.8875 159.72874 777.325 159.72874Q778.2625 159.72874 779.02814 160.26Q779.79376 160.79124 780.23126 161.80687Q780.6844 162.80687 780.6844 164.18187Q780.6844 166.10374 779.825 167.30687Q778.8719 168.61937 777.325 168.61937Q775.7625 168.61937 774.8094 167.26Q773.95 166.04124 773.95 164.29124ZM774.90314 164.30687Q774.90314 165.90062 775.60626 166.77562Q776.3094 167.65062 777.3094 167.65062Q778.34064 167.65062 779.02814 166.77562Q779.73126 165.885 779.73126 164.16624Q779.73126 163.05687 779.3719 162.18187Q779.09064 161.51 778.52814 161.11937Q777.98126 160.71312 777.325 160.71312Q776.27814 160.71312 775.59064 161.60374Q774.90314 162.47874 774.90314 164.30687ZM782.1844 168.47874L782.1844 159.885L783.59064 159.885L785.2469 165.96312L785.59064 167.24437Q785.71564 166.76 785.96564 165.86937L787.65314 159.885L788.90314 159.885L788.90314 168.47874L788.0125 168.47874L788.0125 161.29124L785.95 168.47874L785.1219 168.47874L783.075 161.16624L783.075 168.47874L782.1844 168.47874Z" fill-rule="nonzero"/><path fill="#616161" d="M766.10626 186.47874L765.23126 186.47874L765.23126 179.76Q764.9344 180.10374 764.4344 180.47874Q763.9344 180.83812 763.5125 181.02562L763.5125 180.01Q764.21564 179.60374 764.7625 179.01Q765.3094 178.41624 765.54376 177.85374L766.10626 177.85374L766.10626 186.47874ZM767.84064 182.24437Q767.84064 180.0725 768.41876 178.96312Q769.0125 177.85374 770.15314 177.85374Q771.15314 177.85374 771.73126 178.76Q772.4344 179.83812 772.4344 182.24437Q772.4344 184.385 771.85626 185.51Q771.27814 186.61937 770.1375 186.61937Q769.1219 186.61937 768.48126 185.635Q767.84064 184.65062 767.84064 182.24437ZM768.73126 182.24437Q768.73126 184.33812 769.1219 185.05687Q769.52814 185.76 770.15314 185.76Q770.7469 185.76 771.1375 185.04124Q771.54376 184.3225 771.54376 182.24437Q771.54376 180.15062 771.1375 179.4475Q770.7469 178.72874 770.10626 178.72874Q769.5125 178.72874 769.1219 179.4475Q768.73126 180.16624 768.73126 182.24437ZM773.35626 186.47874L773.35626 185.27562L774.34064 185.27562L774.34064 186.47874L773.35626 186.47874ZM775.84064 182.24437Q775.84064 180.0725 776.41876 178.96312Q777.0125 177.85374 778.15314 177.85374Q779.15314 177.85374 779.73126 178.76Q780.4344 179.83812 780.4344 182.24437Q780.4344 184.385 779.85626 185.51Q779.27814 186.61937 778.1375 186.61937Q777.1219 186.61937 776.48126 185.635Q775.84064 184.65062 775.84064 182.24437ZM776.73126 182.24437Q776.73126 184.33812 777.1219 185.05687Q777.52814 185.76 778.15314 185.76Q778.7469 185.76 779.1375 185.04124Q779.54376 184.3225 779.54376 182.24437Q779.54376 180.15062 779.1375 179.4475Q778.7469 178.72874 778.10626 178.72874Q777.5125 178.72874 777.1219 179.4475Q776.73126 180.16624 776.73126 182.24437ZM780.9969 179.9475Q780.9969 178.885 781.41876 178.3225Q781.85626 177.74437 782.48126 177.74437Q783.1219 177.74437 783.5594 178.3225Q784.0125 178.885 784.0125 180.01Q784.0125 181.11937 783.5594 181.6975Q783.1219 182.27562 782.4969 182.27562Q781.8719 182.27562 781.4344 181.71312Q780.9969 181.135 780.9969 179.9475ZM782.5125 178.46312Q782.1844 178.46312 781.96564 178.80687Q781.7625 179.15062 781.7625 180.01Q781.7625 180.86937 781.96564 181.21312Q782.1844 181.55687 782.52814 181.55687Q782.84064 181.55687 783.04376 181.21312Q783.2625 180.86937 783.2625 180.01Q783.2625 179.16624 783.04376 178.8225Q782.825 178.46312 782.5125 178.46312ZM782.5125 186.79124L786.35626 177.74437L787.0594 177.74437L783.23126 186.79124L782.5125 186.79124ZM785.5594 184.46312Q785.5594 183.385 785.98126 182.8225Q786.41876 182.26 787.02814 182.26Q787.6844 182.26 788.1219 182.8225Q788.575 183.385 788.575 184.51Q788.575 185.635 788.1219 186.21312Q787.66876 186.79124 787.04376 186.79124Q786.4344 186.79124 785.9969 186.21312Q785.5594 185.635 785.5594 184.46312ZM787.0594 182.97874Q786.73126 182.97874 786.5125 183.3225Q786.3094 183.66624 786.3094 184.52562Q786.3094 185.385 786.52814 185.72874Q786.7469 186.0725 787.09064 186.0725Q787.3875 186.0725 787.59064 185.72874Q787.8094 185.36937 787.8094 184.52562Q787.8094 183.66624 787.59064 183.3225Q787.3875 182.97874 787.0594 182.97874Z" fill-rule="nonzero"/><path stroke="#8a8a8a" stroke-width="1.0" stroke-linecap="butt" d="M789.45 172.97874L576.95 172.97874L562.6025 172.97874" fill-rule="nonzero"/><path fill="#616161" d="M564.6025 172.97874C564.6025 171.87418 563.7071 170.97874 562.6025 170.97874C561.4979 170.97874 560.6025 171.87418 560.6025 172.97874C560.6025 174.08331 561.4979 174.97874 562.6025 174.97874C563.7071 174.97874 564.6025 174.08331 564.6025 172.97874" fill-rule="nonzero"/></svg>