<svg version="1.1" viewBox="0.0 0.0 808.0 371.0" fill="none" stroke="none" stroke-linecap="square" stroke-miterlimit="10" width="808" height="371" xmlns:xlink="http://www.w3.org/1999/xlink" xmlns="http://www.w3.org/2000/svg"><path fill="#000000" d="M0 0L808.0 0L808.0 371.0L0 371.0L0 0Z" fill-rule="nonzero"/><path fill="#9500ae" d="M404.0 114.54625C421.62817 114.54625 438.80386 118.45275 453.06537 125.705864L453.06537 150.74837C438.80386 143.49525 421.62817 139.58875 404.0 139.58875Z" fill-rule="nonzero"/><path fill="#d500f9" d="M404.0 56.11375C439.25638 56.11375 473.60773 63.926754 502.13074 78.432976L453.06537 125.705864C438.80386 118.45275 421.62817 114.54625 404.0 114.54625Z" fill-rule="nonzero"/><path fill="#b32b00" d="M453.06537 125.705864C467.32687 132.95898 477.94205 143.18633 483.38943 154.92212L483.38943 179.96461C477.94205 168.22884 467.32687 158.00148 453.06537 150.74837Z" fill-rule="nonzero"/><path fill="#ff3d00" d="M502.13074 78.432976C530.65375 92.9392 551.8841 113.39391 562.7789 136.86548L483.38943 154.92212C477.94205 143.18633 467.32687 132.95898 453.06537 125.705864Z" fill-rule="nonzero"/><path fill="#b3a400" d="M570.95 198.02126C570.95 210.28455 568.19257 222.47144 562.7789 234.13452L562.7789 209.09203C568.19257 197.42892 570.95 185.24205 570.95 172.97874Z" fill-rule="nonzero"/><path fill="#b3a400" d="M483.38943 154.92212C486.09628 160.75366 487.475 166.8471 487.475 172.97874L487.475 198.02126C487.475 191.8896 486.09628 185.79616 483.38943 179.96461Z" fill-rule="nonzero"/><path fill="#ffea00" d="M562.7789 136.86548C573.6737 160.33704 573.6737 185.62045 562.7789 209.09203L483.38943 191.03539C488.83685 179.2996 488.83685 166.6579 483.38943 154.92212Z" fill-rule="nonzero"/><path fill="#b3b3b3" d="M562.7789 234.13452C537.402 288.80603 458.99368 322.4401 377.88327 313.44745C296.77283 304.4548 237.05 255.50629 237.05 198.02126L237.05 172.97874C237.05 230.46378 296.77283 279.4123 377.88327 288.40494C458.99368 297.39758 537.402 263.76355 562.7789 209.09203Z" fill-rule="nonzero"/><path fill="#b3b3b3" d="M320.525 172.97874C320.525 140.70737 357.89804 114.54625 404.0 114.54625L404.0 139.58875C357.89804 139.58875 320.525 165.74988 320.525 198.02126Z" fill-rule="nonzero"/><path fill="#ffffff" d="M562.7789 209.09203C536.37396 265.9782 452.87003 299.72592 369.28915 287.28998C285.70825 274.854 229.0328 220.24905 237.96457 160.76303C246.89633 101.277 318.55188 56.11375 404.0 56.11375L404.0 114.54625C361.27594 114.54625 325.44815 137.12788 320.9823 166.8709C316.51642 196.6139 344.85413 223.91638 386.64456 230.13435C428.43503 236.35234 470.18698 219.47849 483.38943 191.03539Z" fill-rule="nonzero"/><path fill="#ffffff" d="M21.55 233.7357L21.55 224.89195L18.83125 224.89195L18.83125 223.72008L25.346874 223.72008L25.346874 224.89195L22.628124 224.89195L22.628124 233.7357L21.55 233.7357ZM26.425 233.7357L26.425 223.72008L27.51875 223.72008L27.51875 227.82945L31.784374 227.82945L31.784374 223.72008L32.878124 223.72008L32.878124 233.7357L31.784374 233.7357L31.784374 229.01695L27.51875 229.01695L27.51875 233.7357L26.425 233.7357ZM40.26875 230.22008L41.3625 230.56383Q41.003124 232.25133 40.096874 233.07945Q39.190624 233.90758 37.89375 233.90758Q36.753124 233.90758 35.940624 233.3607Q35.128124 232.7982 34.6125 231.56383Q34.096874 230.32945 34.096874 228.65758Q34.096874 227.00133 34.6125 225.8607Q35.128124 224.70445 36.003124 224.12633Q36.89375 223.5482 37.9875 223.5482Q39.175 223.5482 40.01875 224.2982Q40.878124 225.03258 41.221874 226.45445L40.159374 226.76695Q39.6125 224.6732 37.95625 224.6732Q37.14375 224.6732 36.534374 225.09508Q35.940624 225.51695 35.58125 226.40758Q35.221874 227.2982 35.221874 228.65758Q35.221874 230.72008 35.940624 231.75133Q36.675 232.76695 37.878124 232.76695Q38.753124 232.76695 39.39375 232.14195Q40.05 231.50133 40.26875 230.22008ZM44.909374 231.56383L45.909374 231.37633Q45.9875 232.14195 46.378124 232.51695Q46.784374 232.89195 47.440624 232.89195Q48.096874 232.89195 48.45625 232.56383Q48.815624 232.2357 48.815624 231.7357Q48.815624 231.31383 48.503124 231.06383Q48.3 230.90758 47.4875 230.65758Q46.3 230.2982 45.909374 230.0482Q45.51875 229.7982 45.3 229.37633Q45.08125 228.93883 45.08125 228.40758Q45.08125 227.47008 45.675 226.89195Q46.26875 226.31383 47.315624 226.31383Q47.9875 226.31383 48.4875 226.5482Q48.9875 226.78258 49.253124 227.18883Q49.51875 227.59508 49.628124 228.34508L48.64375 228.51695Q48.503124 227.32945 47.346874 227.32945Q46.690624 227.32945 46.3625 227.59508Q46.05 227.84508 46.05 228.26695Q46.05 228.65758 46.3625 228.89195Q46.534374 229.03258 47.45625 229.32945Q48.70625 229.7357 49.065624 229.97008Q49.440624 230.20445 49.64375 230.6107Q49.846874 231.01695 49.846874 231.57945Q49.846874 232.62633 49.190624 233.26695Q48.534374 233.90758 47.39375 233.90758Q45.253124 233.90758 44.909374 231.56383ZM53.534374 232.64195L53.675 233.72008Q53.253124 233.82945 52.925 233.82945Q52.39375 233.82945 52.065624 233.62633Q51.753124 233.40758 51.628124 233.0482Q51.51875 232.68883 51.51875 231.6107L51.51875 227.43883L50.76875 227.43883L50.76875 226.47008L51.51875 226.47008L51.51875 224.6732L52.51875 223.93883L52.51875 226.47008L53.534374 226.47008L53.534374 227.43883L52.51875 227.43883L52.51875 231.6732Q52.51875 232.26695 52.6125 232.43883Q52.7375 232.68883 53.096874 232.68883Q53.26875 232.68883 53.534374 232.64195ZM58.175 232.84508Q57.659374 233.3607 57.1125 233.64195Q56.565624 233.90758 55.9875 233.90758Q55.05 233.90758 54.4875 233.34508Q53.940624 232.78258 53.940624 231.82945Q53.940624 231.20445 54.20625 230.72008Q54.471874 230.2357 54.909374 229.97008Q55.3625 229.68883 56.284374 229.5482Q57.51875 229.37633 58.096874 229.12633L58.096874 228.81383Q58.096874 228.06383 57.83125 227.76695Q57.45625 227.32945 56.675 227.32945Q55.971874 227.32945 55.6125 227.62633Q55.26875 227.90758 55.1125 228.70445L54.1125 228.5482Q54.33125 227.37633 54.971874 226.84508Q55.628124 226.31383 56.83125 226.31383Q57.76875 226.31383 58.3 226.6732Q58.83125 227.01695 58.971874 227.53258Q59.1125 228.0482 59.1125 229.0482L59.1125 230.68883Q59.1125 232.4232 59.175 232.87633Q59.2375 233.31383 59.425 233.7357L58.378124 233.7357Q58.221874 233.3607 58.175 232.84508ZM58.096874 230.09508Q57.534374 230.3607 56.440624 230.56383Q55.8 230.6732 55.55 230.81383Q55.3 230.93883 55.159374 231.20445Q55.01875 231.45445 55.01875 231.7982Q55.01875 232.31383 55.33125 232.62633Q55.659374 232.93883 56.2375 232.93883Q56.76875 232.93883 57.20625 232.65758Q57.659374 232.37633 57.878124 231.90758Q58.096874 231.43883 58.096874 230.5482L58.096874 230.09508ZM60.315624 233.7357L60.315624 223.72008L61.315624 223.72008L61.315624 229.4232L63.70625 226.47008L65.01875 226.47008L62.7375 229.1732L65.2375 233.7357L64.00313 233.7357L62.034374 230.01695L61.315624 230.8607L61.315624 233.7357L60.315624 233.7357ZM70.3625 231.39195L71.40938 231.5482Q71.14375 232.72008 70.45625 233.31383Q69.78438 233.90758 68.78438 233.90758Q67.51875 233.90758 66.72188 232.95445Q65.94063 231.9857 65.94063 230.1732Q65.94063 228.28258 66.72188 227.2982Q67.51875 226.31383 68.7375 226.31383Q69.89375 226.31383 70.65938 227.28258Q71.44063 228.25133 71.44063 230.09508L71.425 230.4232L66.9875 230.4232Q67.05 231.64195 67.55 232.26695Q68.06563 232.89195 68.78438 232.89195Q69.925 232.89195 70.3625 231.39195ZM67.05 229.40758L70.3625 229.40758Q70.3 228.47008 69.97188 228.00133Q69.4875 227.32945 68.72188 227.32945Q68.05 227.32945 67.56563 227.89195Q67.09688 228.45445 67.05 229.40758ZM72.28438 233.7357L72.28438 226.47008L73.19063 226.47008L73.19063 227.57945Q73.55 226.81383 73.83125 226.56383Q74.12813 226.31383 74.4875 226.31383Q75.00313 226.31383 75.51875 226.70445L75.175 227.84508Q74.8 227.57945 74.45625 227.57945Q74.12813 227.57945 73.8625 227.81383Q73.59688 228.03258 73.4875 228.43883Q73.3 229.14195 73.3 229.93883L73.3 233.7357L72.28438 233.7357ZM75.90938 231.56383L76.90938 231.37633Q76.9875 232.14195 77.37813 232.51695Q77.78438 232.89195 78.44063 232.89195Q79.09688 232.89195 79.45625 232.56383Q79.81563 232.2357 79.81563 231.7357Q79.81563 231.31383 79.50313 231.06383Q79.3 230.90758 78.4875 230.65758Q77.3 230.2982 76.90938 230.0482Q76.51875 229.7982 76.3 229.37633Q76.08125 228.93883 76.08125 228.40758Q76.08125 227.47008 76.675 226.89195Q77.26875 226.31383 78.31563 226.31383Q78.9875 226.31383 79.4875 226.5482Q79.9875 226.78258 80.25313 227.18883Q80.51875 227.59508 80.62813 228.34508L79.64375 228.51695Q79.50313 227.32945 78.34688 227.32945Q77.69063 227.32945 77.3625 227.59508Q77.05 227.84508 77.05 228.26695Q77.05 228.65758 77.3625 228.89195Q77.53438 229.03258 78.45625 229.32945Q79.70625 229.7357 80.06563 229.97008Q80.44063 230.20445 80.64375 230.6107Q80.84688 231.01695 80.84688 231.57945Q80.84688 232.62633 80.19063 233.26695Q79.53438 233.90758 78.39375 233.90758Q76.25313 233.90758 75.90938 231.56383Z" fill-rule="nonzero"/><path fill="#616161" d="M19.08125 245.03258L19.08125 243.84508L24.39375 243.84508L24.39375 244.7982Q23.20625 246.34508 22.3 248.82945Q21.39375 251.2982 21.26875 253.7357L20.221874 253.7357Q20.253124 252.47008 20.628124 250.7982Q21.003124 249.12633 21.659374 247.6107Q22.33125 246.09508 23.096874 245.03258L19.08125 245.03258ZM25.003124 248.7982Q25.003124 246.26695 25.675 244.97008Q26.3625 243.6732 27.690624 243.6732Q28.878124 243.6732 29.55 244.72008Q30.3625 246.00133 30.3625 248.7982Q30.3625 251.2982 29.690624 252.6107Q29.01875 253.90758 27.675 253.90758Q26.503124 253.90758 25.753124 252.76695Q25.003124 251.6107 25.003124 248.7982ZM26.034374 248.7982Q26.034374 251.2357 26.503124 252.06383Q26.971874 252.89195 27.70625 252.89195Q28.39375 252.89195 28.8625 252.06383Q29.33125 251.22008 29.33125 248.7982Q29.33125 246.34508 28.8625 245.51695Q28.39375 244.68883 27.64375 244.68883Q26.95625 244.68883 26.4875 245.53258Q26.034374 246.37633 26.034374 248.7982ZM31.6125 253.7357L31.6125 252.32945L32.753124 252.32945L32.753124 253.7357L31.6125 253.7357ZM34.003124 248.7982Q34.003124 246.26695 34.675 244.97008Q35.3625 243.6732 36.690624 243.6732Q37.878124 243.6732 38.55 244.72008Q39.3625 246.00133 39.3625 248.7982Q39.3625 251.2982 38.690624 252.6107Q38.01875 253.90758 36.675 253.90758Q35.503124 253.90758 34.753124 252.76695Q34.003124 251.6107 34.003124 248.7982ZM35.034374 248.7982Q35.034374 251.2357 35.503124 252.06383Q35.971874 252.89195 36.70625 252.89195Q37.39375 252.89195 37.8625 252.06383Q38.33125 251.22008 38.33125 248.7982Q38.33125 246.34508 37.8625 245.51695Q37.39375 244.68883 36.64375 244.68883Q35.95625 244.68883 35.4875 245.53258Q35.034374 246.37633 35.034374 248.7982ZM40.190624 246.12633Q40.190624 244.87633 40.690624 244.22008Q41.190624 243.5482 41.909374 243.5482Q42.675 243.5482 43.190624 244.22008Q43.70625 244.87633 43.70625 246.18883Q43.70625 247.4857 43.190624 248.1732Q42.675 248.84508 41.925 248.84508Q41.20625 248.84508 40.690624 248.1732Q40.190624 247.50133 40.190624 246.12633ZM41.95625 244.39195Q41.58125 244.39195 41.33125 244.7982Q41.08125 245.18883 41.08125 246.18883Q41.08125 247.20445 41.33125 247.59508Q41.58125 247.9857 41.971874 247.9857Q42.33125 247.9857 42.58125 247.59508Q42.83125 247.18883 42.83125 246.18883Q42.83125 245.20445 42.58125 244.7982Q42.33125 244.39195 41.95625 244.39195ZM41.95625 254.1107L46.440624 243.5482L47.26875 243.5482L42.784374 254.1107L41.95625 254.1107ZM45.51875 251.37633Q45.51875 250.12633 46.003124 249.47008Q46.503124 248.81383 47.221874 248.81383Q47.9875 248.81383 48.503124 249.47008Q49.01875 250.12633 49.01875 251.43883Q49.01875 252.75133 48.4875 253.43883Q47.971874 254.1107 47.253124 254.1107Q46.51875 254.1107 46.01875 253.43883Q45.51875 252.75133 45.51875 251.37633ZM47.26875 249.65758Q46.878124 249.65758 46.628124 250.06383Q46.39375 250.45445 46.39375 251.45445Q46.39375 252.47008 46.64375 252.8607Q46.89375 253.25133 47.284374 253.25133Q47.64375 253.25133 47.89375 252.8607Q48.14375 252.45445 48.14375 251.45445Q48.14375 250.45445 47.89375 250.06383Q47.64375 249.65758 47.26875 249.65758Z" fill-rule="nonzero"/><path stroke="#8a8a8a" stroke-width="1.0" stroke-linecap="butt" d="M18.55 238.2357L231.05 238.2357L275.6879 238.2357" fill-rule="nonzero"/><path fill="#616161" d="M277.6879 238.2357C277.6879 237.13113 276.79245 236.2357 275.6879 236.2357C274.5833 236.2357 273.6879 237.13113 273.6879 238.2357C273.6879 239.34027 274.5833 240.2357 275.6879 240.2357C276.79245 240.2357 277.6879 239.34027 277.6879 238.2357" fill-rule="nonzero"/><path fill="#ffffff" d="M644.9969 63.500168L645.98126 63.672043Q646.04376 64.25017 646.3875 64.53142Q646.73126 64.81267 647.34064 64.81267Q648.0125 64.81267 648.40314 64.50017Q648.79376 64.18767 648.9344 63.547043Q649.02814 63.172043 649.02814 61.937668Q648.7 62.406418 648.27814 62.656418Q647.8719 62.890793 647.3719 62.890793Q646.3094 62.890793 645.60626 61.984543Q644.79376 60.953293 644.79376 59.203293Q644.79376 58.031418 645.15314 57.156418Q645.5125 56.281418 646.09064 55.875168Q646.66876 55.468918 647.3875 55.468918Q647.90314 55.468918 648.34064 55.734543Q648.77814 55.984543 649.10626 56.500168L649.10626 55.625168L650.04376 55.625168L650.04376 61.906418Q650.04376 63.578293 649.7625 64.29704Q649.4969 65.01579 648.8719 65.42204Q648.2469 65.84392 647.3719 65.84392Q646.21564 65.84392 645.59064 65.21892Q644.98126 64.59392 644.9969 63.500168ZM645.84064 59.125168Q645.84064 60.562668 646.3094 61.218918Q646.77814 61.875168 647.46564 61.875168Q648.15314 61.875168 648.6219 61.234543Q649.10626 60.593918 649.10626 59.187668Q649.10626 57.812668 648.60626 57.156418Q648.1219 56.484543 647.41876 56.484543Q646.79376 56.484543 646.3094 57.156418Q645.84064 57.812668 645.84064 59.125168ZM651.1844 54.281418L651.1844 52.875168L652.2 52.875168L652.2 54.281418L651.1844 54.281418ZM651.1844 62.890793L651.1844 55.625168L652.2 55.625168L652.2 62.890793L651.1844 62.890793ZM654.48126 62.890793L654.48126 56.593918L653.575 56.593918L653.575 55.625168L654.48126 55.625168L654.48126 54.859543Q654.48126 54.000168 654.65314 53.578293Q654.825 53.156418 655.1844 52.937668Q655.5594 52.703293 656.1219 52.703293Q656.54376 52.703293 657.0594 52.828293L656.90314 53.890793Q656.59064 53.828293 656.3094 53.828293Q655.85626 53.828293 655.66876 54.062668Q655.48126 54.297043 655.48126 54.953293L655.48126 55.625168L656.6375 55.625168L656.6375 56.593918L655.48126 56.593918L655.48126 62.890793L654.48126 62.890793ZM659.4344 61.797043L659.575 62.875168Q659.15314 62.984543 658.825 62.984543Q658.29376 62.984543 657.96564 62.781418Q657.65314 62.562668 657.52814 62.203293Q657.41876 61.843918 657.41876 60.765793L657.41876 56.593918L656.66876 56.593918L656.66876 55.625168L657.41876 55.625168L657.41876 53.828293L658.41876 53.093918L658.41876 55.625168L659.4344 55.625168L659.4344 56.593918L658.41876 56.593918L658.41876 60.828293Q658.41876 61.422043 658.5125 61.593918Q658.6375 61.843918 658.9969 61.843918Q659.16876 61.843918 659.4344 61.797043ZM665.4344 61.797043L665.575 62.875168Q665.15314 62.984543 664.825 62.984543Q664.29376 62.984543 663.96564 62.781418Q663.65314 62.562668 663.52814 62.203293Q663.41876 61.843918 663.41876 60.765793L663.41876 56.593918L662.66876 56.593918L662.66876 55.625168L663.41876 55.625168L663.41876 53.828293L664.41876 53.093918L664.41876 55.625168L665.4344 55.625168L665.4344 56.593918L664.41876 56.593918L664.41876 60.828293Q664.41876 61.422043 664.5125 61.593918Q664.6375 61.843918 664.9969 61.843918Q665.16876 61.843918 665.4344 61.797043ZM665.8094 59.265793Q665.8094 57.375168 666.59064 56.422043Q667.3875 55.468918 668.60626 55.468918Q669.79376 55.468918 670.59064 56.422043Q671.3875 57.375168 671.3875 59.187668Q671.3875 61.140793 670.60626 62.109543Q669.825 63.062668 668.60626 63.062668Q667.40314 63.062668 666.60626 62.109543Q665.8094 61.140793 665.8094 59.265793ZM666.84064 59.265793Q666.84064 60.672043 667.35626 61.359543Q667.8719 62.047043 668.6219 62.047043Q669.34064 62.047043 669.84064 61.359543Q670.35626 60.656418 670.35626 59.265793Q670.35626 57.859543 669.84064 57.172043Q669.34064 56.484543 668.575 56.484543Q667.85626 56.484543 667.34064 57.172043Q666.84064 57.859543 666.84064 59.265793ZM675.35626 62.890793L675.35626 52.875168L681.29376 52.875168L681.29376 54.047043L676.45 54.047043L676.45 57.125168L680.9969 57.125168L680.9969 58.297043L676.45 58.297043L676.45 61.703293L681.4969 61.703293L681.4969 62.890793L675.35626 62.890793ZM685.4344 61.797043L685.575 62.875168Q685.15314 62.984543 684.825 62.984543Q684.29376 62.984543 683.96564 62.781418Q683.65314 62.562668 683.52814 62.203293Q683.41876 61.843918 683.41876 60.765793L683.41876 56.593918L682.66876 56.593918L682.66876 55.625168L683.41876 55.625168L683.41876 53.828293L684.41876 53.093918L684.41876 55.625168L685.4344 55.625168L685.4344 56.593918L684.41876 56.593918L684.41876 60.828293Q684.41876 61.422043 684.5125 61.593918Q684.6375 61.843918 684.9969 61.843918Q685.16876 61.843918 685.4344 61.797043ZM686.1844 62.890793L686.1844 52.875168L687.2 52.875168L687.2 56.468918Q687.54376 55.968918 687.9969 55.718918Q688.45 55.468918 688.98126 55.468918Q689.9344 55.468918 690.48126 56.078293Q691.02814 56.672043 691.02814 58.297043L691.02814 62.890793L690.02814 62.890793L690.02814 58.297043Q690.02814 57.343918 689.6844 56.937668Q689.35626 56.531418 688.77814 56.531418Q688.1219 56.531418 687.65314 57.062668Q687.2 57.578293 687.2 58.922043L687.2 62.890793L686.1844 62.890793ZM696.2625 60.547043L697.3094 60.703293Q697.04376 61.875168 696.35626 62.468918Q695.6844 63.062668 694.6844 63.062668Q693.41876 63.062668 692.6219 62.109543Q691.84064 61.140793 691.84064 59.328293Q691.84064 57.437668 692.6219 56.453293Q693.41876 55.468918 694.6375 55.468918Q695.79376 55.468918 696.5594 56.437668Q697.34064 57.406418 697.34064 59.250168L697.325 59.578293L692.8875 59.578293Q692.95 60.797043 693.45 61.422043Q693.96564 62.047043 694.6844 62.047043Q695.825 62.047043 696.2625 60.547043ZM692.95 58.562668L696.2625 58.562668Q696.2 57.625168 695.8719 57.156418Q695.3875 56.484543 694.6219 56.484543Q693.95 56.484543 693.46564 57.047043Q692.9969 57.609543 692.95 58.562668ZM698.1844 62.890793L698.1844 55.625168L699.09064 55.625168L699.09064 56.734543Q699.45 55.968918 699.73126 55.718918Q700.02814 55.468918 700.3875 55.468918Q700.90314 55.468918 701.41876 55.859543L701.075 57.000168Q700.7 56.734543 700.35626 56.734543Q700.02814 56.734543 699.7625 56.968918Q699.4969 57.187668 699.3875 57.593918Q699.2 58.297043 699.2 59.093918L699.2 62.890793L698.1844 62.890793ZM706.2625 60.547043L707.3094 60.703293Q707.04376 61.875168 706.35626 62.468918Q705.6844 63.062668 704.6844 63.062668Q703.41876 63.062668 702.6219 62.109543Q701.84064 61.140793 701.84064 59.328293Q701.84064 57.437668 702.6219 56.453293Q703.41876 55.468918 704.6375 55.468918Q705.79376 55.468918 706.5594 56.437668Q707.34064 57.406418 707.34064 59.250168L707.325 59.578293L702.8875 59.578293Q702.95 60.797043 703.45 61.422043Q703.96564 62.047043 704.6844 62.047043Q705.825 62.047043 706.2625 60.547043ZM702.95 58.562668L706.2625 58.562668Q706.2 57.625168 705.8719 57.156418Q705.3875 56.484543 704.6219 56.484543Q703.95 56.484543 703.46564 57.047043Q702.9969 57.609543 702.95 58.562668ZM712.09064 62.890793L712.09064 61.828293Q711.7469 62.437668 711.2625 62.750168Q710.79376 63.062668 710.2 63.062668Q709.4969 63.062668 708.9969 62.687668Q708.4969 62.297043 708.325 61.718918Q708.16876 61.140793 708.16876 60.125168L708.16876 55.625168L709.16876 55.625168L709.16876 59.656418Q709.16876 60.781418 709.27814 61.156418Q709.40314 61.531418 709.7 61.765793Q710.0125 62.000168 710.40314 62.000168Q711.1219 62.000168 711.59064 61.406418Q711.98126 60.890793 711.98126 59.515793L711.98126 55.625168L712.9969 55.625168L712.9969 62.890793L712.09064 62.890793ZM714.2 62.890793L714.2 55.625168L715.10626 55.625168L715.10626 56.656418Q715.40314 56.078293 715.8719 55.781418Q716.35626 55.468918 716.90314 55.468918Q717.54376 55.468918 717.96564 55.797043Q718.40314 56.109543 718.59064 56.734543Q718.95 56.109543 719.40314 55.797043Q719.8719 55.468918 720.4344 55.468918Q721.27814 55.468918 721.7625 56.047043Q722.2625 56.625168 722.2625 57.906418L722.2625 62.890793L721.2625 62.890793L721.2625 58.312668Q721.2625 57.531418 721.15314 57.218918Q721.04376 56.890793 720.77814 56.718918Q720.52814 56.531418 720.21564 56.531418Q719.575 56.531418 719.15314 57.047043Q718.7469 57.562668 718.7469 58.672043L718.7469 62.890793L717.73126 62.890793L717.73126 58.172043Q717.73126 57.265793 717.45 56.906418Q717.1844 56.531418 716.7 56.531418Q716.0125 56.531418 715.60626 57.093918Q715.2 57.640793 715.2 59.125168L715.2 62.890793L714.2 62.890793ZM731.075 62.000168Q730.5594 62.515793 730.0125 62.797043Q729.46564 63.062668 728.8875 63.062668Q727.95 63.062668 727.3875 62.500168Q726.84064 61.937668 726.84064 60.984543Q726.84064 60.359543 727.10626 59.875168Q727.3719 59.390793 727.8094 59.125168Q728.2625 58.843918 729.1844 58.703293Q730.41876 58.531418 730.9969 58.281418L730.9969 57.968918Q730.9969 57.218918 730.73126 56.922043Q730.35626 56.484543 729.575 56.484543Q728.8719 56.484543 728.5125 56.781418Q728.16876 57.062668 728.0125 57.859543L727.0125 57.703293Q727.23126 56.531418 727.8719 56.000168Q728.52814 55.468918 729.73126 55.468918Q730.66876 55.468918 731.2 55.828293Q731.73126 56.172043 731.8719 56.687668Q732.0125 57.203293 732.0125 58.203293L732.0125 59.843918Q732.0125 61.578293 732.075 62.031418Q732.1375 62.468918 732.325 62.890793L731.27814 62.890793Q731.1219 62.515793 731.075 62.000168ZM730.9969 59.250168Q730.4344 59.515793 729.34064 59.718918Q728.7 59.828293 728.45 59.968918Q728.2 60.093918 728.0594 60.359543Q727.91876 60.609543 727.91876 60.953293Q727.91876 61.468918 728.23126 61.781418Q728.5594 62.093918 729.1375 62.093918Q729.66876 62.093918 730.10626 61.812668Q730.5594 61.531418 730.77814 61.062668Q730.9969 60.593918 730.9969 59.703293L730.9969 59.250168ZM733.1844 62.890793L733.1844 55.625168L734.09064 55.625168L734.09064 56.656418Q734.41876 56.062668 734.8875 55.765793Q735.3719 55.468918 735.9969 55.468918Q736.46564 55.468918 736.8719 55.656418Q737.27814 55.843918 737.52814 56.156418Q737.77814 56.453293 737.90314 56.937668Q738.02814 57.422043 738.02814 58.422043L738.02814 62.890793L737.0125 62.890793L737.0125 58.468918Q737.0125 57.672043 736.8719 57.312668Q736.7469 56.937668 736.45 56.734543Q736.16876 56.531418 735.77814 56.531418Q735.0594 56.531418 734.6219 57.078293Q734.2 57.609543 734.2 58.922043L734.2 62.890793L733.1844 62.890793ZM743.04376 62.890793L743.04376 61.968918Q742.77814 62.500168 742.34064 62.781418Q741.91876 63.062668 741.41876 63.062668Q740.3719 63.062668 739.59064 62.062668Q738.825 61.062668 738.825 59.265793Q738.825 58.015793 739.16876 57.156418Q739.5125 56.297043 740.075 55.890793Q740.65314 55.468918 741.35626 55.468918Q741.84064 55.468918 742.2625 55.734543Q742.7 56.000168 742.98126 56.468918L742.98126 52.875168L743.9969 52.875168L743.9969 62.890793L743.04376 62.890793ZM739.85626 59.265793Q739.85626 60.672043 740.34064 61.359543Q740.84064 62.047043 741.48126 62.047043Q742.1219 62.047043 742.59064 61.390793Q743.075 60.734543 743.075 59.406418Q743.075 57.875168 742.59064 57.187668Q742.1219 56.484543 741.40314 56.484543Q740.77814 56.484543 740.3094 57.156418Q739.85626 57.828293 739.85626 59.265793ZM754.16876 59.375168L755.2625 59.718918Q754.90314 61.406418 753.9969 62.234543Q753.09064 63.062668 751.79376 63.062668Q750.65314 63.062668 749.84064 62.515793Q749.02814 61.953293 748.5125 60.718918Q747.9969 59.484543 747.9969 57.812668Q747.9969 56.156418 748.5125 55.015793Q749.02814 53.859543 749.90314 53.281418Q750.79376 52.703293 751.8875 52.703293Q753.075 52.703293 753.91876 53.453293Q754.77814 54.187668 755.1219 55.609543L754.0594 55.922043Q753.5125 53.828293 751.85626 53.828293Q751.04376 53.828293 750.4344 54.250168Q749.84064 54.672043 749.48126 55.562668Q749.1219 56.453293 749.1219 57.812668Q749.1219 59.875168 749.84064 60.906418Q750.575 61.922043 751.77814 61.922043Q752.65314 61.922043 753.29376 61.297043Q753.95 60.656418 754.16876 59.375168ZM755.8094 59.265793Q755.8094 57.375168 756.59064 56.422043Q757.3875 55.468918 758.60626 55.468918Q759.79376 55.468918 760.59064 56.422043Q761.3875 57.375168 761.3875 59.187668Q761.3875 61.140793 760.60626 62.109543Q759.825 63.062668 758.60626 63.062668Q757.40314 63.062668 756.60626 62.109543Q755.8094 61.140793 755.8094 59.265793ZM756.84064 59.265793Q756.84064 60.672043 757.35626 61.359543Q757.8719 62.047043 758.6219 62.047043Q759.34064 62.047043 759.84064 61.359543Q760.35626 60.656418 760.35626 59.265793Q760.35626 57.859543 759.84064 57.172043Q759.34064 56.484543 758.575 56.484543Q757.85626 56.484543 757.34064 57.172043Q756.84064 57.859543 756.84064 59.265793ZM761.8094 60.718918L762.8094 60.531418Q762.8875 61.297043 763.27814 61.672043Q763.6844 62.047043 764.34064 62.047043Q764.9969 62.047043 765.35626 61.718918Q765.71564 61.390793 765.71564 60.890793Q765.71564 60.468918 765.40314 60.218918Q765.2 60.062668 764.3875 59.812668Q763.2 59.453293 762.8094 59.203293Q762.41876 58.953293 762.2 58.531418Q761.98126 58.093918 761.98126 57.562668Q761.98126 56.625168 762.575 56.047043Q763.16876 55.468918 764.21564 55.468918Q764.8875 55.468918 765.3875 55.703293Q765.8875 55.937668 766.15314 56.343918Q766.41876 56.750168 766.52814 57.500168L765.54376 57.672043Q765.40314 56.484543 764.2469 56.484543Q763.59064 56.484543 763.2625 56.750168Q762.95 57.000168 762.95 57.422043Q762.95 57.812668 763.2625 58.047043Q763.4344 58.187668 764.35626 58.484543Q765.60626 58.890793 765.96564 59.125168Q766.34064 59.359543 766.54376 59.765793Q766.7469 60.172043 766.7469 60.734543Q766.7469 61.781418 766.09064 62.422043Q765.4344 63.062668 764.29376 63.062668Q762.15314 63.062668 761.8094 60.718918ZM768.2 62.890793L768.2 55.625168L769.10626 55.625168L769.10626 56.656418Q769.40314 56.078293 769.8719 55.781418Q770.35626 55.468918 770.90314 55.468918Q771.54376 55.468918 771.96564 55.797043Q772.40314 56.109543 772.59064 56.734543Q772.95 56.109543 773.40314 55.797043Q773.8719 55.468918 774.4344 55.468918Q775.27814 55.468918 775.7625 56.047043Q776.2625 56.625168 776.2625 57.906418L776.2625 62.890793L775.2625 62.890793L775.2625 58.312668Q775.2625 57.531418 775.15314 57.218918Q775.04376 56.890793 774.77814 56.718918Q774.52814 56.531418 774.21564 56.531418Q773.575 56.531418 773.15314 57.047043Q772.7469 57.562668 772.7469 58.672043L772.7469 62.890793L771.73126 62.890793L771.73126 58.172043Q771.73126 57.265793 771.45 56.906418Q771.1844 56.531418 770.7 56.531418Q770.0125 56.531418 769.60626 57.093918Q769.2 57.640793 769.2 59.125168L769.2 62.890793L768.2 62.890793ZM777.8094 59.265793Q777.8094 57.375168 778.59064 56.422043Q779.3875 55.468918 780.60626 55.468918Q781.79376 55.468918 782.59064 56.422043Q783.3875 57.375168 783.3875 59.187668Q783.3875 61.140793 782.60626 62.109543Q781.825 63.062668 780.60626 63.062668Q779.40314 63.062668 778.60626 62.109543Q777.8094 61.140793 777.8094 59.265793ZM778.84064 59.265793Q778.84064 60.672043 779.35626 61.359543Q779.8719 62.047043 780.6219 62.047043Q781.34064 62.047043 781.84064 61.359543Q782.35626 60.656418 782.35626 59.265793Q782.35626 57.859543 781.84064 57.172043Q781.34064 56.484543 780.575 56.484543Q779.85626 56.484543 779.34064 57.172043Q778.84064 57.859543 778.84064 59.265793ZM783.8094 60.718918L784.8094 60.531418Q784.8875 61.297043 785.27814 61.672043Q785.6844 62.047043 786.34064 62.047043Q786.9969 62.047043 787.35626 61.718918Q787.71564 61.390793 787.71564 60.890793Q787.71564 60.468918 787.40314 60.218918Q787.2 60.062668 786.3875 59.812668Q785.2 59.453293 784.8094 59.203293Q784.41876 58.953293 784.2 58.531418Q783.98126 58.093918 783.98126 57.562668Q783.98126 56.625168 784.575 56.047043Q785.16876 55.468918 786.21564 55.468918Q786.8875 55.468918 787.3875 55.703293Q787.8875 55.937668 788.15314 56.343918Q788.41876 56.750168 788.52814 57.500168L787.54376 57.672043Q787.40314 56.484543 786.2469 56.484543Q785.59064 56.484543 785.2625 56.750168Q784.95 57.000168 784.95 57.422043Q784.95 57.812668 785.2625 58.047043Q785.4344 58.187668 786.35626 58.484543Q787.60626 58.890793 787.96564 59.125168Q788.34064 59.359543 788.54376 59.765793Q788.7469 60.172043 788.7469 60.734543Q788.7469 61.781418 788.09064 62.422043Q787.4344 63.062668 786.29376 63.062668Q784.15314 63.062668 783.8094 60.718918Z" fill-rule="nonzero"/><path fill="#616161" d="M762.71564 82.89079L761.7 82.89079L761.7 75.04704Q761.35626 75.45329 760.7625 75.89079Q760.16876 76.31267 759.6844 76.53142L759.6844 75.34392Q760.5125 74.85954 761.15314 74.17204Q761.79376 73.48454 762.0594 72.82829L762.71564 72.82829L762.71564 82.89079ZM764.90314 77.95329Q764.90314 75.42204 765.575 74.12517Q766.2625 72.82829 767.59064 72.82829Q768.77814 72.82829 769.45 73.87517Q770.2625 75.15642 770.2625 77.95329Q770.2625 80.45329 769.59064 81.76579Q768.91876 83.06267 767.575 83.06267Q766.40314 83.06267 765.65314 81.92204Q764.90314 80.76579 764.90314 77.95329ZM765.9344 77.95329Q765.9344 80.39079 766.40314 81.21892Q766.8719 82.04704 767.60626 82.04704Q768.29376 82.04704 768.7625 81.21892Q769.23126 80.37517 769.23126 77.95329Q769.23126 75.50017 768.7625 74.67204Q768.29376 73.84392 767.54376 73.84392Q766.85626 73.84392 766.3875 74.68767Q765.9344 75.53142 765.9344 77.95329ZM771.5125 82.89079L771.5125 81.48454L772.65314 81.48454L772.65314 82.89079L771.5125 82.89079ZM773.90314 77.95329Q773.90314 75.42204 774.575 74.12517Q775.2625 72.82829 776.59064 72.82829Q777.77814 72.82829 778.45 73.87517Q779.2625 75.15642 779.2625 77.95329Q779.2625 80.45329 778.59064 81.76579Q777.91876 83.06267 776.575 83.06267Q775.40314 83.06267 774.65314 81.92204Q773.90314 80.76579 773.90314 77.95329ZM774.9344 77.95329Q774.9344 80.39079 775.40314 81.21892Q775.8719 82.04704 776.60626 82.04704Q777.29376 82.04704 777.7625 81.21892Q778.23126 80.37517 778.23126 77.95329Q778.23126 75.50017 777.7625 74.67204Q777.29376 73.84392 776.54376 73.84392Q775.85626 73.84392 775.3875 74.68767Q774.9344 75.53142 774.9344 77.95329ZM780.09064 75.28142Q780.09064 74.03142 780.59064 73.37517Q781.09064 72.70329 781.8094 72.70329Q782.575 72.70329 783.09064 73.37517Q783.60626 74.03142 783.60626 75.34392Q783.60626 76.64079 783.09064 77.32829Q782.575 78.00017 781.825 78.00017Q781.10626 78.00017 780.59064 77.32829Q780.09064 76.65642 780.09064 75.28142ZM781.85626 73.54704Q781.48126 73.54704 781.23126 73.95329Q780.98126 74.34392 780.98126 75.34392Q780.98126 76.35954 781.23126 76.75017Q781.48126 77.14079 781.8719 77.14079Q782.23126 77.14079 782.48126 76.75017Q782.73126 76.34392 782.73126 75.34392Q782.73126 74.35954 782.48126 73.95329Q782.23126 73.54704 781.85626 73.54704ZM781.85626 83.26579L786.34064 72.70329L787.16876 72.70329L782.6844 83.26579L781.85626 83.26579ZM785.41876 80.53142Q785.41876 79.28142 785.90314 78.62517Q786.40314 77.96892 787.1219 77.96892Q787.8875 77.96892 788.40314 78.62517Q788.91876 79.28142 788.91876 80.59392Q788.91876 81.90642 788.3875 82.59392Q787.8719 83.26579 787.15314 83.26579Q786.41876 83.26579 785.91876 82.59392Q785.41876 81.90642 785.41876 80.53142ZM787.16876 78.81267Q786.77814 78.81267 786.52814 79.21892Q786.29376 79.60954 786.29376 80.60954Q786.29376 81.62517 786.54376 82.01579Q786.79376 82.40642 787.1844 82.40642Q787.54376 82.40642 787.79376 82.01579Q788.04376 81.60954 788.04376 80.60954Q788.04376 79.60954 787.79376 79.21892Q787.54376 78.81267 787.16876 78.81267Z" fill-rule="nonzero"/><path stroke="#8a8a8a" stroke-width="1.0" stroke-linecap="butt" d="M789.45 67.39079L576.95 67.39079L453.01086 67.39079" fill-rule="nonzero"/><path fill="#616161" d="M455.01086 67.39079C455.01086 66.286224 454.11545 65.39079 453.01086 65.39079C451.9063 65.39079 451.01086 66.286224 451.01086 67.39079C451.01086 68.49536 451.9063 69.39079 453.01086 69.39079C454.11545 69.39079 455.01086 68.49536 455.01086 67.39079" fill-rule="nonzero"/><path fill="#ffffff" d="M721.21564 99.2843L721.21564 98.11243L724.6844 98.11243L724.6844 101.83118Q723.8875 102.61243 723.02814 103.00305Q722.1844 103.39368 721.27814 103.39368Q720.075 103.39368 719.1219 102.79993Q718.1844 102.19055 717.6375 101.0343Q717.09064 99.87805 717.09064 98.25305Q717.09064 96.61243 717.6375 95.4093Q718.2 94.19055 719.09064 93.61243Q719.98126 93.0343 721.21564 93.0343Q722.10626 93.0343 722.77814 93.37805Q723.46564 93.70618 723.90314 94.31555Q724.34064 94.92493 724.5594 96.00305L723.575 96.33118Q723.3875 95.48743 723.075 95.06555Q722.77814 94.64368 722.27814 94.4093Q721.79376 94.1593 721.1844 94.1593Q720.27814 94.1593 719.6375 94.5968Q718.9969 95.0343 718.59064 95.95618Q718.2 96.86243 718.2 98.19055Q718.2 100.19055 719.04376 101.19055Q719.8875 102.19055 721.23126 102.19055Q721.8719 102.19055 722.54376 101.89368Q723.23126 101.58118 723.6219 101.1593L723.6219 99.2843L721.21564 99.2843ZM730.075 102.33118Q729.5594 102.8468 729.0125 103.12805Q728.46564 103.39368 727.8875 103.39368Q726.95 103.39368 726.3875 102.83118Q725.84064 102.26868 725.84064 101.31555Q725.84064 100.69055 726.10626 100.20618Q726.3719 99.7218 726.8094 99.45618Q727.2625 99.17493 728.1844 99.0343Q729.41876 98.86243 729.9969 98.61243L729.9969 98.29993Q729.9969 97.54993 729.73126 97.25305Q729.35626 96.81555 728.575 96.81555Q727.8719 96.81555 727.5125 97.11243Q727.16876 97.39368 727.0125 98.19055L726.0125 98.0343Q726.23126 96.86243 726.8719 96.33118Q727.52814 95.79993 728.73126 95.79993Q729.66876 95.79993 730.2 96.1593Q730.73126 96.50305 730.8719 97.01868Q731.0125 97.5343 731.0125 98.5343L731.0125 100.17493Q731.0125 101.9093 731.075 102.36243Q731.1375 102.79993 731.325 103.2218L730.27814 103.2218Q730.1219 102.8468 730.075 102.33118ZM729.9969 99.58118Q729.4344 99.8468 728.34064 100.04993Q727.7 100.1593 727.45 100.29993Q727.2 100.42493 727.0594 100.69055Q726.91876 100.94055 726.91876 101.2843Q726.91876 101.79993 727.23126 102.11243Q727.5594 102.42493 728.1375 102.42493Q728.66876 102.42493 729.10626 102.14368Q729.5594 101.86243 729.77814 101.39368Q729.9969 100.92493 729.9969 100.0343L729.9969 99.58118ZM732.2 103.2218L732.2 95.95618L733.10626 95.95618L733.10626 96.98743Q733.40314 96.4093 733.8719 96.11243Q734.35626 95.79993 734.90314 95.79993Q735.54376 95.79993 735.96564 96.12805Q736.40314 96.44055 736.59064 97.06555Q736.95 96.44055 737.40314 96.12805Q737.8719 95.79993 738.4344 95.79993Q739.27814 95.79993 739.7625 96.37805Q740.2625 96.95618 740.2625 98.23743L740.2625 103.2218L739.2625 103.2218L739.2625 98.64368Q739.2625 97.86243 739.15314 97.54993Q739.04376 97.2218 738.77814 97.04993Q738.52814 96.86243 738.21564 96.86243Q737.575 96.86243 737.15314 97.37805Q736.7469 97.89368 736.7469 99.00305L736.7469 103.2218L735.73126 103.2218L735.73126 98.50305Q735.73126 97.5968 735.45 97.23743Q735.1844 96.86243 734.7 96.86243Q734.0125 96.86243 733.60626 97.42493Q733.2 97.9718 733.2 99.45618L733.2 103.2218L732.2 103.2218ZM746.2625 100.87805L747.3094 101.0343Q747.04376 102.20618 746.35626 102.79993Q745.6844 103.39368 744.6844 103.39368Q743.41876 103.39368 742.6219 102.44055Q741.84064 101.4718 741.84064 99.6593Q741.84064 97.76868 742.6219 96.7843Q743.41876 95.79993 744.6375 95.79993Q745.79376 95.79993 746.5594 96.76868Q747.34064 97.73743 747.34064 99.58118L747.325 99.9093L742.8875 99.9093Q742.95 101.12805 743.45 101.75305Q743.96564 102.37805 744.6844 102.37805Q745.825 102.37805 746.2625 100.87805ZM742.95 98.89368L746.2625 98.89368Q746.2 97.95618 745.8719 97.48743Q745.3875 96.81555 744.6219 96.81555Q743.95 96.81555 743.46564 97.37805Q742.9969 97.94055 742.95 98.89368ZM750.8094 99.5968Q750.8094 97.70618 751.59064 96.75305Q752.3875 95.79993 753.60626 95.79993Q754.79376 95.79993 755.59064 96.75305Q756.3875 97.70618 756.3875 99.51868Q756.3875 101.4718 755.60626 102.44055Q754.825 103.39368 753.60626 103.39368Q752.40314 103.39368 751.60626 102.44055Q750.8094 101.4718 750.8094 99.5968ZM751.84064 99.5968Q751.84064 101.00305 752.35626 101.69055Q752.8719 102.37805 753.6219 102.37805Q754.34064 102.37805 754.84064 101.69055Q755.35626 100.98743 755.35626 99.5968Q755.35626 98.19055 754.84064 97.50305Q754.34064 96.81555 753.575 96.81555Q752.85626 96.81555 752.34064 97.50305Q751.84064 98.19055 751.84064 99.5968ZM757.48126 103.2218L757.48126 96.92493L756.575 96.92493L756.575 95.95618L757.48126 95.95618L757.48126 95.19055Q757.48126 94.33118 757.65314 93.9093Q757.825 93.48743 758.1844 93.26868Q758.5594 93.0343 759.1219 93.0343Q759.54376 93.0343 760.0594 93.1593L759.90314 94.2218Q759.59064 94.1593 759.3094 94.1593Q758.85626 94.1593 758.66876 94.39368Q758.48126 94.62805 758.48126 95.2843L758.48126 95.95618L759.6375 95.95618L759.6375 96.92493L758.48126 96.92493L758.48126 103.2218L757.48126 103.2218ZM763.27814 103.2218L763.27814 93.20618L764.35626 93.20618L764.35626 102.0343L768.40314 102.0343L768.40314 103.2218L763.27814 103.2218ZM769.1844 94.61243L769.1844 93.20618L770.2 93.20618L770.2 94.61243L769.1844 94.61243ZM769.1844 103.2218L769.1844 95.95618L770.2 95.95618L770.2 103.2218L769.1844 103.2218ZM772.1844 103.2218L772.1844 95.95618L773.09064 95.95618L773.09064 96.98743Q773.41876 96.39368 773.8875 96.0968Q774.3719 95.79993 774.9969 95.79993Q775.46564 95.79993 775.8719 95.98743Q776.27814 96.17493 776.52814 96.48743Q776.77814 96.7843 776.90314 97.26868Q777.02814 97.75305 777.02814 98.75305L777.02814 103.2218L776.0125 103.2218L776.0125 98.79993Q776.0125 98.00305 775.8719 97.64368Q775.7469 97.26868 775.45 97.06555Q775.16876 96.86243 774.77814 96.86243Q774.0594 96.86243 773.6219 97.4093Q773.2 97.94055 773.2 99.25305L773.2 103.2218L772.1844 103.2218ZM778.21564 103.2218L778.21564 93.20618L779.21564 93.20618L779.21564 98.9093L781.60626 95.95618L782.91876 95.95618L780.6375 98.6593L783.1375 103.2218L781.90314 103.2218L779.9344 99.50305L779.21564 100.3468L779.21564 103.2218L778.21564 103.2218ZM783.8094 101.04993L784.8094 100.86243Q784.8875 101.62805 785.27814 102.00305Q785.6844 102.37805 786.34064 102.37805Q786.9969 102.37805 787.35626 102.04993Q787.71564 101.7218 787.71564 101.2218Q787.71564 100.79993 787.40314 100.54993Q787.2 100.39368 786.3875 100.14368Q785.2 99.7843 784.8094 99.5343Q784.41876 99.2843 784.2 98.86243Q783.98126 98.42493 783.98126 97.89368Q783.98126 96.95618 784.575 96.37805Q785.16876 95.79993 786.21564 95.79993Q786.8875 95.79993 787.3875 96.0343Q787.8875 96.26868 788.15314 96.67493Q788.41876 97.08118 788.52814 97.83118L787.54376 98.00305Q787.40314 96.81555 786.2469 96.81555Q785.59064 96.81555 785.2625 97.08118Q784.95 97.33118 784.95 97.75305Q784.95 98.14368 785.2625 98.37805Q785.4344 98.51868 786.35626 98.81555Q787.60626 99.2218 787.96564 99.45618Q788.34064 99.69055 788.54376 100.0968Q788.7469 100.50305 788.7469 101.06555Q788.7469 102.11243 788.09064 102.75305Q787.4344 103.39368 786.29376 103.39368Q784.15314 103.39368 783.8094 101.04993Z" fill-rule="nonzero"/><path fill="#616161" d="M762.71564 123.2218L761.7 123.2218L761.7 115.37805Q761.35626 115.7843 760.7625 116.2218Q760.16876 116.64368 759.6844 116.86243L759.6844 115.67493Q760.5125 115.19055 761.15314 114.50305Q761.79376 113.81555 762.0594 113.1593L762.71564 113.1593L762.71564 123.2218ZM764.90314 118.2843Q764.90314 115.75305 765.575 114.45618Q766.2625 113.1593 767.59064 113.1593Q768.77814 113.1593 769.45 114.20618Q770.2625 115.48743 770.2625 118.2843Q770.2625 120.7843 769.59064 122.0968Q768.91876 123.39368 767.575 123.39368Q766.40314 123.39368 765.65314 122.25305Q764.90314 121.0968 764.90314 118.2843ZM765.9344 118.2843Q765.9344 120.7218 766.40314 121.54993Q766.8719 122.37805 767.60626 122.37805Q768.29376 122.37805 768.7625 121.54993Q769.23126 120.70618 769.23126 118.2843Q769.23126 115.83118 768.7625 115.00305Q768.29376 114.17493 767.54376 114.17493Q766.85626 114.17493 766.3875 115.01868Q765.9344 115.86243 765.9344 118.2843ZM771.5125 123.2218L771.5125 121.81555L772.65314 121.81555L772.65314 123.2218L771.5125 123.2218ZM773.90314 118.2843Q773.90314 115.75305 774.575 114.45618Q775.2625 113.1593 776.59064 113.1593Q777.77814 113.1593 778.45 114.20618Q779.2625 115.48743 779.2625 118.2843Q779.2625 120.7843 778.59064 122.0968Q777.91876 123.39368 776.575 123.39368Q775.40314 123.39368 774.65314 122.25305Q773.90314 121.0968 773.90314 118.2843ZM774.9344 118.2843Q774.9344 120.7218 775.40314 121.54993Q775.8719 122.37805 776.60626 122.37805Q777.29376 122.37805 777.7625 121.54993Q778.23126 120.70618 778.23126 118.2843Q778.23126 115.83118 777.7625 115.00305Q777.29376 114.17493 776.54376 114.17493Q775.85626 114.17493 775.3875 115.01868Q774.9344 115.86243 774.9344 118.2843ZM780.09064 115.61243Q780.09064 114.36243 780.59064 113.70618Q781.09064 113.0343 781.8094 113.0343Q782.575 113.0343 783.09064 113.70618Q783.60626 114.36243 783.60626 115.67493Q783.60626 116.9718 783.09064 117.6593Q782.575 118.33118 781.825 118.33118Q781.10626 118.33118 780.59064 117.6593Q780.09064 116.98743 780.09064 115.61243ZM781.85626 113.87805Q781.48126 113.87805 781.23126 114.2843Q780.98126 114.67493 780.98126 115.67493Q780.98126 116.69055 781.23126 117.08118Q781.48126 117.4718 781.8719 117.4718Q782.23126 117.4718 782.48126 117.08118Q782.73126 116.67493 782.73126 115.67493Q782.73126 114.69055 782.48126 114.2843Q782.23126 113.87805 781.85626 113.87805ZM781.85626 123.5968L786.34064 113.0343L787.16876 113.0343L782.6844 123.5968L781.85626 123.5968ZM785.41876 120.86243Q785.41876 119.61243 785.90314 118.95618Q786.40314 118.29993 787.1219 118.29993Q787.8875 118.29993 788.40314 118.95618Q788.91876 119.61243 788.91876 120.92493Q788.91876 122.23743 788.3875 122.92493Q787.8719 123.5968 787.15314 123.5968Q786.41876 123.5968 785.91876 122.92493Q785.41876 122.23743 785.41876 120.86243ZM787.16876 119.14368Q786.77814 119.14368 786.52814 119.54993Q786.29376 119.94055 786.29376 120.94055Q786.29376 121.95618 786.54376 122.3468Q786.79376 122.73743 787.1844 122.73743Q787.54376 122.73743 787.79376 122.3468Q788.04376 121.94055 788.04376 120.94055Q788.04376 119.94055 787.79376 119.54993Q787.54376 119.14368 787.16876 119.14368Z" fill-rule="nonzero"/><path stroke="#8a8a8a" stroke-width="1.0" stroke-linecap="butt" d="M789.45 107.7218L576.95 107.7218L532.31213 107.7218" fill-rule="nonzero"/><path fill="#616161" d="M534.31213 107.7218C534.31213 106.61723 533.4167 105.7218 532.31213 105.7218C531.2075 105.7218 530.31213 106.61723 530.31213 107.7218C530.31213 108.82637 531.2075 109.7218 532.31213 109.7218C533.4167 109.7218 534.31213 108.82637 534.31213 107.7218" fill-rule="nonzero"/><path fill="#ffffff" d="M658.21564 164.54124L658.21564 163.36937L661.6844 163.36937L661.6844 167.08812Q660.8875 167.86937 660.02814 168.26Q659.1844 168.65062 658.27814 168.65062Q657.075 168.65062 656.1219 168.05687Q655.1844 167.4475 654.6375 166.29124Q654.09064 165.135 654.09064 163.51Q654.09064 161.86937 654.6375 160.66624Q655.2 159.4475 656.09064 158.86937Q656.98126 158.29124 658.21564 158.29124Q659.10626 158.29124 659.77814 158.635Q660.46564 158.96312 660.90314 159.5725Q661.34064 160.18187 661.5594 161.26L660.575 161.58812Q660.3875 160.74437 660.075 160.3225Q659.77814 159.90062 659.27814 159.66624Q658.79376 159.41624 658.1844 159.41624Q657.27814 159.41624 656.6375 159.85374Q655.9969 160.29124 655.59064 161.21312Q655.2 162.11937 655.2 163.4475Q655.2 165.4475 656.04376 166.4475Q656.8875 167.4475 658.23126 167.4475Q658.8719 167.4475 659.54376 167.15062Q660.23126 166.83812 660.6219 166.41624L660.6219 164.54124L658.21564 164.54124ZM667.075 167.58812Q666.5594 168.10374 666.0125 168.385Q665.46564 168.65062 664.8875 168.65062Q663.95 168.65062 663.3875 168.08812Q662.84064 167.52562 662.84064 166.5725Q662.84064 165.9475 663.10626 165.46312Q663.3719 164.97874 663.8094 164.71312Q664.2625 164.43187 665.1844 164.29124Q666.41876 164.11937 666.9969 163.86937L666.9969 163.55687Q666.9969 162.80687 666.73126 162.51Q666.35626 162.0725 665.575 162.0725Q664.8719 162.0725 664.5125 162.36937Q664.16876 162.65062 664.0125 163.4475L663.0125 163.29124Q663.23126 162.11937 663.8719 161.58812Q664.52814 161.05687 665.73126 161.05687Q666.66876 161.05687 667.2 161.41624Q667.73126 161.76 667.8719 162.27562Q668.0125 162.79124 668.0125 163.79124L668.0125 165.43187Q668.0125 167.16624 668.075 167.61937Q668.1375 168.05687 668.325 168.47874L667.27814 168.47874Q667.1219 168.10374 667.075 167.58812ZM666.9969 164.83812Q666.4344 165.10374 665.34064 165.30687Q664.7 165.41624 664.45 165.55687Q664.2 165.68187 664.0594 165.9475Q663.91876 166.1975 663.91876 166.54124Q663.91876 167.05687 664.23126 167.36937Q664.5594 167.68187 665.1375 167.68187Q665.66876 167.68187 666.10626 167.40062Q666.5594 167.11937 666.77814 166.65062Q666.9969 166.18187 666.9969 165.29124L666.9969 164.83812ZM669.2 168.47874L669.2 161.21312L670.10626 161.21312L670.10626 162.24437Q670.40314 161.66624 670.8719 161.36937Q671.35626 161.05687 671.90314 161.05687Q672.54376 161.05687 672.96564 161.385Q673.40314 161.6975 673.59064 162.3225Q673.95 161.6975 674.40314 161.385Q674.8719 161.05687 675.4344 161.05687Q676.27814 161.05687 676.7625 161.635Q677.2625 162.21312 677.2625 163.49437L677.2625 168.47874L676.2625 168.47874L676.2625 163.90062Q676.2625 163.11937 676.15314 162.80687Q676.04376 162.47874 675.77814 162.30687Q675.52814 162.11937 675.21564 162.11937Q674.575 162.11937 674.15314 162.635Q673.7469 163.15062 673.7469 164.26L673.7469 168.47874L672.73126 168.47874L672.73126 163.76Q672.73126 162.85374 672.45 162.49437Q672.1844 162.11937 671.7 162.11937Q671.0125 162.11937 670.60626 162.68187Q670.2 163.22874 670.2 164.71312L670.2 168.47874L669.2 168.47874ZM683.2625 166.135L684.3094 166.29124Q684.04376 167.46312 683.35626 168.05687Q682.6844 168.65062 681.6844 168.65062Q680.41876 168.65062 679.6219 167.6975Q678.84064 166.72874 678.84064 164.91624Q678.84064 163.02562 679.6219 162.04124Q680.41876 161.05687 681.6375 161.05687Q682.79376 161.05687 683.5594 162.02562Q684.34064 162.99437 684.34064 164.83812L684.325 165.16624L679.8875 165.16624Q679.95 166.385 680.45 167.01Q680.96564 167.635 681.6844 167.635Q682.825 167.635 683.2625 166.135ZM679.95 164.15062L683.2625 164.15062Q683.2 163.21312 682.8719 162.74437Q682.3875 162.0725 681.6219 162.0725Q680.95 162.0725 680.46564 162.635Q679.9969 163.1975 679.95 164.15062ZM687.8094 164.85374Q687.8094 162.96312 688.59064 162.01Q689.3875 161.05687 690.60626 161.05687Q691.79376 161.05687 692.59064 162.01Q693.3875 162.96312 693.3875 164.77562Q693.3875 166.72874 692.60626 167.6975Q691.825 168.65062 690.60626 168.65062Q689.40314 168.65062 688.60626 167.6975Q687.8094 166.72874 687.8094 164.85374ZM688.84064 164.85374Q688.84064 166.26 689.35626 166.9475Q689.8719 167.635 690.6219 167.635Q691.34064 167.635 691.84064 166.9475Q692.35626 166.24437 692.35626 164.85374Q692.35626 163.4475 691.84064 162.76Q691.34064 162.0725 690.575 162.0725Q689.85626 162.0725 689.34064 162.76Q688.84064 163.4475 688.84064 164.85374ZM694.48126 168.47874L694.48126 162.18187L693.575 162.18187L693.575 161.21312L694.48126 161.21312L694.48126 160.4475Q694.48126 159.58812 694.65314 159.16624Q694.825 158.74437 695.1844 158.52562Q695.5594 158.29124 696.1219 158.29124Q696.54376 158.29124 697.0594 158.41624L696.90314 159.47874Q696.59064 159.41624 696.3094 159.41624Q695.85626 159.41624 695.66876 159.65062Q695.48126 159.885 695.48126 160.54124L695.48126 161.21312L696.6375 161.21312L696.6375 162.18187L695.48126 162.18187L695.48126 168.47874L694.48126 168.47874ZM702.45 168.47874L702.45 159.635L699.73126 159.635L699.73126 158.46312L706.2469 158.46312L706.2469 159.635L703.52814 159.635L703.52814 168.47874L702.45 168.47874ZM707.1844 168.47874L707.1844 158.46312L708.2 158.46312L708.2 162.05687Q708.54376 161.55687 708.9969 161.30687Q709.45 161.05687 709.98126 161.05687Q710.9344 161.05687 711.48126 161.66624Q712.02814 162.26 712.02814 163.885L712.02814 168.47874L711.02814 168.47874L711.02814 163.885Q711.02814 162.93187 710.6844 162.52562Q710.35626 162.11937 709.77814 162.11937Q709.1219 162.11937 708.65314 162.65062Q708.2 163.16624 708.2 164.51L708.2 168.47874L707.1844 168.47874ZM713.1844 168.47874L713.1844 161.21312L714.09064 161.21312L714.09064 162.3225Q714.45 161.55687 714.73126 161.30687Q715.02814 161.05687 715.3875 161.05687Q715.90314 161.05687 716.41876 161.4475L716.075 162.58812Q715.7 162.3225 715.35626 162.3225Q715.02814 162.3225 714.7625 162.55687Q714.4969 162.77562 714.3875 163.18187Q714.2 163.885 714.2 164.68187L714.2 168.47874L713.1844 168.47874ZM716.8094 164.85374Q716.8094 162.96312 717.59064 162.01Q718.3875 161.05687 719.60626 161.05687Q720.79376 161.05687 721.59064 162.01Q722.3875 162.96312 722.3875 164.77562Q722.3875 166.72874 721.60626 167.6975Q720.825 168.65062 719.60626 168.65062Q718.40314 168.65062 717.60626 167.6975Q716.8094 166.72874 716.8094 164.85374ZM717.84064 164.85374Q717.84064 166.26 718.35626 166.9475Q718.8719 167.635 719.6219 167.635Q720.34064 167.635 720.84064 166.9475Q721.35626 166.24437 721.35626 164.85374Q721.35626 163.4475 720.84064 162.76Q720.34064 162.0725 719.575 162.0725Q718.85626 162.0725 718.34064 162.76Q717.84064 163.4475 717.84064 164.85374ZM723.1844 168.47874L723.1844 161.21312L724.09064 161.21312L724.09064 162.24437Q724.41876 161.65062 724.8875 161.35374Q725.3719 161.05687 725.9969 161.05687Q726.46564 161.05687 726.8719 161.24437Q727.27814 161.43187 727.52814 161.74437Q727.77814 162.04124 727.90314 162.52562Q728.02814 163.01 728.02814 164.01L728.02814 168.47874L727.0125 168.47874L727.0125 164.05687Q727.0125 163.26 726.8719 162.90062Q726.7469 162.52562 726.45 162.3225Q726.16876 162.11937 725.77814 162.11937Q725.0594 162.11937 724.6219 162.66624Q724.2 163.1975 724.2 164.51L724.2 168.47874L723.1844 168.47874ZM733.2625 166.135L734.3094 166.29124Q734.04376 167.46312 733.35626 168.05687Q732.6844 168.65062 731.6844 168.65062Q730.41876 168.65062 729.6219 167.6975Q728.84064 166.72874 728.84064 164.91624Q728.84064 163.02562 729.6219 162.04124Q730.41876 161.05687 731.6375 161.05687Q732.79376 161.05687 733.5594 162.02562Q734.34064 162.99437 734.34064 164.83812L734.325 165.16624L729.8875 165.16624Q729.95 166.385 730.45 167.01Q730.96564 167.635 731.6844 167.635Q732.825 167.635 733.2625 166.135ZM729.95 164.15062L733.2625 164.15062Q733.2 163.21312 732.8719 162.74437Q732.3875 162.0725 731.6219 162.0725Q730.95 162.0725 730.46564 162.635Q729.9969 163.1975 729.95 164.15062ZM734.8094 166.30687L735.8094 166.11937Q735.8875 166.885 736.27814 167.26Q736.6844 167.635 737.34064 167.635Q737.9969 167.635 738.35626 167.30687Q738.71564 166.97874 738.71564 166.47874Q738.71564 166.05687 738.40314 165.80687Q738.2 165.65062 737.3875 165.40062Q736.2 165.04124 735.8094 164.79124Q735.41876 164.54124 735.2 164.11937Q734.98126 163.68187 734.98126 163.15062Q734.98126 162.21312 735.575 161.635Q736.16876 161.05687 737.21564 161.05687Q737.8875 161.05687 738.3875 161.29124Q738.8875 161.52562 739.15314 161.93187Q739.41876 162.33812 739.52814 163.08812L738.54376 163.26Q738.40314 162.0725 737.2469 162.0725Q736.59064 162.0725 736.2625 162.33812Q735.95 162.58812 735.95 163.01Q735.95 163.40062 736.2625 163.635Q736.4344 163.77562 737.35626 164.0725Q738.60626 164.47874 738.96564 164.71312Q739.34064 164.9475 739.54376 165.35374Q739.7469 165.76 739.7469 166.3225Q739.7469 167.36937 739.09064 168.01Q738.4344 168.65062 737.29376 168.65062Q735.15314 168.65062 734.8094 166.30687ZM744.1844 159.86937L744.1844 158.46312L745.2 158.46312L745.2 159.86937L744.1844 159.86937ZM744.1844 168.47874L744.1844 161.21312L745.2 161.21312L745.2 168.47874L744.1844 168.47874ZM747.1844 168.47874L747.1844 161.21312L748.09064 161.21312L748.09064 162.24437Q748.41876 161.65062 748.8875 161.35374Q749.3719 161.05687 749.9969 161.05687Q750.46564 161.05687 750.8719 161.24437Q751.27814 161.43187 751.52814 161.74437Q751.77814 162.04124 751.90314 162.52562Q752.02814 163.01 752.02814 164.01L752.02814 168.47874L751.0125 168.47874L751.0125 164.05687Q751.0125 163.26 750.8719 162.90062Q750.7469 162.52562 750.45 162.3225Q750.16876 162.11937 749.77814 162.11937Q749.0594 162.11937 748.6219 162.66624Q748.2 163.1975 748.2 164.51L748.2 168.47874L747.1844 168.47874ZM755.4344 168.47874L758.59064 158.46312L759.7625 158.46312L763.1219 168.47874L761.8875 168.47874L760.91876 165.4475L757.4969 165.4475L756.59064 168.47874L755.4344 168.47874ZM757.8094 164.36937L760.59064 164.36937L759.73126 161.58812Q759.34064 160.30687 759.15314 159.51Q758.9969 160.47874 758.71564 161.41624L757.8094 164.36937ZM766.45 168.47874L766.45 159.635L763.73126 159.635L763.73126 158.46312L770.2469 158.46312L770.2469 159.635L767.52814 159.635L767.52814 168.47874L766.45 168.47874ZM771.02814 163.60374Q771.02814 161.04124 772.15314 159.66624Q773.29376 158.27562 774.96564 158.27562Q776.0594 158.27562 776.95 158.90062Q777.84064 159.51 778.35626 160.68187Q778.8875 161.85374 778.8875 163.47874Q778.8875 165.6975 777.8875 167.10374Q776.7625 168.65062 774.96564 168.65062Q773.1375 168.65062 772.04376 167.05687Q771.02814 165.635 771.02814 163.60374ZM772.15314 163.61937Q772.15314 165.46312 772.96564 166.49437Q773.79376 167.51 774.95 167.51Q776.15314 167.51 776.96564 166.47874Q777.77814 165.4475 777.77814 163.4475Q777.77814 162.15062 777.35626 161.135Q777.02814 160.35374 776.3875 159.885Q775.7469 159.41624 774.98126 159.41624Q773.7469 159.41624 772.95 160.4475Q772.15314 161.47874 772.15314 163.61937ZM780.3094 168.47874L780.3094 158.46312L781.9344 158.46312L783.8875 165.55687L784.27814 167.04124Q784.41876 166.47874 784.71564 165.43187L786.6844 158.46312L788.15314 158.46312L788.15314 168.47874L787.10626 168.47874L787.10626 160.08812L784.7 168.47874L783.73126 168.47874L781.35626 159.9475L781.35626 168.47874L780.3094 168.47874Z" fill-rule="nonzero"/><path fill="#616161" d="M762.71564 188.47874L761.7 188.47874L761.7 180.635Q761.35626 181.04124 760.7625 181.47874Q760.16876 181.90062 759.6844 182.11937L759.6844 180.93187Q760.5125 180.4475 761.15314 179.76Q761.79376 179.0725 762.0594 178.41624L762.71564 178.41624L762.71564 188.47874ZM764.90314 183.54124Q764.90314 181.01 765.575 179.71312Q766.2625 178.41624 767.59064 178.41624Q768.77814 178.41624 769.45 179.46312Q770.2625 180.74437 770.2625 183.54124Q770.2625 186.04124 769.59064 187.35374Q768.91876 188.65062 767.575 188.65062Q766.40314 188.65062 765.65314 187.51Q764.90314 186.35374 764.90314 183.54124ZM765.9344 183.54124Q765.9344 185.97874 766.40314 186.80687Q766.8719 187.635 767.60626 187.635Q768.29376 187.635 768.7625 186.80687Q769.23126 185.96312 769.23126 183.54124Q769.23126 181.08812 768.7625 180.26Q768.29376 179.43187 767.54376 179.43187Q766.85626 179.43187 766.3875 180.27562Q765.9344 181.11937 765.9344 183.54124ZM771.5125 188.47874L771.5125 187.0725L772.65314 187.0725L772.65314 188.47874L771.5125 188.47874ZM773.90314 183.54124Q773.90314 181.01 774.575 179.71312Q775.2625 178.41624 776.59064 178.41624Q777.77814 178.41624 778.45 179.46312Q779.2625 180.74437 779.2625 183.54124Q779.2625 186.04124 778.59064 187.35374Q777.91876 188.65062 776.575 188.65062Q775.40314 188.65062 774.65314 187.51Q773.90314 186.35374 773.90314 183.54124ZM774.9344 183.54124Q774.9344 185.97874 775.40314 186.80687Q775.8719 187.635 776.60626 187.635Q777.29376 187.635 777.7625 186.80687Q778.23126 185.96312 778.23126 183.54124Q778.23126 181.08812 777.7625 180.26Q777.29376 179.43187 776.54376 179.43187Q775.85626 179.43187 775.3875 180.27562Q774.9344 181.11937 774.9344 183.54124ZM780.09064 180.86937Q780.09064 179.61937 780.59064 178.96312Q781.09064 178.29124 781.8094 178.29124Q782.575 178.29124 783.09064 178.96312Q783.60626 179.61937 783.60626 180.93187Q783.60626 182.22874 783.09064 182.91624Q782.575 183.58812 781.825 183.58812Q781.10626 183.58812 780.59064 182.91624Q780.09064 182.24437 780.09064 180.86937ZM781.85626 179.135Q781.48126 179.135 781.23126 179.54124Q780.98126 179.93187 780.98126 180.93187Q780.98126 181.9475 781.23126 182.33812Q781.48126 182.72874 781.8719 182.72874Q782.23126 182.72874 782.48126 182.33812Q782.73126 181.93187 782.73126 180.93187Q782.73126 179.9475 782.48126 179.54124Q782.23126 179.135 781.85626 179.135ZM781.85626 188.85374L786.34064 178.29124L787.16876 178.29124L782.6844 188.85374L781.85626 188.85374ZM785.41876 186.11937Q785.41876 184.86937 785.90314 184.21312Q786.40314 183.55687 787.1219 183.55687Q787.8875 183.55687 788.40314 184.21312Q788.91876 184.86937 788.91876 186.18187Q788.91876 187.49437 788.3875 188.18187Q787.8719 188.85374 787.15314 188.85374Q786.41876 188.85374 785.91876 188.18187Q785.41876 187.49437 785.41876 186.11937ZM787.16876 184.40062Q786.77814 184.40062 786.52814 184.80687Q786.29376 185.1975 786.29376 186.1975Q786.29376 187.21312 786.54376 187.60374Q786.79376 187.99437 787.1844 187.99437Q787.54376 187.99437 787.79376 187.60374Q788.04376 187.1975 788.04376 186.1975Q788.04376 185.1975 787.79376 184.80687Q787.54376 184.40062 787.16876 184.40062Z" fill-rule="nonzero"/><path stroke="#8a8a8a" stroke-width="1.0" stroke-linecap="butt" d="M789.45 172.97874L576.95 172.97874L562.6025 172.97874" fill-rule="nonzero"/><path fill="#616161" d="M564.6025 172.97874C564.6025 171.87418 563.7071 170.97874 562.6025 170.97874C561.4979 170.97874 560.6025 171.87418 560.6025 172.97874C560.6025 174.08331 561.4979 174.97874 562.6025 174.97874C563.7071 174.97874 564.6025 174.08331 564.6025 172.97874" fill-rule="nonzero"/></svg>