<svg version="1.1" viewBox="0.0 0.0 808.0 371.0" fill="none" stroke="none" stroke-linecap="square" stroke-miterlimit="10" width="808" height="371" xmlns:xlink="http://www.w3.org/1999/xlink" xmlns="http://www.w3.org/2000/svg"><path fill="#000000" d="M0 0L808.0 0L808.0 371.0L0 371.0L0 0Z" fill-rule="nonzero"/><path fill="#9500ae" d="M404.0 114.54625C421.62817 114.54625 438.80386 118.45275 453.06537 125.705864L453.06537 150.74837C438.80386 143.49525 421.62817 139.58875 404.0 139.58875Z" fill-rule="nonzero"/><path fill="#d500f9" d="M404.0 56.11375C439.25638 56.11375 473.60773 63.926754 502.13074 78.432976L453.06537 125.705864C438.80386 118.45275 421.62817 114.54625 404.0 114.54625Z" fill-rule="nonzero"/><path fill="#b32b00" d="M570.95 198.02126L570.95 172.97874Z" fill-rule="nonzero"/><path fill="#b32b00" d="M453.06537 125.705864C474.68292 136.70012 487.475 154.27422 487.475 172.97874L487.475 198.02126C487.475 179.31671 474.68292 161.74261 453.06537 150.74837Z" fill-rule="nonzero"/><path fill="#ff3d00" d="M502.13074 78.432976C545.36584 100.42148 570.95 135.56967 570.95 172.97874L487.475 172.97874C487.475 154.27422 474.68292 136.70012 453.06537 125.705864Z" fill-rule="nonzero"/><path fill="#b3a400" d="M570.95 198.02126C570.95 262.564 496.20395 314.88626 404.0 314.88626C311.79605 314.88626 237.05 262.564 237.05 198.02126L237.05 172.97874C237.05 237.52151 311.79605 289.84375 404.0 289.84375C496.20395 289.84375 570.95 237.52151 570.95 172.97874Z" fill-rule="nonzero"/><path fill="#b3a400" d="M487.475 172.97874L487.475 198.02126Z" fill-rule="nonzero"/><path fill="#b3a400" d="M320.525 172.97874C320.525 140.70737 357.89804 114.54625 404.0 114.54625L404.0 139.58875C357.89804 139.58875 320.525 165.74988 320.525 198.02126Z" fill-rule="nonzero"/><path fill="#ffea00" d="M570.95 172.97874C570.95 237.52151 496.20395 289.84375 404.0 289.84375C311.79605 289.84375 237.05 237.52151 237.05 172.97874C237.05 108.43599 311.79605 56.11375 404.0 56.11375L404.0 114.54625C357.89804 114.54625 320.525 140.70737 320.525 172.97874C320.525 205.25012 357.89804 231.41125 404.0 231.41125C450.10196 231.41125 487.475 205.25012 487.475 172.97874Z" fill-rule="nonzero"/><path fill="#ffffff" d="M21.55 246.98299L21.55 238.13924L18.83125 238.13924L18.83125 236.96736L25.346874 236.96736L25.346874 238.13924L22.628124 238.13924L22.628124 246.98299L21.55 246.98299ZM26.425 246.98299L26.425 236.96736L27.51875 236.96736L27.51875 241.07674L31.784374 241.07674L31.784374 236.96736L32.878124 236.96736L32.878124 246.98299L31.784374 246.98299L31.784374 242.26424L27.51875 242.26424L27.51875 246.98299L26.425 246.98299ZM40.26875 243.46736L41.3625 243.81111Q41.003124 245.49861 40.096874 246.32674Q39.190624 247.15486 37.89375 247.15486Q36.753124 247.15486 35.940624 246.60799Q35.128124 246.04549 34.6125 244.81111Q34.096874 243.57674 34.096874 241.90486Q34.096874 240.24861 34.6125 239.10799Q35.128124 237.95174 36.003124 237.37361Q36.89375 236.79549 37.9875 236.79549Q39.175 236.79549 40.01875 237.54549Q40.878124 238.27986 41.221874 239.70174L40.159374 240.01424Q39.6125 237.92049 37.95625 237.92049Q37.14375 237.92049 36.534374 238.34236Q35.940624 238.76424 35.58125 239.65486Q35.221874 240.54549 35.221874 241.90486Q35.221874 243.96736 35.940624 244.99861Q36.675 246.01424 37.878124 246.01424Q38.753124 246.01424 39.39375 245.38924Q40.05 244.74861 40.26875 243.46736ZM44.909374 244.81111L45.909374 244.62361Q45.9875 245.38924 46.378124 245.76424Q46.784374 246.13924 47.440624 246.13924Q48.096874 246.13924 48.45625 245.81111Q48.815624 245.48299 48.815624 244.98299Q48.815624 244.56111 48.503124 244.31111Q48.3 244.15486 47.4875 243.90486Q46.3 243.54549 45.909374 243.29549Q45.51875 243.04549 45.3 242.62361Q45.08125 242.18611 45.08125 241.65486Q45.08125 240.71736 45.675 240.13924Q46.26875 239.56111 47.315624 239.56111Q47.9875 239.56111 48.4875 239.79549Q48.9875 240.02986 49.253124 240.43611Q49.51875 240.84236 49.628124 241.59236L48.64375 241.76424Q48.503124 240.57674 47.346874 240.57674Q46.690624 240.57674 46.3625 240.84236Q46.05 241.09236 46.05 241.51424Q46.05 241.90486 46.3625 242.13924Q46.534374 242.27986 47.45625 242.57674Q48.70625 242.98299 49.065624 243.21736Q49.440624 243.45174 49.64375 243.85799Q49.846874 244.26424 49.846874 244.82674Q49.846874 245.87361 49.190624 246.51424Q48.534374 247.15486 47.39375 247.15486Q45.253124 247.15486 44.909374 244.81111ZM53.534374 245.88924L53.675 246.96736Q53.253124 247.07674 52.925 247.07674Q52.39375 247.07674 52.065624 246.87361Q51.753124 246.65486 51.628124 246.29549Q51.51875 245.93611 51.51875 244.85799L51.51875 240.68611L50.76875 240.68611L50.76875 239.71736L51.51875 239.71736L51.51875 237.92049L52.51875 237.18611L52.51875 239.71736L53.534374 239.71736L53.534374 240.68611L52.51875 240.68611L52.51875 244.92049Q52.51875 245.51424 52.6125 245.68611Q52.7375 245.93611 53.096874 245.93611Q53.26875 245.93611 53.534374 245.88924ZM58.175 246.09236Q57.659374 246.60799 57.1125 246.88924Q56.565624 247.15486 55.9875 247.15486Q55.05 247.15486 54.4875 246.59236Q53.940624 246.02986 53.940624 245.07674Q53.940624 244.45174 54.20625 243.96736Q54.471874 243.48299 54.909374 243.21736Q55.3625 242.93611 56.284374 242.79549Q57.51875 242.62361 58.096874 242.37361L58.096874 242.06111Q58.096874 241.31111 57.83125 241.01424Q57.45625 240.57674 56.675 240.57674Q55.971874 240.57674 55.6125 240.87361Q55.26875 241.15486 55.1125 241.95174L54.1125 241.79549Q54.33125 240.62361 54.971874 240.09236Q55.628124 239.56111 56.83125 239.56111Q57.76875 239.56111 58.3 239.92049Q58.83125 240.26424 58.971874 240.77986Q59.1125 241.29549 59.1125 242.29549L59.1125 243.93611Q59.1125 245.67049 59.175 246.12361Q59.2375 246.56111 59.425 246.98299L58.378124 246.98299Q58.221874 246.60799 58.175 246.09236ZM58.096874 243.34236Q57.534374 243.60799 56.440624 243.81111Q55.8 243.92049 55.55 244.06111Q55.3 244.18611 55.159374 244.45174Q55.01875 244.70174 55.01875 245.04549Q55.01875 245.56111 55.33125 245.87361Q55.659374 246.18611 56.2375 246.18611Q56.76875 246.18611 57.20625 245.90486Q57.659374 245.62361 57.878124 245.15486Q58.096874 244.68611 58.096874 243.79549L58.096874 243.34236ZM60.315624 246.98299L60.315624 236.96736L61.315624 236.96736L61.315624 242.67049L63.70625 239.71736L65.01875 239.71736L62.7375 242.42049L65.2375 246.98299L64.00313 246.98299L62.034374 243.26424L61.315624 244.10799L61.315624 246.98299L60.315624 246.98299ZM70.3625 244.63924L71.40938 244.79549Q71.14375 245.96736 70.45625 246.56111Q69.78438 247.15486 68.78438 247.15486Q67.51875 247.15486 66.72188 246.20174Q65.94063 245.23299 65.94063 243.42049Q65.94063 241.52986 66.72188 240.54549Q67.51875 239.56111 68.7375 239.56111Q69.89375 239.56111 70.65938 240.52986Q71.44063 241.49861 71.44063 243.34236L71.425 243.67049L66.9875 243.67049Q67.05 244.88924 67.55 245.51424Q68.06563 246.13924 68.78438 246.13924Q69.925 246.13924 70.3625 244.63924ZM67.05 242.65486L70.3625 242.65486Q70.3 241.71736 69.97188 241.24861Q69.4875 240.57674 68.72188 240.57674Q68.05 240.57674 67.56563 241.13924Q67.09688 241.70174 67.05 242.65486ZM72.28438 246.98299L72.28438 239.71736L73.19063 239.71736L73.19063 240.82674Q73.55 240.06111 73.83125 239.81111Q74.12813 239.56111 74.4875 239.56111Q75.00313 239.56111 75.51875 239.95174L75.175 241.09236Q74.8 240.82674 74.45625 240.82674Q74.12813 240.82674 73.8625 241.06111Q73.59688 241.27986 73.4875 241.68611Q73.3 242.38924 73.3 243.18611L73.3 246.98299L72.28438 246.98299ZM75.90938 244.81111L76.90938 244.62361Q76.9875 245.38924 77.37813 245.76424Q77.78438 246.13924 78.44063 246.13924Q79.09688 246.13924 79.45625 245.81111Q79.81563 245.48299 79.81563 244.98299Q79.81563 244.56111 79.50313 244.31111Q79.3 244.15486 78.4875 243.90486Q77.3 243.54549 76.90938 243.29549Q76.51875 243.04549 76.3 242.62361Q76.08125 242.18611 76.08125 241.65486Q76.08125 240.71736 76.675 240.13924Q77.26875 239.56111 78.31563 239.56111Q78.9875 239.56111 79.4875 239.79549Q79.9875 240.02986 80.25313 240.43611Q80.51875 240.84236 80.62813 241.59236L79.64375 241.76424Q79.50313 240.57674 78.34688 240.57674Q77.69063 240.57674 77.3625 240.84236Q77.05 241.09236 77.05 241.51424Q77.05 241.90486 77.3625 242.13924Q77.53438 242.27986 78.45625 242.57674Q79.70625 242.98299 80.06563 243.21736Q80.44063 243.45174 80.64375 243.85799Q80.84688 244.26424 80.84688 244.82674Q80.84688 245.87361 80.19063 246.51424Q79.53438 247.15486 78.39375 247.15486Q76.25313 247.15486 75.90938 244.81111Z" fill-rule="nonzero"/><path fill="#616161" d="M19.08125 258.27985L19.08125 257.09235L24.39375 257.09235L24.39375 258.04547Q23.20625 259.59235 22.3 262.07672Q21.39375 264.54547 21.26875 266.98297L20.221874 266.98297Q20.253124 265.71735 20.628124 264.04547Q21.003124 262.3736 21.659374 260.85797Q22.33125 259.34235 23.096874 258.27985L19.08125 258.27985ZM25.003124 264.35797L26.065624 264.2486Q26.190624 265.20172 26.628124 265.67047Q27.065624 266.13922 27.628124 266.13922Q28.346874 266.13922 28.8625 265.48297Q29.39375 264.82672 29.39375 263.6861Q29.39375 262.60797 28.878124 262.01422Q28.378124 261.42047 27.628124 261.42047Q27.175 261.42047 26.76875 261.6861Q26.3625 261.9361 26.14375 262.38922L25.190624 262.2486L25.9875 257.09235L30.065624 257.09235L30.065624 258.27985L26.8 258.27985L26.346874 260.96735Q27.08125 260.34235 27.89375 260.34235Q28.925 260.34235 29.690624 261.21735Q30.45625 262.09235 30.45625 263.59235Q30.45625 265.0611 29.690624 266.10797Q28.925 267.15485 27.64375 267.15485Q26.58125 267.15485 25.846874 266.42047Q25.1125 265.67047 25.003124 264.35797ZM31.6125 266.98297L31.6125 265.57672L32.753124 265.57672L32.753124 266.98297L31.6125 266.98297ZM34.003124 262.04547Q34.003124 259.51422 34.675 258.21735Q35.3625 256.92047 36.690624 256.92047Q37.878124 256.92047 38.55 257.96735Q39.3625 259.2486 39.3625 262.04547Q39.3625 264.54547 38.690624 265.85797Q38.01875 267.15485 36.675 267.15485Q35.503124 267.15485 34.753124 266.01422Q34.003124 264.85797 34.003124 262.04547ZM35.034374 262.04547Q35.034374 264.48297 35.503124 265.3111Q35.971874 266.13922 36.70625 266.13922Q37.39375 266.13922 37.8625 265.3111Q38.33125 264.46735 38.33125 262.04547Q38.33125 259.59235 37.8625 258.76422Q37.39375 257.9361 36.64375 257.9361Q35.95625 257.9361 35.4875 258.77985Q35.034374 259.6236 35.034374 262.04547ZM40.190624 259.3736Q40.190624 258.1236 40.690624 257.46735Q41.190624 256.79547 41.909374 256.79547Q42.675 256.79547 43.190624 257.46735Q43.70625 258.1236 43.70625 259.4361Q43.70625 260.73297 43.190624 261.42047Q42.675 262.09235 41.925 262.09235Q41.20625 262.09235 40.690624 261.42047Q40.190624 260.7486 40.190624 259.3736ZM41.95625 257.63922Q41.58125 257.63922 41.33125 258.04547Q41.08125 258.4361 41.08125 259.4361Q41.08125 260.45172 41.33125 260.84235Q41.58125 261.23297 41.971874 261.23297Q42.33125 261.23297 42.58125 260.84235Q42.83125 260.4361 42.83125 259.4361Q42.83125 258.45172 42.58125 258.04547Q42.33125 257.63922 41.95625 257.63922ZM41.95625 267.35797L46.440624 256.79547L47.26875 256.79547L42.784374 267.35797L41.95625 267.35797ZM45.51875 264.6236Q45.51875 263.3736 46.003124 262.71735Q46.503124 262.0611 47.221874 262.0611Q47.9875 262.0611 48.503124 262.71735Q49.01875 263.3736 49.01875 264.6861Q49.01875 265.9986 48.4875 266.6861Q47.971874 267.35797 47.253124 267.35797Q46.51875 267.35797 46.01875 266.6861Q45.51875 265.9986 45.51875 264.6236ZM47.26875 262.90485Q46.878124 262.90485 46.628124 263.3111Q46.39375 263.70172 46.39375 264.70172Q46.39375 265.71735 46.64375 266.10797Q46.89375 266.4986 47.284374 266.4986Q47.64375 266.4986 47.89375 266.10797Q48.14375 265.70172 48.14375 264.70172Q48.14375 263.70172 47.89375 263.3111Q47.64375 262.90485 47.26875 262.90485Z" fill-rule="nonzero"/><path stroke="#8a8a8a" stroke-width="1.0" stroke-linecap="butt" d="M18.55 251.48299L231.05 251.48299L291.8511 251.48299" fill-rule="nonzero"/><path fill="#616161" d="M293.8511 251.48299C293.8511 250.37842 292.95566 249.48299 291.8511 249.48299C290.74652 249.48299 289.8511 250.37842 289.8511 251.48299C289.8511 252.58755 290.74652 253.48299 291.8511 253.48299C292.95566 253.48299 293.8511 252.58755 293.8511 251.48299" fill-rule="nonzero"/><path fill="#ffffff" d="M776.21564 58.953293L776.21564 57.781418L779.6844 57.781418L779.6844 61.500168Q778.8875 62.281418 778.02814 62.672043Q777.1844 63.062668 776.27814 63.062668Q775.075 63.062668 774.1219 62.468918Q773.1844 61.859543 772.6375 60.703293Q772.09064 59.547043 772.09064 57.922043Q772.09064 56.281418 772.6375 55.078293Q773.2 53.859543 774.09064 53.281418Q774.98126 52.703293 776.21564 52.703293Q777.10626 52.703293 777.77814 53.047043Q778.46564 53.375168 778.90314 53.984543Q779.34064 54.593918 779.5594 55.672043L778.575 56.000168Q778.3875 55.156418 778.075 54.734543Q777.77814 54.312668 777.27814 54.078293Q776.79376 53.828293 776.1844 53.828293Q775.27814 53.828293 774.6375 54.265793Q773.9969 54.703293 773.59064 55.625168Q773.2 56.531418 773.2 57.859543Q773.2 59.859543 774.04376 60.859543Q774.8875 61.859543 776.23126 61.859543Q776.8719 61.859543 777.54376 61.562668Q778.23126 61.250168 778.6219 60.828293L778.6219 58.953293L776.21564 58.953293ZM781.1844 54.281418L781.1844 52.875168L782.2 52.875168L782.2 54.281418L781.1844 54.281418ZM781.1844 62.890793L781.1844 55.625168L782.2 55.625168L782.2 62.890793L781.1844 62.890793ZM784.48126 62.890793L784.48126 56.593918L783.575 56.593918L783.575 55.625168L784.48126 55.625168L784.48126 54.859543Q784.48126 54.000168 784.65314 53.578293Q784.825 53.156418 785.1844 52.937668Q785.5594 52.703293 786.1219 52.703293Q786.54376 52.703293 787.0594 52.828293L786.90314 53.890793Q786.59064 53.828293 786.3094 53.828293Q785.85626 53.828293 785.66876 54.062668Q785.48126 54.297043 785.48126 54.953293L785.48126 55.625168L786.6375 55.625168L786.6375 56.593918L785.48126 56.593918L785.48126 62.890793L784.48126 62.890793ZM789.4344 61.797043L789.575 62.875168Q789.15314 62.984543 788.825 62.984543Q788.29376 62.984543 787.96564 62.781418Q787.65314 62.562668 787.52814 62.203293Q787.41876 61.843918 787.41876 60.765793L787.41876 56.593918L786.66876 56.593918L786.66876 55.625168L787.41876 55.625168L787.41876 53.828293L788.41876 53.093918L788.41876 55.625168L789.4344 55.625168L789.4344 56.593918L788.41876 56.593918L788.41876 60.828293Q788.41876 61.422043 788.5125 61.593918Q788.6375 61.843918 788.9969 61.843918Q789.16876 61.843918 789.4344 61.797043Z" fill-rule="nonzero"/><path fill="#616161" d="M762.71564 82.89079L761.7 82.89079L761.7 75.04704Q761.35626 75.45329 760.7625 75.89079Q760.16876 76.31267 759.6844 76.53142L759.6844 75.34392Q760.5125 74.85954 761.15314 74.17204Q761.79376 73.48454 762.0594 72.82829L762.71564 72.82829L762.71564 82.89079ZM764.90314 77.95329Q764.90314 75.42204 765.575 74.12517Q766.2625 72.82829 767.59064 72.82829Q768.77814 72.82829 769.45 73.87517Q770.2625 75.15642 770.2625 77.95329Q770.2625 80.45329 769.59064 81.76579Q768.91876 83.06267 767.575 83.06267Q766.40314 83.06267 765.65314 81.92204Q764.90314 80.76579 764.90314 77.95329ZM765.9344 77.95329Q765.9344 80.39079 766.40314 81.21892Q766.8719 82.04704 767.60626 82.04704Q768.29376 82.04704 768.7625 81.21892Q769.23126 80.37517 769.23126 77.95329Q769.23126 75.50017 768.7625 74.67204Q768.29376 73.84392 767.54376 73.84392Q766.85626 73.84392 766.3875 74.68767Q765.9344 75.53142 765.9344 77.95329ZM771.5125 82.89079L771.5125 81.48454L772.65314 81.48454L772.65314 82.89079L771.5125 82.89079ZM773.90314 77.95329Q773.90314 75.42204 774.575 74.12517Q775.2625 72.82829 776.59064 72.82829Q777.77814 72.82829 778.45 73.87517Q779.2625 75.15642 779.2625 77.95329Q779.2625 80.45329 778.59064 81.76579Q777.91876 83.06267 776.575 83.06267Q775.40314 83.06267 774.65314 81.92204Q773.90314 80.76579 773.90314 77.95329ZM774.9344 77.95329Q774.9344 80.39079 775.40314 81.21892Q775.8719 82.04704 776.60626 82.04704Q777.29376 82.04704 777.7625 81.21892Q778.23126 80.37517 778.23126 77.95329Q778.23126 75.50017 777.7625 74.67204Q777.29376 73.84392 776.54376 73.84392Q775.85626 73.84392 775.3875 74.68767Q774.9344 75.53142 774.9344 77.95329ZM780.09064 75.28142Q780.09064 74.03142 780.59064 73.37517Q781.09064 72.70329 781.8094 72.70329Q782.575 72.70329 783.09064 73.37517Q783.60626 74.03142 783.60626 75.34392Q783.60626 76.64079 783.09064 77.32829Q782.575 78.00017 781.825 78.00017Q781.10626 78.00017 780.59064 77.32829Q780.09064 76.65642 780.09064 75.28142ZM781.85626 73.54704Q781.48126 73.54704 781.23126 73.95329Q780.98126 74.34392 780.98126 75.34392Q780.98126 76.35954 781.23126 76.75017Q781.48126 77.14079 781.8719 77.14079Q782.23126 77.14079 782.48126 76.75017Q782.73126 76.34392 782.73126 75.34392Q782.73126 74.35954 782.48126 73.95329Q782.23126 73.54704 781.85626 73.54704ZM781.85626 83.26579L786.34064 72.70329L787.16876 72.70329L782.6844 83.26579L781.85626 83.26579ZM785.41876 80.53142Q785.41876 79.28142 785.90314 78.62517Q786.40314 77.96892 787.1219 77.96892Q787.8875 77.96892 788.40314 78.62517Q788.91876 79.28142 788.91876 80.59392Q788.91876 81.90642 788.3875 82.59392Q787.8719 83.26579 787.15314 83.26579Q786.41876 83.26579 785.91876 82.59392Q785.41876 81.90642 785.41876 80.53142ZM787.16876 78.81267Q786.77814 78.81267 786.52814 79.21892Q786.29376 79.60954 786.29376 80.60954Q786.29376 81.62517 786.54376 82.01579Q786.79376 82.40642 787.1844 82.40642Q787.54376 82.40642 787.79376 82.01579Q788.04376 81.60954 788.04376 80.60954Q788.04376 79.60954 787.79376 79.21892Q787.54376 78.81267 787.16876 78.81267Z" fill-rule="nonzero"/><path stroke="#8a8a8a" stroke-width="1.0" stroke-linecap="butt" d="M789.45 67.39079L576.95 67.39079L453.01086 67.39079" fill-rule="nonzero"/><path fill="#616161" d="M455.01086 67.39079C455.01086 66.286224 454.11545 65.39079 453.01086 65.39079C451.9063 65.39079 451.01086 66.286224 451.01086 67.39079C451.01086 68.49536 451.9063 69.39079 453.01086 69.39079C454.11545 69.39079 455.01086 68.49536 455.01086 67.39079" fill-rule="nonzero"/><path fill="#ffffff" d="M721.21564 114.13843L721.21564 112.96655L724.6844 112.96655L724.6844 116.6853Q723.8875 117.46655 723.02814 117.85718Q722.1844 118.2478 721.27814 118.2478Q720.075 118.2478 719.1219 117.65405Q718.1844 117.04468 717.6375 115.88843Q717.09064 114.73218 717.09064 113.10718Q717.09064 111.46655 717.6375 110.26343Q718.2 109.04468 719.09064 108.46655Q719.98126 107.88843 721.21564 107.88843Q722.10626 107.88843 722.77814 108.23218Q723.46564 108.5603 723.90314 109.16968Q724.34064 109.77905 724.5594 110.85718L723.575 111.1853Q723.3875 110.34155 723.075 109.91968Q722.77814 109.4978 722.27814 109.26343Q721.79376 109.01343 721.1844 109.01343Q720.27814 109.01343 719.6375 109.45093Q718.9969 109.88843 718.59064 110.8103Q718.2 111.71655 718.2 113.04468Q718.2 115.04468 719.04376 116.04468Q719.8875 117.04468 721.23126 117.04468Q721.8719 117.04468 722.54376 116.7478Q723.23126 116.4353 723.6219 116.01343L723.6219 114.13843L721.21564 114.13843ZM730.075 117.1853Q729.5594 117.70093 729.0125 117.98218Q728.46564 118.2478 727.8875 118.2478Q726.95 118.2478 726.3875 117.6853Q725.84064 117.1228 725.84064 116.16968Q725.84064 115.54468 726.10626 115.0603Q726.3719 114.57593 726.8094 114.3103Q727.2625 114.02905 728.1844 113.88843Q729.41876 113.71655 729.9969 113.46655L729.9969 113.15405Q729.9969 112.40405 729.73126 112.10718Q729.35626 111.66968 728.575 111.66968Q727.8719 111.66968 727.5125 111.96655Q727.16876 112.2478 727.0125 113.04468L726.0125 112.88843Q726.23126 111.71655 726.8719 111.1853Q727.52814 110.65405 728.73126 110.65405Q729.66876 110.65405 730.2 111.01343Q730.73126 111.35718 730.8719 111.8728Q731.0125 112.38843 731.0125 113.38843L731.0125 115.02905Q731.0125 116.76343 731.075 117.21655Q731.1375 117.65405 731.325 118.07593L730.27814 118.07593Q730.1219 117.70093 730.075 117.1853ZM729.9969 114.4353Q729.4344 114.70093 728.34064 114.90405Q727.7 115.01343 727.45 115.15405Q727.2 115.27905 727.0594 115.54468Q726.91876 115.79468 726.91876 116.13843Q726.91876 116.65405 727.23126 116.96655Q727.5594 117.27905 728.1375 117.27905Q728.66876 117.27905 729.10626 116.9978Q729.5594 116.71655 729.77814 116.2478Q729.9969 115.77905 729.9969 114.88843L729.9969 114.4353ZM732.2 118.07593L732.2 110.8103L733.10626 110.8103L733.10626 111.84155Q733.40314 111.26343 733.8719 110.96655Q734.35626 110.65405 734.90314 110.65405Q735.54376 110.65405 735.96564 110.98218Q736.40314 111.29468 736.59064 111.91968Q736.95 111.29468 737.40314 110.98218Q737.8719 110.65405 738.4344 110.65405Q739.27814 110.65405 739.7625 111.23218Q740.2625 111.8103 740.2625 113.09155L740.2625 118.07593L739.2625 118.07593L739.2625 113.4978Q739.2625 112.71655 739.15314 112.40405Q739.04376 112.07593 738.77814 111.90405Q738.52814 111.71655 738.21564 111.71655Q737.575 111.71655 737.15314 112.23218Q736.7469 112.7478 736.7469 113.85718L736.7469 118.07593L735.73126 118.07593L735.73126 113.35718Q735.73126 112.45093 735.45 112.09155Q735.1844 111.71655 734.7 111.71655Q734.0125 111.71655 733.60626 112.27905Q733.2 112.82593 733.2 114.3103L733.2 118.07593L732.2 118.07593ZM746.2625 115.73218L747.3094 115.88843Q747.04376 117.0603 746.35626 117.65405Q745.6844 118.2478 744.6844 118.2478Q743.41876 118.2478 742.6219 117.29468Q741.84064 116.32593 741.84064 114.51343Q741.84064 112.6228 742.6219 111.63843Q743.41876 110.65405 744.6375 110.65405Q745.79376 110.65405 746.5594 111.6228Q747.34064 112.59155 747.34064 114.4353L747.325 114.76343L742.8875 114.76343Q742.95 115.98218 743.45 116.60718Q743.96564 117.23218 744.6844 117.23218Q745.825 117.23218 746.2625 115.73218ZM742.95 113.7478L746.2625 113.7478Q746.2 112.8103 745.8719 112.34155Q745.3875 111.66968 744.6219 111.66968Q743.95 111.66968 743.46564 112.23218Q742.9969 112.79468 742.95 113.7478ZM750.8094 114.45093Q750.8094 112.5603 751.59064 111.60718Q752.3875 110.65405 753.60626 110.65405Q754.79376 110.65405 755.59064 111.60718Q756.3875 112.5603 756.3875 114.3728Q756.3875 116.32593 755.60626 117.29468Q754.825 118.2478 753.60626 118.2478Q752.40314 118.2478 751.60626 117.29468Q750.8094 116.32593 750.8094 114.45093ZM751.84064 114.45093Q751.84064 115.85718 752.35626 116.54468Q752.8719 117.23218 753.6219 117.23218Q754.34064 117.23218 754.84064 116.54468Q755.35626 115.84155 755.35626 114.45093Q755.35626 113.04468 754.84064 112.35718Q754.34064 111.66968 753.575 111.66968Q752.85626 111.66968 752.34064 112.35718Q751.84064 113.04468 751.84064 114.45093ZM757.48126 118.07593L757.48126 111.77905L756.575 111.77905L756.575 110.8103L757.48126 110.8103L757.48126 110.04468Q757.48126 109.1853 757.65314 108.76343Q757.825 108.34155 758.1844 108.1228Q758.5594 107.88843 759.1219 107.88843Q759.54376 107.88843 760.0594 108.01343L759.90314 109.07593Q759.59064 109.01343 759.3094 109.01343Q758.85626 109.01343 758.66876 109.2478Q758.48126 109.48218 758.48126 110.13843L758.48126 110.8103L759.6375 110.8103L759.6375 111.77905L758.48126 111.77905L758.48126 118.07593L757.48126 118.07593ZM763.27814 118.07593L763.27814 108.0603L764.35626 108.0603L764.35626 116.88843L768.40314 116.88843L768.40314 118.07593L763.27814 118.07593ZM769.1844 109.46655L769.1844 108.0603L770.2 108.0603L770.2 109.46655L769.1844 109.46655ZM769.1844 118.07593L769.1844 110.8103L770.2 110.8103L770.2 118.07593L769.1844 118.07593ZM772.1844 118.07593L772.1844 110.8103L773.09064 110.8103L773.09064 111.84155Q773.41876 111.2478 773.8875 110.95093Q774.3719 110.65405 774.9969 110.65405Q775.46564 110.65405 775.8719 110.84155Q776.27814 111.02905 776.52814 111.34155Q776.77814 111.63843 776.90314 112.1228Q777.02814 112.60718 777.02814 113.60718L777.02814 118.07593L776.0125 118.07593L776.0125 113.65405Q776.0125 112.85718 775.8719 112.4978Q775.7469 112.1228 775.45 111.91968Q775.16876 111.71655 774.77814 111.71655Q774.0594 111.71655 773.6219 112.26343Q773.2 112.79468 773.2 114.10718L773.2 118.07593L772.1844 118.07593ZM778.21564 118.07593L778.21564 108.0603L779.21564 108.0603L779.21564 113.76343L781.60626 110.8103L782.91876 110.8103L780.6375 113.51343L783.1375 118.07593L781.90314 118.07593L779.9344 114.35718L779.21564 115.20093L779.21564 118.07593L778.21564 118.07593ZM783.8094 115.90405L784.8094 115.71655Q784.8875 116.48218 785.27814 116.85718Q785.6844 117.23218 786.34064 117.23218Q786.9969 117.23218 787.35626 116.90405Q787.71564 116.57593 787.71564 116.07593Q787.71564 115.65405 787.40314 115.40405Q787.2 115.2478 786.3875 114.9978Q785.2 114.63843 784.8094 114.38843Q784.41876 114.13843 784.2 113.71655Q783.98126 113.27905 783.98126 112.7478Q783.98126 111.8103 784.575 111.23218Q785.16876 110.65405 786.21564 110.65405Q786.8875 110.65405 787.3875 110.88843Q787.8875 111.1228 788.15314 111.52905Q788.41876 111.9353 788.52814 112.6853L787.54376 112.85718Q787.40314 111.66968 786.2469 111.66968Q785.59064 111.66968 785.2625 111.9353Q784.95 112.1853 784.95 112.60718Q784.95 112.9978 785.2625 113.23218Q785.4344 113.3728 786.35626 113.66968Q787.60626 114.07593 787.96564 114.3103Q788.34064 114.54468 788.54376 114.95093Q788.7469 115.35718 788.7469 115.91968Q788.7469 116.96655 788.09064 117.60718Q787.4344 118.2478 786.29376 118.2478Q784.15314 118.2478 783.8094 115.90405Z" fill-rule="nonzero"/><path fill="#616161" d="M762.71564 138.07593L761.7 138.07593L761.7 130.23218Q761.35626 130.63843 760.7625 131.07593Q760.16876 131.4978 759.6844 131.71655L759.6844 130.52905Q760.5125 130.04468 761.15314 129.35718Q761.79376 128.66968 762.0594 128.01343L762.71564 128.01343L762.71564 138.07593ZM764.90314 135.45093L765.96564 135.34155Q766.09064 136.29468 766.52814 136.76343Q766.96564 137.23218 767.52814 137.23218Q768.2469 137.23218 768.7625 136.57593Q769.29376 135.91968 769.29376 134.77905Q769.29376 133.70093 768.77814 133.10718Q768.27814 132.51343 767.52814 132.51343Q767.075 132.51343 766.66876 132.77905Q766.2625 133.02905 766.04376 133.48218L765.09064 133.34155L765.8875 128.1853L769.96564 128.1853L769.96564 129.3728L766.7 129.3728L766.2469 132.0603Q766.98126 131.4353 767.79376 131.4353Q768.825 131.4353 769.59064 132.3103Q770.35626 133.1853 770.35626 134.6853Q770.35626 136.15405 769.59064 137.20093Q768.825 138.2478 767.54376 138.2478Q766.48126 138.2478 765.7469 137.51343Q765.0125 136.76343 764.90314 135.45093ZM771.5125 138.07593L771.5125 136.66968L772.65314 136.66968L772.65314 138.07593L771.5125 138.07593ZM773.90314 133.13843Q773.90314 130.60718 774.575 129.3103Q775.2625 128.01343 776.59064 128.01343Q777.77814 128.01343 778.45 129.0603Q779.2625 130.34155 779.2625 133.13843Q779.2625 135.63843 778.59064 136.95093Q777.91876 138.2478 776.575 138.2478Q775.40314 138.2478 774.65314 137.10718Q773.90314 135.95093 773.90314 133.13843ZM774.9344 133.13843Q774.9344 135.57593 775.40314 136.40405Q775.8719 137.23218 776.60626 137.23218Q777.29376 137.23218 777.7625 136.40405Q778.23126 135.5603 778.23126 133.13843Q778.23126 130.6853 777.7625 129.85718Q777.29376 129.02905 776.54376 129.02905Q775.85626 129.02905 775.3875 129.8728Q774.9344 130.71655 774.9344 133.13843ZM780.09064 130.46655Q780.09064 129.21655 780.59064 128.5603Q781.09064 127.88843 781.8094 127.88843Q782.575 127.88843 783.09064 128.5603Q783.60626 129.21655 783.60626 130.52905Q783.60626 131.82593 783.09064 132.51343Q782.575 133.1853 781.825 133.1853Q781.10626 133.1853 780.59064 132.51343Q780.09064 131.84155 780.09064 130.46655ZM781.85626 128.73218Q781.48126 128.73218 781.23126 129.13843Q780.98126 129.52905 780.98126 130.52905Q780.98126 131.54468 781.23126 131.9353Q781.48126 132.32593 781.8719 132.32593Q782.23126 132.32593 782.48126 131.9353Q782.73126 131.52905 782.73126 130.52905Q782.73126 129.54468 782.48126 129.13843Q782.23126 128.73218 781.85626 128.73218ZM781.85626 138.45093L786.34064 127.88843L787.16876 127.88843L782.6844 138.45093L781.85626 138.45093ZM785.41876 135.71655Q785.41876 134.46655 785.90314 133.8103Q786.40314 133.15405 787.1219 133.15405Q787.8875 133.15405 788.40314 133.8103Q788.91876 134.46655 788.91876 135.77905Q788.91876 137.09155 788.3875 137.77905Q787.8719 138.45093 787.15314 138.45093Q786.41876 138.45093 785.91876 137.77905Q785.41876 137.09155 785.41876 135.71655ZM787.16876 133.9978Q786.77814 133.9978 786.52814 134.40405Q786.29376 134.79468 786.29376 135.79468Q786.29376 136.8103 786.54376 137.20093Q786.79376 137.59155 787.1844 137.59155Q787.54376 137.59155 787.79376 137.20093Q788.04376 136.79468 788.04376 135.79468Q788.04376 134.79468 787.79376 134.40405Q787.54376 133.9978 787.16876 133.9978Z" fill-rule="nonzero"/><path stroke="#8a8a8a" stroke-width="1.0" stroke-linecap="butt" d="M789.45 122.57593L576.95 122.57593L545.31586 122.57593" fill-rule="nonzero"/><path fill="#616161" d="M547.31586 122.57593C547.31586 121.47136 546.4204 120.57593 545.31586 120.57593C544.2113 120.57593 543.31586 121.47136 543.31586 122.57593C543.31586 123.6805 544.2113 124.57593 545.31586 124.57593C546.4204 124.57593 547.31586 123.6805 547.31586 122.57593" fill-rule="nonzero"/></svg>