<svg version="1.1" viewBox="0.0 0.0 808.0 371.0" fill="none" stroke="none" stroke-linecap="square" stroke-miterlimit="10" width="808" height="371" xmlns:xlink="http://www.w3.org/1999/xlink" xmlns="http://www.w3.org/2000/svg"><path fill="#000000" d="M0 0L808.0 0L808.0 371.0L0 371.0L0 0Z" fill-rule="nonzero"/><path fill="#1d55b3" d="M338.7366 136.54668C354.57544 122.64381 378.5965 114.54625 404.0 114.54625L404.0 139.58875C378.5965 139.58875 354.57544 147.68631 338.7366 161.58919Z" fill-rule="nonzero"/><path fill="#2979ff" d="M273.47324 100.11462C305.15088 72.30886 353.193 56.11375 404.0 56.11375L404.0 114.54625C378.5965 114.54625 354.57544 122.64381 338.7366 136.54668Z" fill-rule="nonzero"/><path fill="#ac003d" d="M241.23578 224.02615C238.45406 215.49489 237.05 206.77191 237.05 198.02126L237.05 172.97874C237.05 181.72942 238.45406 190.4524 241.23578 198.98366Z" fill-rule="nonzero"/><path fill="#ac003d" d="M320.525 172.97874C320.525 159.7413 326.94604 146.89613 338.7366 136.54668L338.7366 161.58919C326.94604 171.93863 320.525 184.78381 320.525 198.02126Z" fill-rule="nonzero"/><path fill="#f50057" d="M241.23578 198.98366C229.93016 164.31044 241.7956 127.92037 273.47324 100.11462L338.7366 136.54668C322.8978 150.44955 316.9651 168.64459 322.6179 185.9812Z" fill-rule="nonzero"/><path fill="#53b302" d="M570.95 198.02126C570.95 257.50085 507.12906 307.49182 422.69247 314.15143C338.25586 320.81104 260.1436 282.0145 241.23578 224.02615L241.23578 198.98366C260.1436 256.972 338.25586 295.76852 422.69247 289.10892C507.12906 282.4493 570.95 232.45836 570.95 172.97874Z" fill-rule="nonzero"/><path fill="#53b302" d="M404.0 114.54625C450.10196 114.54625 487.475 140.70737 487.475 172.97874L487.475 198.02126C487.475 165.74988 450.10196 139.58875 404.0 139.58875Z" fill-rule="nonzero"/><path fill="#76ff03" d="M404.0 56.11375C491.36407 56.11375 563.95447 103.26157 570.48315 164.24542C577.0119 225.22926 515.2709 279.4238 428.8826 288.53845C342.49432 297.6531 260.67612 258.60522 241.23578 198.98366L322.6179 185.9812C332.33807 215.79199 373.24716 235.31593 416.4413 230.7586C459.63544 226.20128 490.50595 199.104 487.24158 168.61209C483.97723 138.12016 447.68204 114.54625 404.0 114.54625Z" fill-rule="nonzero"/><path fill="#ffffff" d="M22.534374 66.17036L23.378124 66.31098Q23.2375 67.42036 22.64375 68.01411Q22.05 68.59223 21.221874 68.59223Q20.221874 68.59223 19.565624 67.77973Q18.925 66.95161 18.925 65.32661Q18.925 63.71723 19.58125 62.90473Q20.2375 62.09223 21.26875 62.09223Q22.05 62.09223 22.596874 62.59223Q23.14375 63.076607 23.284374 64.06098L22.45625 64.21723Q22.33125 63.576607 22.01875 63.264107Q21.721874 62.951607 21.3 62.951607Q20.659374 62.951607 20.2375 63.52973Q19.815624 64.09223 19.815624 65.31098Q19.815624 66.59223 20.20625 67.15473Q20.6125 67.71723 21.253124 67.71723Q21.7375 67.71723 22.08125 67.34223Q22.440624 66.96723 22.534374 66.17036ZM24.159374 70.84223L24.065624 69.85786Q24.346874 69.95161 24.565624 69.95161Q24.83125 69.95161 25.003124 69.84223Q25.190624 69.73286 25.315624 69.49848Q25.346874 69.42036 25.64375 68.46723L23.70625 62.232857L24.64375 62.232857L25.70625 65.82661Q25.909374 66.49848 26.08125 67.27973Q26.221874 66.54536 26.425 65.85786L27.51875 62.232857L28.378124 62.232857L26.440624 68.56098Q26.065624 69.79536 25.846874 70.20161Q25.628124 70.60786 25.346874 70.79536Q25.065624 70.98286 24.721874 70.98286Q24.471874 70.98286 24.159374 70.84223ZM29.9875 68.45161L29.175 68.45161L29.175 59.857857L30.034374 59.857857L30.034374 62.920357Q30.315624 62.49848 30.659374 62.295357Q31.01875 62.09223 31.440624 62.09223Q32.034374 62.09223 32.51875 62.451607Q33.01875 62.795357 33.3 63.52973Q33.596874 64.24848 33.596874 65.29536Q33.596874 66.87348 32.940624 67.73286Q32.284374 68.59223 31.39375 68.59223Q30.940624 68.59223 30.58125 68.35786Q30.2375 68.12348 29.9875 67.67036L29.9875 68.45161ZM29.971874 65.29536Q29.971874 66.26411 30.14375 66.74848Q30.315624 67.21723 30.64375 67.46723Q30.971874 67.71723 31.3625 67.71723Q31.89375 67.71723 32.3 67.12348Q32.721874 66.52973 32.721874 65.32661Q32.721874 64.10786 32.315624 63.52973Q31.925 62.951607 31.346874 62.951607Q30.8 62.951607 30.378124 63.56098Q29.971874 64.15473 29.971874 65.29536ZM37.675 66.45161L38.565624 66.57661Q38.346874 67.57661 37.753124 68.09223Q37.175 68.59223 36.315624 68.59223Q35.2375 68.59223 34.565624 67.77973Q33.89375 66.95161 33.89375 65.38911Q33.89375 63.77973 34.565624 62.93598Q35.2375 62.09223 36.284374 62.09223Q37.26875 62.09223 37.925 62.920357Q38.596874 63.74848 38.596874 65.32661L38.596874 65.60786L34.784374 65.60786Q34.83125 66.65473 35.26875 67.18598Q35.70625 67.71723 36.315624 67.71723Q37.3 67.71723 37.675 66.45161ZM34.83125 64.74848L37.675 64.74848Q37.628124 63.93598 37.33125 63.52973Q36.925 62.951607 36.26875 62.951607Q35.690624 62.951607 35.284374 63.43598Q34.878124 63.920357 34.83125 64.74848ZM39.190624 68.45161L39.190624 62.232857L39.95625 62.232857L39.95625 63.170357Q40.26875 62.514107 40.503124 62.31098Q40.753124 62.09223 41.065624 62.09223Q41.503124 62.09223 41.95625 62.420357L41.659374 63.40473Q41.346874 63.170357 41.034374 63.170357Q40.753124 63.170357 40.51875 63.37348Q40.3 63.56098 40.20625 63.90473Q40.05 64.51411 40.05 65.18598L40.05 68.45161L39.190624 68.45161ZM42.096874 64.24848Q42.096874 63.607857 42.45625 63.18598Q42.815624 62.764107 43.315624 62.764107Q43.8 62.764107 44.159374 63.18598Q44.51875 63.607857 44.51875 64.24848Q44.51875 64.88911 44.14375 65.31098Q43.784374 65.73286 43.315624 65.73286Q42.815624 65.73286 42.45625 65.31098Q42.096874 64.88911 42.096874 64.24848ZM50.315624 65.43598L51.253124 65.73286Q50.940624 67.17036 50.159374 67.88911Q49.378124 68.59223 48.26875 68.59223Q47.3 68.59223 46.596874 68.12348Q45.909374 67.63911 45.45625 66.59223Q45.01875 65.52973 45.01875 64.09223Q45.01875 62.68598 45.45625 61.701607Q45.909374 60.71723 46.659374 60.21723Q47.409374 59.71723 48.346874 59.71723Q49.3625 59.71723 50.096874 60.357857Q50.83125 60.982857 51.128124 62.21723L50.20625 62.482857Q49.7375 60.68598 48.33125 60.68598Q47.628124 60.68598 47.1125 61.045357Q46.596874 61.40473 46.284374 62.170357Q45.9875 62.93598 45.9875 64.09223Q45.9875 65.85786 46.596874 66.74848Q47.221874 67.62348 48.253124 67.62348Q49.01875 67.62348 49.565624 67.09223Q50.128124 66.54536 50.315624 65.43598ZM51.8625 65.34223Q51.8625 63.732857 52.534374 62.920357Q53.221874 62.09223 54.253124 62.09223Q55.26875 62.09223 55.95625 62.920357Q56.64375 63.732857 56.64375 65.27973Q56.64375 66.95161 55.971874 67.77973Q55.3 68.59223 54.253124 68.59223Q53.221874 68.59223 52.534374 67.77973Q51.8625 66.95161 51.8625 65.34223ZM52.753124 65.34223Q52.753124 66.54536 53.190624 67.13911Q53.628124 67.71723 54.26875 67.71723Q54.878124 67.71723 55.315624 67.12348Q55.753124 66.52973 55.753124 65.34223Q55.753124 64.13911 55.315624 63.56098Q54.878124 62.96723 54.221874 62.96723Q53.6125 62.96723 53.175 63.56098Q52.753124 64.13911 52.753124 65.34223ZM57.190624 68.45161L57.190624 62.232857L57.95625 62.232857L57.95625 63.107857Q58.2375 62.59223 58.64375 62.34223Q59.065624 62.09223 59.58125 62.09223Q60.003124 62.09223 60.346874 62.24848Q60.690624 62.40473 60.909374 62.670357Q61.128124 62.93598 61.221874 63.357857Q61.33125 63.764107 61.33125 64.62348L61.33125 68.45161L60.471874 68.45161L60.471874 64.67036Q60.471874 63.982857 60.346874 63.670357Q60.2375 63.34223 59.9875 63.170357Q59.7375 62.99848 59.409374 62.99848Q58.784374 62.99848 58.409374 63.46723Q58.05 63.920357 58.05 65.04536L58.05 68.45161L57.190624 68.45161ZM62.01875 68.96723L62.8625 69.12348Q62.925 69.62348 63.20625 69.85786Q63.503124 70.10786 64.03438 70.10786Q64.59688 70.10786 64.925 69.82661Q65.26875 69.56098 65.39375 69.01411Q65.47188 68.68598 65.47188 67.63911Q65.19063 68.04536 64.83125 68.24848Q64.4875 68.45161 64.06563 68.45161Q63.14375 68.45161 62.534374 67.67036Q61.846874 66.77973 61.846874 65.29536Q61.846874 64.29536 62.14375 63.545357Q62.45625 62.795357 62.95625 62.451607Q63.45625 62.09223 64.06563 62.09223Q64.51875 62.09223 64.87813 62.31098Q65.25313 62.52973 65.55 62.982857L65.55 62.232857L66.34688 62.232857L66.34688 67.60786Q66.34688 69.04536 66.1125 69.65473Q65.87813 70.26411 65.34688 70.62348Q64.81563 70.98286 64.06563 70.98286Q63.065624 70.98286 62.534374 70.43598Q62.003124 69.90473 62.01875 68.96723ZM62.7375 65.23286Q62.7375 66.45161 63.14375 67.01411Q63.55 67.57661 64.12813 67.57661Q64.72188 67.57661 65.12813 67.02973Q65.53438 66.48286 65.53438 65.27973Q65.53438 64.10786 65.1125 63.545357Q64.69063 62.96723 64.09688 62.96723Q63.55 62.96723 63.14375 63.545357Q62.7375 64.10786 62.7375 65.23286ZM67.19063 68.45161L67.19063 62.232857L67.95625 62.232857L67.95625 63.170357Q68.26875 62.514107 68.50313 62.31098Q68.75313 62.09223 69.06563 62.09223Q69.50313 62.09223 69.95625 62.420357L69.65938 63.40473Q69.34688 63.170357 69.03438 63.170357Q68.75313 63.170357 68.51875 63.37348Q68.3 63.56098 68.20625 63.90473Q68.05 64.51411 68.05 65.18598L68.05 68.45161L67.19063 68.45161ZM73.675 66.45161L74.56563 66.57661Q74.34688 67.57661 73.75313 68.09223Q73.175 68.59223 72.31563 68.59223Q71.2375 68.59223 70.56563 67.77973Q69.89375 66.95161 69.89375 65.38911Q69.89375 63.77973 70.56563 62.93598Q71.2375 62.09223 72.28438 62.09223Q73.26875 62.09223 73.925 62.920357Q74.59688 63.74848 74.59688 65.32661L74.59688 65.60786L70.78438 65.60786Q70.83125 66.65473 71.26875 67.18598Q71.70625 67.71723 72.31563 67.71723Q73.3 67.71723 73.675 66.45161ZM70.83125 64.74848L73.675 64.74848Q73.62813 63.93598 73.33125 63.52973Q72.925 62.951607 72.26875 62.951607Q71.69063 62.951607 71.28438 63.43598Q70.87813 63.920357 70.83125 64.74848ZM74.8625 66.59223L75.70625 66.43598Q75.78438 67.09223 76.12813 67.40473Q76.47188 67.71723 77.03438 67.71723Q77.59688 67.71723 77.89375 67.45161Q78.20625 67.17036 78.20625 66.73286Q78.20625 66.37348 77.94063 66.17036Q77.76875 66.02973 77.06563 65.81098Q76.05 65.49848 75.70625 65.29536Q75.37813 65.07661 75.19063 64.71723Q75.00313 64.34223 75.00313 63.87348Q75.00313 63.076607 75.50313 62.59223Q76.01875 62.09223 76.925 62.09223Q77.4875 62.09223 77.90938 62.295357Q78.34688 62.49848 78.58125 62.84223Q78.81563 63.18598 78.89375 63.826607L78.05 63.96723Q77.94063 62.951607 76.94063 62.951607Q76.37813 62.951607 76.09688 63.18598Q75.83125 63.40473 75.83125 63.764107Q75.83125 64.10786 76.09688 64.29536Q76.25313 64.42036 77.03438 64.67036Q78.1125 65.02973 78.425 65.23286Q78.7375 65.42036 78.90938 65.77973Q79.09688 66.12348 79.09688 66.60786Q79.09688 67.49848 78.51875 68.04536Q77.95625 68.59223 76.9875 68.59223Q75.14375 68.59223 74.8625 66.59223ZM79.8625 66.59223L80.70625 66.43598Q80.78438 67.09223 81.12813 67.40473Q81.47188 67.71723 82.03438 67.71723Q82.59688 67.71723 82.89375 67.45161Q83.20625 67.17036 83.20625 66.73286Q83.20625 66.37348 82.94063 66.17036Q82.76875 66.02973 82.06563 65.81098Q81.05 65.49848 80.70625 65.29536Q80.37813 65.07661 80.19063 64.71723Q80.00313 64.34223 80.00313 63.87348Q80.00313 63.076607 80.50313 62.59223Q81.01875 62.09223 81.925 62.09223Q82.4875 62.09223 82.90938 62.295357Q83.34688 62.49848 83.58125 62.84223Q83.81563 63.18598 83.89375 63.826607L83.05 63.96723Q82.94063 62.951607 81.94063 62.951607Q81.37813 62.951607 81.09688 63.18598Q80.83125 63.40473 80.83125 63.764107Q80.83125 64.10786 81.09688 64.29536Q81.25313 64.42036 82.03438 64.67036Q83.1125 65.02973 83.425 65.23286Q83.7375 65.42036 83.90938 65.77973Q84.09688 66.12348 84.09688 66.60786Q84.09688 67.49848 83.51875 68.04536Q82.95625 68.59223 81.9875 68.59223Q80.14375 68.59223 79.8625 66.59223ZM91.53438 66.17036L92.37813 66.31098Q92.2375 67.42036 91.64375 68.01411Q91.05 68.59223 90.22188 68.59223Q89.22188 68.59223 88.56563 67.77973Q87.925 66.95161 87.925 65.32661Q87.925 63.71723 88.58125 62.90473Q89.2375 62.09223 90.26875 62.09223Q91.05 62.09223 91.59688 62.59223Q92.14375 63.076607 92.28438 64.06098L91.45625 64.21723Q91.33125 63.576607 91.01875 63.264107Q90.72188 62.951607 90.3 62.951607Q89.65938 62.951607 89.2375 63.52973Q88.81563 64.09223 88.81563 65.31098Q88.81563 66.59223 89.20625 67.15473Q89.6125 67.71723 90.25313 67.71723Q90.7375 67.71723 91.08125 67.34223Q91.44063 66.96723 91.53438 66.17036ZM92.8625 65.34223Q92.8625 63.732857 93.53438 62.920357Q94.22188 62.09223 95.25313 62.09223Q96.26875 62.09223 96.95625 62.920357Q97.64375 63.732857 97.64375 65.27973Q97.64375 66.95161 96.97188 67.77973Q96.3 68.59223 95.25313 68.59223Q94.22188 68.59223 93.53438 67.77973Q92.8625 66.95161 92.8625 65.34223ZM93.75313 65.34223Q93.75313 66.54536 94.19063 67.13911Q94.62813 67.71723 95.26875 67.71723Q95.87813 67.71723 96.31563 67.12348Q96.75313 66.52973 96.75313 65.34223Q96.75313 64.13911 96.31563 63.56098Q95.87813 62.96723 95.22188 62.96723Q94.6125 62.96723 94.175 63.56098Q93.75313 64.13911 93.75313 65.34223ZM98.19063 68.45161L98.19063 62.232857L98.95625 62.232857L98.95625 63.107857Q99.2375 62.59223 99.64375 62.34223Q100.06563 62.09223 100.58125 62.09223Q101.00313 62.09223 101.34688 62.24848Q101.69063 62.40473 101.90938 62.670357Q102.12813 62.93598 102.22188 63.357857Q102.33125 63.764107 102.33125 64.62348L102.33125 68.45161L101.47188 68.45161L101.47188 64.67036Q101.47188 63.982857 101.34688 63.670357Q101.2375 63.34223 100.9875 63.170357Q100.7375 62.99848 100.40938 62.99848Q99.78438 62.99848 99.40938 63.46723Q99.05 63.920357 99.05 65.04536L99.05 68.45161L98.19063 68.45161ZM105.1125 67.51411L105.22188 68.43598Q104.87813 68.52973 104.58125 68.52973Q104.12813 68.52973 103.84688 68.35786Q103.58125 68.17036 103.47188 67.87348Q103.37813 67.56098 103.37813 66.62348L103.37813 63.045357L102.7375 63.045357L102.7375 62.232857L103.37813 62.232857L103.37813 60.68598L104.2375 60.06098L104.2375 62.232857L105.1125 62.232857L105.1125 63.045357L104.2375 63.045357L104.2375 66.68598Q104.2375 67.18598 104.31563 67.34223Q104.425 67.54536 104.7375 67.54536Q104.87813 67.54536 105.1125 67.51411ZM106.19063 68.45161L106.19063 62.232857L106.95625 62.232857L106.95625 63.170357Q107.26875 62.514107 107.50313 62.31098Q107.75313 62.09223 108.06563 62.09223Q108.50313 62.09223 108.95625 62.420357L108.65938 63.40473Q108.34688 63.170357 108.03438 63.170357Q107.75313 63.170357 107.51875 63.37348Q107.3 63.56098 107.20625 63.90473Q107.05 64.51411 107.05 65.18598L107.05 68.45161L106.19063 68.45161ZM112.51875 67.68598Q112.08125 68.13911 111.6125 68.37348Q111.14375 68.59223 110.64375 68.59223Q109.84688 68.59223 109.3625 68.10786Q108.89375 67.62348 108.89375 66.81098Q108.89375 66.27973 109.1125 65.87348Q109.33125 65.45161 109.72188 65.21723Q110.1125 64.98286 110.89375 64.85786Q111.95625 64.71723 112.44063 64.49848L112.44063 64.23286Q112.44063 63.59223 112.22188 63.34223Q111.89375 62.96723 111.22188 62.96723Q110.62813 62.96723 110.33125 63.21723Q110.03438 63.451607 109.89375 64.13911L109.03438 63.99848Q109.22188 62.99848 109.76875 62.545357Q110.33125 62.09223 111.3625 62.09223Q112.15938 62.09223 112.6125 62.389107Q113.08125 62.68598 113.19063 63.139107Q113.31563 63.576607 113.31563 64.43598L113.31563 65.84223Q113.31563 67.32661 113.3625 67.71723Q113.425 68.09223 113.59688 68.45161L112.69063 68.45161Q112.55 68.12348 112.51875 67.68598ZM112.44063 65.32661Q111.97188 65.56098 111.03438 65.73286Q110.4875 65.82661 110.26875 65.95161Q110.05 66.06098 109.925 66.27973Q109.81563 66.49848 109.81563 66.77973Q109.81563 67.23286 110.08125 67.49848Q110.3625 67.76411 110.84688 67.76411Q111.31563 67.76411 111.69063 67.52973Q112.06563 67.27973 112.25313 66.88911Q112.44063 66.48286 112.44063 65.71723L112.44063 65.32661ZM117.53438 66.17036L118.37813 66.31098Q118.2375 67.42036 117.64375 68.01411Q117.05 68.59223 116.22188 68.59223Q115.22188 68.59223 114.56563 67.77973Q113.925 66.95161 113.925 65.32661Q113.925 63.71723 114.58125 62.90473Q115.2375 62.09223 116.26875 62.09223Q117.05 62.09223 117.59688 62.59223Q118.14375 63.076607 118.28438 64.06098L117.45625 64.21723Q117.33125 63.576607 117.01875 63.264107Q116.72188 62.951607 116.3 62.951607Q115.65938 62.951607 115.2375 63.52973Q114.81563 64.09223 114.81563 65.31098Q114.81563 66.59223 115.20625 67.15473Q115.6125 67.71723 116.25313 67.71723Q116.7375 67.71723 117.08125 67.34223Q117.44063 66.96723 117.53438 66.17036ZM121.1125 67.51411L121.22188 68.43598Q120.87813 68.52973 120.58125 68.52973Q120.12813 68.52973 119.84688 68.35786Q119.58125 68.17036 119.47188 67.87348Q119.37813 67.56098 119.37813 66.62348L119.37813 63.045357L118.7375 63.045357L118.7375 62.232857L119.37813 62.232857L119.37813 60.68598L120.2375 60.06098L120.2375 62.232857L121.1125 62.232857L121.1125 63.045357L120.2375 63.045357L120.2375 66.68598Q120.2375 67.18598 120.31563 67.34223Q120.425 67.54536 120.7375 67.54536Q120.87813 67.54536 121.1125 67.51411Z" fill-rule="nonzero"/><path fill="#616161" d="M22.20625 86.45161L21.33125 86.45161L21.33125 79.73286Q21.034374 80.07661 20.534374 80.45161Q20.034374 80.81098 19.6125 80.99848L19.6125 79.98286Q20.315624 79.57661 20.8625 78.98286Q21.409374 78.38911 21.64375 77.82661L22.20625 77.82661L22.20625 86.45161ZM26.721874 86.45161L26.721874 84.38911L23.659374 84.38911L23.659374 83.42036L26.878124 77.85786L27.58125 77.85786L27.58125 83.42036L28.534374 83.42036L28.534374 84.38911L27.58125 84.38911L27.58125 86.45161L26.721874 86.45161ZM26.721874 83.42036L26.721874 79.56098L24.51875 83.42036L26.721874 83.42036ZM29.45625 86.45161L29.45625 85.24848L30.440624 85.24848L30.440624 86.45161L29.45625 86.45161ZM31.95625 84.18598L32.815624 84.04536Q33.08125 85.73286 34.175 85.73286Q34.76875 85.73286 35.20625 85.23286Q35.64375 84.73286 35.64375 83.93598Q35.64375 83.18598 35.2375 82.73286Q34.846874 82.26411 34.26875 82.26411Q34.01875 82.26411 33.659374 82.38911L33.753124 81.45161L33.89375 81.46723Q34.534374 81.46723 34.925 81.07661Q35.33125 80.68598 35.33125 80.02973Q35.33125 79.42036 34.9875 79.06098Q34.659374 78.68598 34.175 78.68598Q33.675 78.68598 33.33125 79.07661Q32.9875 79.46723 32.89375 80.23286L32.034374 80.04536Q32.20625 78.95161 32.76875 78.38911Q33.346874 77.82661 34.159374 77.82661Q35.01875 77.82661 35.6125 78.46723Q36.221874 79.09223 36.221874 80.04536Q36.221874 80.63911 35.95625 81.09223Q35.70625 81.54536 35.253124 81.79536Q35.675 81.92036 35.940624 82.18598Q36.221874 82.45161 36.39375 82.90473Q36.565624 83.35786 36.565624 83.92036Q36.565624 85.09223 35.8625 85.85786Q35.159374 86.60786 34.190624 86.60786Q33.284374 86.60786 32.659374 85.95161Q32.034374 85.29536 31.95625 84.18598ZM37.096874 79.92036Q37.096874 78.85786 37.51875 78.29536Q37.95625 77.71723 38.58125 77.71723Q39.221874 77.71723 39.659374 78.29536Q40.1125 78.85786 40.1125 79.98286Q40.1125 81.09223 39.659374 81.67036Q39.221874 82.24848 38.596874 82.24848Q37.971874 82.24848 37.534374 81.68598Q37.096874 81.10786 37.096874 79.92036ZM38.6125 78.43598Q38.284374 78.43598 38.065624 78.77973Q37.8625 79.12348 37.8625 79.98286Q37.8625 80.84223 38.065624 81.18598Q38.284374 81.52973 38.628124 81.52973Q38.940624 81.52973 39.14375 81.18598Q39.3625 80.84223 39.3625 79.98286Q39.3625 79.13911 39.14375 78.79536Q38.925 78.43598 38.6125 78.43598ZM38.6125 86.76411L42.45625 77.71723L43.159374 77.71723L39.33125 86.76411L38.6125 86.76411ZM41.659374 84.43598Q41.659374 83.35786 42.08125 82.79536Q42.51875 82.23286 43.128124 82.23286Q43.784374 82.23286 44.221874 82.79536Q44.675 83.35786 44.675 84.48286Q44.675 85.60786 44.221874 86.18598Q43.76875 86.76411 43.14375 86.76411Q42.534374 86.76411 42.096874 86.18598Q41.659374 85.60786 41.659374 84.43598ZM43.159374 82.95161Q42.83125 82.95161 42.6125 83.29536Q42.409374 83.63911 42.409374 84.49848Q42.409374 85.35786 42.628124 85.70161Q42.846874 86.04536 43.190624 86.04536Q43.4875 86.04536 43.690624 85.70161Q43.909374 85.34223 43.909374 84.49848Q43.909374 83.63911 43.690624 83.29536Q43.4875 82.95161 43.159374 82.95161Z" fill-rule="nonzero"/><path stroke="#8a8a8a" stroke-width="1.0" stroke-linecap="butt" d="M18.55 72.95161L231.05 72.95161L335.18497 72.95161" fill-rule="nonzero"/><path fill="#616161" d="M337.18497 72.95161C337.18497 71.84704 336.28952 70.95161 335.18497 70.95161C334.08038 70.95161 333.18497 71.84704 333.18497 72.95161C333.18497 74.05618 334.08038 74.95161 335.18497 74.95161C336.28952 74.95161 337.18497 74.05618 337.18497 72.95161" fill-rule="nonzero"/><path fill="#ffffff" d="M22.628124 140.3991L22.628124 139.3991L25.6125 139.38347L25.6125 142.57097Q24.925 143.24284 24.190624 143.5866Q23.45625 143.91472 22.690624 143.91472Q21.659374 143.91472 20.846874 143.3991Q20.034374 142.88347 19.565624 141.8991Q19.096874 140.91472 19.096874 139.5241Q19.096874 138.11784 19.565624 137.07097Q20.05 136.0241 20.815624 135.53972Q21.58125 135.03972 22.628124 135.03972Q23.409374 135.03972 23.9875 135.3366Q24.565624 135.61784 24.940624 136.1491Q25.315624 136.66472 25.503124 137.5866L24.659374 137.86784Q24.4875 137.13347 24.221874 136.7741Q23.971874 136.41472 23.55 136.2116Q23.128124 136.00847 22.6125 136.00847Q21.83125 136.00847 21.284374 136.38347Q20.7375 136.75847 20.39375 137.53972Q20.05 138.32097 20.05 139.4616Q20.05 141.18034 20.76875 142.03972Q21.503124 142.8991 22.659374 142.8991Q23.20625 142.8991 23.784374 142.63347Q24.3625 142.36784 24.690624 142.00847L24.690624 140.3991L22.628124 140.3991ZM30.51875 143.00847Q30.08125 143.4616 29.6125 143.69597Q29.14375 143.91472 28.64375 143.91472Q27.846874 143.91472 27.3625 143.43034Q26.89375 142.94597 26.89375 142.13347Q26.89375 141.60222 27.1125 141.19597Q27.33125 140.7741 27.721874 140.53972Q28.1125 140.30534 28.89375 140.18034Q29.95625 140.03972 30.440624 139.82097L30.440624 139.55534Q30.440624 138.91472 30.221874 138.66472Q29.89375 138.28972 29.221874 138.28972Q28.628124 138.28972 28.33125 138.53972Q28.034374 138.7741 27.89375 139.4616L27.034374 139.32097Q27.221874 138.32097 27.76875 137.86784Q28.33125 137.41472 29.3625 137.41472Q30.159374 137.41472 30.6125 137.7116Q31.08125 138.00847 31.190624 138.4616Q31.315624 138.8991 31.315624 139.75847L31.315624 141.16472Q31.315624 142.6491 31.3625 143.03972Q31.425 143.41472 31.596874 143.7741L30.690624 143.7741Q30.55 143.44597 30.51875 143.00847ZM30.440624 140.6491Q29.971874 140.88347 29.034374 141.05534Q28.4875 141.1491 28.26875 141.2741Q28.05 141.38347 27.925 141.60222Q27.815624 141.82097 27.815624 142.10222Q27.815624 142.55534 28.08125 142.82097Q28.3625 143.0866 28.846874 143.0866Q29.315624 143.0866 29.690624 142.85222Q30.065624 142.60222 30.253124 142.2116Q30.440624 141.80534 30.440624 141.03972L30.440624 140.6491ZM32.190624 143.7741L32.190624 137.55534L32.971874 137.55534L32.971874 138.43034Q33.221874 137.93034 33.628124 137.68034Q34.034374 137.41472 34.51875 137.41472Q35.05 137.41472 35.425 137.69597Q35.8 137.9616 35.95625 138.49284Q36.26875 137.9616 36.659374 137.69597Q37.05 137.41472 37.534374 137.41472Q38.26875 137.41472 38.690624 137.91472Q39.1125 138.3991 39.1125 139.50847L39.1125 143.7741L38.253124 143.7741L38.253124 139.85222Q38.253124 139.18034 38.14375 138.91472Q38.05 138.63347 37.83125 138.47722Q37.628124 138.32097 37.346874 138.32097Q36.8 138.32097 36.440624 138.7741Q36.096874 139.2116 36.096874 140.16472L36.096874 143.7741L35.221874 143.7741L35.221874 139.72722Q35.221874 138.9616 34.9875 138.6491Q34.753124 138.32097 34.33125 138.32097Q33.7375 138.32097 33.39375 138.80534Q33.05 139.2741 33.05 140.53972L33.05 143.7741L32.190624 143.7741ZM43.675 141.7741L44.565624 141.8991Q44.346874 142.8991 43.753124 143.41472Q43.175 143.91472 42.315624 143.91472Q41.2375 143.91472 40.565624 143.10222Q39.89375 142.2741 39.89375 140.7116Q39.89375 139.10222 40.565624 138.25847Q41.2375 137.41472 42.284374 137.41472Q43.26875 137.41472 43.925 138.24284Q44.596874 139.07097 44.596874 140.6491L44.596874 140.93034L40.784374 140.93034Q40.83125 141.97722 41.26875 142.50847Q41.70625 143.03972 42.315624 143.03972Q43.3 143.03972 43.675 141.7741ZM40.83125 140.07097L43.675 140.07097Q43.628124 139.25847 43.33125 138.85222Q42.925 138.2741 42.26875 138.2741Q41.690624 138.2741 41.284374 138.75847Q40.878124 139.24284 40.83125 140.07097ZM47.8625 140.66472Q47.8625 139.05534 48.534374 138.24284Q49.221874 137.41472 50.253124 137.41472Q51.26875 137.41472 51.95625 138.24284Q52.64375 139.05534 52.64375 140.60222Q52.64375 142.2741 51.971874 143.10222Q51.3 143.91472 50.253124 143.91472Q49.221874 143.91472 48.534374 143.10222Q47.8625 142.2741 47.8625 140.66472ZM48.753124 140.66472Q48.753124 141.86784 49.190624 142.4616Q49.628124 143.03972 50.26875 143.03972Q50.878124 143.03972 51.315624 142.44597Q51.753124 141.85222 51.753124 140.66472Q51.753124 139.4616 51.315624 138.88347Q50.878124 138.28972 50.221874 138.28972Q49.6125 138.28972 49.175 138.88347Q48.753124 139.4616 48.753124 140.66472ZM53.425 143.7741L53.425 138.36784L52.659374 138.36784L52.659374 137.55534L53.425 137.55534L53.425 136.88347Q53.425 136.1491 53.58125 135.78972Q53.7375 135.43034 54.05 135.24284Q54.3625 135.03972 54.83125 135.03972Q55.20625 135.03972 55.64375 135.1491L55.51875 136.05534Q55.253124 136.00847 55.003124 136.00847Q54.6125 136.00847 54.440624 136.2116Q54.284374 136.41472 54.284374 136.97722L54.284374 137.55534L55.284374 137.55534L55.284374 138.36784L54.284374 138.36784L54.284374 143.7741L53.425 143.7741ZM61.1125 143.7741L61.1125 136.19597L58.8 136.19597L58.8 135.18034L64.37813 135.18034L64.37813 136.19597L62.05 136.19597L62.05 143.7741L61.1125 143.7741ZM65.19063 143.7741L65.19063 135.18034L66.05 135.18034L66.05 138.25847Q66.34688 137.8366 66.72188 137.63347Q67.1125 137.41472 67.58125 137.41472Q68.39375 137.41472 68.8625 137.93034Q69.33125 138.44597 69.33125 139.8366L69.33125 143.7741L68.47188 143.7741L68.47188 139.8366Q68.47188 139.0241 68.19063 138.68034Q67.90938 138.32097 67.39375 138.32097Q66.83125 138.32097 66.44063 138.7741Q66.05 139.22722 66.05 140.36784L66.05 143.7741L65.19063 143.7741ZM70.19063 143.7741L70.19063 137.55534L70.95625 137.55534L70.95625 138.49284Q71.26875 137.8366 71.50313 137.63347Q71.75313 137.41472 72.06563 137.41472Q72.50313 137.41472 72.95625 137.74284L72.65938 138.72722Q72.34688 138.49284 72.03438 138.49284Q71.75313 138.49284 71.51875 138.69597Q71.3 138.88347 71.20625 139.22722Q71.05 139.8366 71.05 140.50847L71.05 143.7741L70.19063 143.7741ZM72.8625 140.66472Q72.8625 139.05534 73.53438 138.24284Q74.22188 137.41472 75.25313 137.41472Q76.26875 137.41472 76.95625 138.24284Q77.64375 139.05534 77.64375 140.60222Q77.64375 142.2741 76.97188 143.10222Q76.3 143.91472 75.25313 143.91472Q74.22188 143.91472 73.53438 143.10222Q72.8625 142.2741 72.8625 140.66472ZM73.75313 140.66472Q73.75313 141.86784 74.19063 142.4616Q74.62813 143.03972 75.26875 143.03972Q75.87813 143.03972 76.31563 142.44597Q76.75313 141.85222 76.75313 140.66472Q76.75313 139.4616 76.31563 138.88347Q75.87813 138.28972 75.22188 138.28972Q74.6125 138.28972 74.175 138.88347Q73.75313 139.4616 73.75313 140.66472ZM78.19063 143.7741L78.19063 137.55534L78.95625 137.55534L78.95625 138.43034Q79.2375 137.91472 79.64375 137.66472Q80.06563 137.41472 80.58125 137.41472Q81.00313 137.41472 81.34688 137.57097Q81.69063 137.72722 81.90938 137.99284Q82.12813 138.25847 82.22188 138.68034Q82.33125 139.0866 82.33125 139.94597L82.33125 143.7741L81.47188 143.7741L81.47188 139.99284Q81.47188 139.30534 81.34688 138.99284Q81.2375 138.66472 80.9875 138.49284Q80.7375 138.32097 80.40938 138.32097Q79.78438 138.32097 79.40938 138.78972Q79.05 139.24284 79.05 140.36784L79.05 143.7741L78.19063 143.7741ZM86.675 141.7741L87.56563 141.8991Q87.34688 142.8991 86.75313 143.41472Q86.175 143.91472 85.31563 143.91472Q84.2375 143.91472 83.56563 143.10222Q82.89375 142.2741 82.89375 140.7116Q82.89375 139.10222 83.56563 138.25847Q84.2375 137.41472 85.28438 137.41472Q86.26875 137.41472 86.925 138.24284Q87.59688 139.07097 87.59688 140.6491L87.59688 140.93034L83.78438 140.93034Q83.83125 141.97722 84.26875 142.50847Q84.70625 143.03972 85.31563 143.03972Q86.3 143.03972 86.675 141.7741ZM83.83125 140.07097L86.675 140.07097Q86.62813 139.25847 86.33125 138.85222Q85.925 138.2741 85.26875 138.2741Q84.69063 138.2741 84.28438 138.75847Q83.87813 139.24284 83.83125 140.07097ZM87.8625 141.91472L88.70625 141.75847Q88.78438 142.41472 89.12813 142.72722Q89.47188 143.03972 90.03438 143.03972Q90.59688 143.03972 90.89375 142.7741Q91.20625 142.49284 91.20625 142.05534Q91.20625 141.69597 90.94063 141.49284Q90.76875 141.35222 90.06563 141.13347Q89.05 140.82097 88.70625 140.61784Q88.37813 140.3991 88.19063 140.03972Q88.00313 139.66472 88.00313 139.19597Q88.00313 138.3991 88.50313 137.91472Q89.01875 137.41472 89.925 137.41472Q90.4875 137.41472 90.90938 137.61784Q91.34688 137.82097 91.58125 138.16472Q91.81563 138.50847 91.89375 139.1491L91.05 139.28972Q90.94063 138.2741 89.94063 138.2741Q89.37813 138.2741 89.09688 138.50847Q88.83125 138.72722 88.83125 139.0866Q88.83125 139.43034 89.09688 139.61784Q89.25313 139.74284 90.03438 139.99284Q91.1125 140.35222 91.425 140.55534Q91.7375 140.74284 91.90938 141.10222Q92.09688 141.44597 92.09688 141.93034Q92.09688 142.82097 91.51875 143.36784Q90.95625 143.91472 89.9875 143.91472Q88.14375 143.91472 87.8625 141.91472ZM99.53438 141.49284L100.37813 141.63347Q100.2375 142.74284 99.64375 143.3366Q99.05 143.91472 98.22188 143.91472Q97.22188 143.91472 96.56563 143.10222Q95.925 142.2741 95.925 140.6491Q95.925 139.03972 96.58125 138.22722Q97.2375 137.41472 98.26875 137.41472Q99.05 137.41472 99.59688 137.91472Q100.14375 138.3991 100.28438 139.38347L99.45625 139.53972Q99.33125 138.8991 99.01875 138.5866Q98.72188 138.2741 98.3 138.2741Q97.65938 138.2741 97.2375 138.85222Q96.81563 139.41472 96.81563 140.63347Q96.81563 141.91472 97.20625 142.47722Q97.6125 143.03972 98.25313 143.03972Q98.7375 143.03972 99.08125 142.66472Q99.44063 142.28972 99.53438 141.49284ZM100.8625 140.66472Q100.8625 139.05534 101.53438 138.24284Q102.22188 137.41472 103.25313 137.41472Q104.26875 137.41472 104.95625 138.24284Q105.64375 139.05534 105.64375 140.60222Q105.64375 142.2741 104.97188 143.10222Q104.3 143.91472 103.25313 143.91472Q102.22188 143.91472 101.53438 143.10222Q100.8625 142.2741 100.8625 140.66472ZM101.75313 140.66472Q101.75313 141.86784 102.19063 142.4616Q102.62813 143.03972 103.26875 143.03972Q103.87813 143.03972 104.31563 142.44597Q104.75313 141.85222 104.75313 140.66472Q104.75313 139.4616 104.31563 138.88347Q103.87813 138.28972 103.22188 138.28972Q102.6125 138.28972 102.175 138.88347Q101.75313 139.4616 101.75313 140.66472ZM106.19063 143.7741L106.19063 137.55534L106.95625 137.55534L106.95625 138.43034Q107.2375 137.91472 107.64375 137.66472Q108.06563 137.41472 108.58125 137.41472Q109.00313 137.41472 109.34688 137.57097Q109.69063 137.72722 109.90938 137.99284Q110.12813 138.25847 110.22188 138.68034Q110.33125 139.0866 110.33125 139.94597L110.33125 143.7741L109.47188 143.7741L109.47188 139.99284Q109.47188 139.30534 109.34688 138.99284Q109.2375 138.66472 108.9875 138.49284Q108.7375 138.32097 108.40938 138.32097Q107.78438 138.32097 107.40938 138.78972Q107.05 139.24284 107.05 140.36784L107.05 143.7741L106.19063 143.7741ZM113.1125 142.8366L113.22188 143.75847Q112.87813 143.85222 112.58125 143.85222Q112.12813 143.85222 111.84688 143.68034Q111.58125 143.49284 111.47188 143.19597Q111.37813 142.88347 111.37813 141.94597L111.37813 138.36784L110.7375 138.36784L110.7375 137.55534L111.37813 137.55534L111.37813 136.00847L112.2375 135.38347L112.2375 137.55534L113.1125 137.55534L113.1125 138.36784L112.2375 138.36784L112.2375 142.00847Q112.2375 142.50847 112.31563 142.66472Q112.425 142.86784 112.7375 142.86784Q112.87813 142.86784 113.1125 142.8366ZM114.19063 143.7741L114.19063 137.55534L114.95625 137.55534L114.95625 138.49284Q115.26875 137.8366 115.50313 137.63347Q115.75313 137.41472 116.06563 137.41472Q116.50313 137.41472 116.95625 137.74284L116.65938 138.72722Q116.34688 138.49284 116.03438 138.49284Q115.75313 138.49284 115.51875 138.69597Q115.3 138.88347 115.20625 139.22722Q115.05 139.8366 115.05 140.50847L115.05 143.7741L114.19063 143.7741ZM120.51875 143.00847Q120.08125 143.4616 119.6125 143.69597Q119.14375 143.91472 118.64375 143.91472Q117.84688 143.91472 117.3625 143.43034Q116.89375 142.94597 116.89375 142.13347Q116.89375 141.60222 117.1125 141.19597Q117.33125 140.7741 117.72188 140.53972Q118.1125 140.30534 118.89375 140.18034Q119.95625 140.03972 120.44063 139.82097L120.44063 139.55534Q120.44063 138.91472 120.22188 138.66472Q119.89375 138.28972 119.22188 138.28972Q118.62813 138.28972 118.33125 138.53972Q118.03438 138.7741 117.89375 139.4616L117.03438 139.32097Q117.22188 138.32097 117.76875 137.86784Q118.33125 137.41472 119.3625 137.41472Q120.15938 137.41472 120.6125 137.7116Q121.08125 138.00847 121.19063 138.4616Q121.31563 138.8991 121.31563 139.75847L121.31563 141.16472Q121.31563 142.6491 121.3625 143.03972Q121.425 143.41472 121.59688 143.7741L120.69063 143.7741Q120.55 143.44597 120.51875 143.00847ZM120.44063 140.6491Q119.97188 140.88347 119.03438 141.05534Q118.4875 141.1491 118.26875 141.2741Q118.05 141.38347 117.925 141.60222Q117.81563 141.82097 117.81563 142.10222Q117.81563 142.55534 118.08125 142.82097Q118.3625 143.0866 118.84688 143.0866Q119.31563 143.0866 119.69063 142.85222Q120.06563 142.60222 120.25313 142.2116Q120.44063 141.80534 120.44063 141.03972L120.44063 140.6491ZM125.53438 141.49284L126.37813 141.63347Q126.2375 142.74284 125.64375 143.3366Q125.05 143.91472 124.22188 143.91472Q123.22188 143.91472 122.56563 143.10222Q121.925 142.2741 121.925 140.6491Q121.925 139.03972 122.58125 138.22722Q123.2375 137.41472 124.26875 137.41472Q125.05 137.41472 125.59688 137.91472Q126.14375 138.3991 126.28438 139.38347L125.45625 139.53972Q125.33125 138.8991 125.01875 138.5866Q124.72188 138.2741 124.3 138.2741Q123.65938 138.2741 123.2375 138.85222Q122.81563 139.41472 122.81563 140.63347Q122.81563 141.91472 123.20625 142.47722Q123.6125 143.03972 124.25313 143.03972Q124.7375 143.03972 125.08125 142.66472Q125.44063 142.28972 125.53438 141.49284ZM129.1125 142.8366L129.22188 143.75847Q128.87813 143.85222 128.58125 143.85222Q128.12813 143.85222 127.84688 143.68034Q127.58125 143.49284 127.47188 143.19597Q127.37813 142.88347 127.37813 141.94597L127.37813 138.36784L126.7375 138.36784L126.7375 137.55534L127.37813 137.55534L127.37813 136.00847L128.2375 135.38347L128.2375 137.55534L129.1125 137.55534L129.1125 138.36784L128.2375 138.36784L128.2375 142.00847Q128.2375 142.50847 128.31563 142.66472Q128.425 142.86784 128.7375 142.86784Q128.87813 142.86784 129.1125 142.8366Z" fill-rule="nonzero"/><path fill="#616161" d="M22.20625 161.7741L21.33125 161.7741L21.33125 155.05534Q21.034374 155.3991 20.534374 155.7741Q20.034374 156.13347 19.6125 156.32097L19.6125 155.30534Q20.315624 154.8991 20.8625 154.30534Q21.409374 153.7116 21.64375 153.1491L22.20625 153.1491L22.20625 161.7741ZM26.721874 161.7741L26.721874 159.7116L23.659374 159.7116L23.659374 158.74284L26.878124 153.18034L27.58125 153.18034L27.58125 158.74284L28.534374 158.74284L28.534374 159.7116L27.58125 159.7116L27.58125 161.7741L26.721874 161.7741ZM26.721874 158.74284L26.721874 154.88347L24.51875 158.74284L26.721874 158.74284ZM29.45625 161.7741L29.45625 160.57097L30.440624 160.57097L30.440624 161.7741L29.45625 161.7741ZM31.95625 159.50847L32.815624 159.36784Q33.08125 161.05534 34.175 161.05534Q34.76875 161.05534 35.20625 160.55534Q35.64375 160.05534 35.64375 159.25847Q35.64375 158.50847 35.2375 158.05534Q34.846874 157.5866 34.26875 157.5866Q34.01875 157.5866 33.659374 157.7116L33.753124 156.7741L33.89375 156.78972Q34.534374 156.78972 34.925 156.3991Q35.33125 156.00847 35.33125 155.35222Q35.33125 154.74284 34.9875 154.38347Q34.659374 154.00847 34.175 154.00847Q33.675 154.00847 33.33125 154.3991Q32.9875 154.78972 32.89375 155.55534L32.034374 155.36784Q32.20625 154.2741 32.76875 153.7116Q33.346874 153.1491 34.159374 153.1491Q35.01875 153.1491 35.6125 153.78972Q36.221874 154.41472 36.221874 155.36784Q36.221874 155.9616 35.95625 156.41472Q35.70625 156.86784 35.253124 157.11784Q35.675 157.24284 35.940624 157.50847Q36.221874 157.7741 36.39375 158.22722Q36.565624 158.68034 36.565624 159.24284Q36.565624 160.41472 35.8625 161.18034Q35.159374 161.93034 34.190624 161.93034Q33.284374 161.93034 32.659374 161.2741Q32.034374 160.61784 31.95625 159.50847ZM37.096874 155.24284Q37.096874 154.18034 37.51875 153.61784Q37.95625 153.03972 38.58125 153.03972Q39.221874 153.03972 39.659374 153.61784Q40.1125 154.18034 40.1125 155.30534Q40.1125 156.41472 39.659374 156.99284Q39.221874 157.57097 38.596874 157.57097Q37.971874 157.57097 37.534374 157.00847Q37.096874 156.43034 37.096874 155.24284ZM38.6125 153.75847Q38.284374 153.75847 38.065624 154.10222Q37.8625 154.44597 37.8625 155.30534Q37.8625 156.16472 38.065624 156.50847Q38.284374 156.85222 38.628124 156.85222Q38.940624 156.85222 39.14375 156.50847Q39.3625 156.16472 39.3625 155.30534Q39.3625 154.4616 39.14375 154.11784Q38.925 153.75847 38.6125 153.75847ZM38.6125 162.0866L42.45625 153.03972L43.159374 153.03972L39.33125 162.0866L38.6125 162.0866ZM41.659374 159.75847Q41.659374 158.68034 42.08125 158.11784Q42.51875 157.55534 43.128124 157.55534Q43.784374 157.55534 44.221874 158.11784Q44.675 158.68034 44.675 159.80534Q44.675 160.93034 44.221874 161.50847Q43.76875 162.0866 43.14375 162.0866Q42.534374 162.0866 42.096874 161.50847Q41.659374 160.93034 41.659374 159.75847ZM43.159374 158.2741Q42.83125 158.2741 42.6125 158.61784Q42.409374 158.9616 42.409374 159.82097Q42.409374 160.68034 42.628124 161.0241Q42.846874 161.36784 43.190624 161.36784Q43.4875 161.36784 43.690624 161.0241Q43.909374 160.66472 43.909374 159.82097Q43.909374 158.9616 43.690624 158.61784Q43.4875 158.2741 43.159374 158.2741Z" fill-rule="nonzero"/><path stroke="#8a8a8a" stroke-width="1.0" stroke-linecap="butt" d="M18.55 148.2741L231.05 148.2741L249.374 148.2741" fill-rule="nonzero"/><path fill="#616161" d="M251.374 148.2741C251.374 147.16951 250.47856 146.2741 249.374 146.2741C248.26942 146.2741 247.374 147.16951 247.374 148.2741C247.374 149.37866 248.26942 150.2741 249.374 150.2741C250.47856 150.2741 251.374 149.37866 251.374 148.2741" fill-rule="nonzero"/><path fill="#ffffff" d="M698.4344 235.41843L699.27814 235.55905Q699.1375 236.66843 698.54376 237.26218Q697.95 237.8403 697.1219 237.8403Q696.1219 237.8403 695.46564 237.0278Q694.825 236.19968 694.825 234.57468Q694.825 232.9653 695.48126 232.1528Q696.1375 231.3403 697.16876 231.3403Q697.95 231.3403 698.4969 231.8403Q699.04376 232.32468 699.1844 233.30905L698.35626 233.4653Q698.23126 232.82468 697.91876 232.51218Q697.6219 232.19968 697.2 232.19968Q696.5594 232.19968 696.1375 232.7778Q695.71564 233.3403 695.71564 234.55905Q695.71564 235.8403 696.10626 236.4028Q696.5125 236.9653 697.15314 236.9653Q697.6375 236.9653 697.98126 236.5903Q698.34064 236.2153 698.4344 235.41843ZM700.0594 240.0903L699.96564 239.10593Q700.2469 239.19968 700.46564 239.19968Q700.73126 239.19968 700.90314 239.0903Q701.09064 238.98093 701.21564 238.74655Q701.2469 238.66843 701.54376 237.7153L699.60626 231.48093L700.54376 231.48093L701.60626 235.07468Q701.8094 235.74655 701.98126 236.5278Q702.1219 235.79343 702.325 235.10593L703.41876 231.48093L704.27814 231.48093L702.34064 237.80905Q701.96564 239.04343 701.7469 239.44968Q701.52814 239.85593 701.2469 240.04343Q700.96564 240.23093 700.6219 240.23093Q700.3719 240.23093 700.0594 240.0903ZM705.8875 237.69968L705.075 237.69968L705.075 229.10593L705.9344 229.10593L705.9344 232.16843Q706.21564 231.74655 706.5594 231.54343Q706.91876 231.3403 707.34064 231.3403Q707.9344 231.3403 708.41876 231.69968Q708.91876 232.04343 709.2 232.7778Q709.4969 233.49655 709.4969 234.54343Q709.4969 236.12155 708.84064 236.98093Q708.1844 237.8403 707.29376 237.8403Q706.84064 237.8403 706.48126 237.60593Q706.1375 237.37155 705.8875 236.91843L705.8875 237.69968ZM705.8719 234.54343Q705.8719 235.51218 706.04376 235.99655Q706.21564 236.4653 706.54376 236.7153Q706.8719 236.9653 707.2625 236.9653Q707.79376 236.9653 708.2 236.37155Q708.6219 235.7778 708.6219 234.57468Q708.6219 233.35593 708.21564 232.7778Q707.825 232.19968 707.2469 232.19968Q706.7 232.19968 706.27814 232.80905Q705.8719 233.4028 705.8719 234.54343ZM713.575 235.69968L714.46564 235.82468Q714.2469 236.82468 713.65314 237.3403Q713.075 237.8403 712.21564 237.8403Q711.1375 237.8403 710.46564 237.0278Q709.79376 236.19968 709.79376 234.63718Q709.79376 233.0278 710.46564 232.18405Q711.1375 231.3403 712.1844 231.3403Q713.16876 231.3403 713.825 232.16843Q714.4969 232.99655 714.4969 234.57468L714.4969 234.85593L710.6844 234.85593Q710.73126 235.9028 711.16876 236.43405Q711.60626 236.9653 712.21564 236.9653Q713.2 236.9653 713.575 235.69968ZM710.73126 233.99655L713.575 233.99655Q713.52814 233.18405 713.23126 232.7778Q712.825 232.19968 712.16876 232.19968Q711.59064 232.19968 711.1844 232.68405Q710.77814 233.16843 710.73126 233.99655ZM715.09064 237.69968L715.09064 231.48093L715.85626 231.48093L715.85626 232.41843Q716.16876 231.76218 716.40314 231.55905Q716.65314 231.3403 716.96564 231.3403Q717.40314 231.3403 717.85626 231.66843L717.5594 232.6528Q717.2469 232.41843 716.9344 232.41843Q716.65314 232.41843 716.41876 232.62155Q716.2 232.80905 716.10626 233.1528Q715.95 233.76218 715.95 234.43405L715.95 237.69968L715.09064 237.69968ZM717.9969 233.49655Q717.9969 232.85593 718.35626 232.43405Q718.71564 232.01218 719.21564 232.01218Q719.7 232.01218 720.0594 232.43405Q720.41876 232.85593 720.41876 233.49655Q720.41876 234.13718 720.04376 234.55905Q719.6844 234.98093 719.21564 234.98093Q718.71564 234.98093 718.35626 234.55905Q717.9969 234.13718 717.9969 233.49655ZM720.4344 237.69968L723.15314 229.10593L724.15314 229.10593L727.02814 237.69968L725.96564 237.69968L725.1375 235.0903L722.2 235.0903L721.4344 237.69968L720.4344 237.69968ZM722.46564 234.16843L724.85626 234.16843L724.1219 231.79343Q723.77814 230.69968 723.6219 230.01218Q723.4969 230.8403 723.2469 231.6528L722.46564 234.16843ZM731.4344 237.69968L731.4344 236.7778Q731.1375 237.30905 730.73126 237.57468Q730.325 237.8403 729.8094 237.8403Q729.21564 237.8403 728.77814 237.51218Q728.35626 237.18405 728.2 236.69968Q728.0594 236.19968 728.0594 235.32468L728.0594 231.48093L728.9344 231.48093L728.9344 234.93405Q728.9344 235.88718 729.02814 236.2153Q729.1219 236.54343 729.3719 236.74655Q729.6375 236.93405 729.98126 236.93405Q730.59064 236.93405 730.9969 236.41843Q731.34064 235.98093 731.34064 234.80905L731.34064 231.48093L732.2 231.48093L732.2 237.69968L731.4344 237.69968ZM736.4344 235.41843L737.27814 235.55905Q737.1375 236.66843 736.54376 237.26218Q735.95 237.8403 735.1219 237.8403Q734.1219 237.8403 733.46564 237.0278Q732.825 236.19968 732.825 234.57468Q732.825 232.9653 733.48126 232.1528Q734.1375 231.3403 735.16876 231.3403Q735.95 231.3403 736.4969 231.8403Q737.04376 232.32468 737.1844 233.30905L736.35626 233.4653Q736.23126 232.82468 735.91876 232.51218Q735.6219 232.19968 735.2 232.19968Q734.5594 232.19968 734.1375 232.7778Q733.71564 233.3403 733.71564 234.55905Q733.71564 235.8403 734.10626 236.4028Q734.5125 236.9653 735.15314 236.9653Q735.6375 236.9653 735.98126 236.5903Q736.34064 236.2153 736.4344 235.41843ZM740.0125 236.76218L740.1219 237.68405Q739.77814 237.7778 739.48126 237.7778Q739.02814 237.7778 738.7469 237.60593Q738.48126 237.41843 738.3719 237.12155Q738.27814 236.80905 738.27814 235.87155L738.27814 232.29343L737.6375 232.29343L737.6375 231.48093L738.27814 231.48093L738.27814 229.93405L739.1375 229.30905L739.1375 231.48093L740.0125 231.48093L740.0125 232.29343L739.1375 232.29343L739.1375 235.93405Q739.1375 236.43405 739.21564 236.5903Q739.325 236.79343 739.6375 236.79343Q739.77814 236.79343 740.0125 236.76218ZM741.09064 230.32468L741.09064 229.10593L741.95 229.10593L741.95 230.32468L741.09064 230.32468ZM741.09064 237.69968L741.09064 231.48093L741.95 231.48093L741.95 237.69968L741.09064 237.69968ZM742.7625 234.5903Q742.7625 232.98093 743.4344 232.16843Q744.1219 231.3403 745.15314 231.3403Q746.16876 231.3403 746.85626 232.16843Q747.54376 232.98093 747.54376 234.5278Q747.54376 236.19968 746.8719 237.0278Q746.2 237.8403 745.15314 237.8403Q744.1219 237.8403 743.4344 237.0278Q742.7625 236.19968 742.7625 234.5903ZM743.65314 234.5903Q743.65314 235.79343 744.09064 236.38718Q744.52814 236.9653 745.16876 236.9653Q745.77814 236.9653 746.21564 236.37155Q746.65314 235.7778 746.65314 234.5903Q746.65314 233.38718 746.21564 232.80905Q745.77814 232.2153 745.1219 232.2153Q744.5125 232.2153 744.075 232.80905Q743.65314 233.38718 743.65314 234.5903ZM748.09064 237.69968L748.09064 231.48093L748.85626 231.48093L748.85626 232.35593Q749.1375 231.8403 749.54376 231.5903Q749.96564 231.3403 750.48126 231.3403Q750.90314 231.3403 751.2469 231.49655Q751.59064 231.6528 751.8094 231.91843Q752.02814 232.18405 752.1219 232.60593Q752.23126 233.01218 752.23126 233.87155L752.23126 237.69968L751.3719 237.69968L751.3719 233.91843Q751.3719 233.23093 751.2469 232.91843Q751.1375 232.5903 750.8875 232.41843Q750.6375 232.24655 750.3094 232.24655Q749.6844 232.24655 749.3094 232.7153Q748.95 233.16843 748.95 234.29343L748.95 237.69968L748.09064 237.69968ZM759.4344 235.41843L760.27814 235.55905Q760.1375 236.66843 759.54376 237.26218Q758.95 237.8403 758.1219 237.8403Q757.1219 237.8403 756.46564 237.0278Q755.825 236.19968 755.825 234.57468Q755.825 232.9653 756.48126 232.1528Q757.1375 231.3403 758.16876 231.3403Q758.95 231.3403 759.4969 231.8403Q760.04376 232.32468 760.1844 233.30905L759.35626 233.4653Q759.23126 232.82468 758.91876 232.51218Q758.6219 232.19968 758.2 232.19968Q757.5594 232.19968 757.1375 232.7778Q756.71564 233.3403 756.71564 234.55905Q756.71564 235.8403 757.10626 236.4028Q757.5125 236.9653 758.15314 236.9653Q758.6375 236.9653 758.98126 236.5903Q759.34064 236.2153 759.4344 235.41843ZM760.7625 234.5903Q760.7625 232.98093 761.4344 232.16843Q762.1219 231.3403 763.15314 231.3403Q764.16876 231.3403 764.85626 232.16843Q765.54376 232.98093 765.54376 234.5278Q765.54376 236.19968 764.8719 237.0278Q764.2 237.8403 763.15314 237.8403Q762.1219 237.8403 761.4344 237.0278Q760.7625 236.19968 760.7625 234.5903ZM761.65314 234.5903Q761.65314 235.79343 762.09064 236.38718Q762.52814 236.9653 763.16876 236.9653Q763.77814 236.9653 764.21564 236.37155Q764.65314 235.7778 764.65314 234.5903Q764.65314 233.38718 764.21564 232.80905Q763.77814 232.2153 763.1219 232.2153Q762.5125 232.2153 762.075 232.80905Q761.65314 233.38718 761.65314 234.5903ZM766.09064 237.69968L766.09064 231.48093L766.85626 231.48093L766.85626 232.35593Q767.1375 231.8403 767.54376 231.5903Q767.96564 231.3403 768.48126 231.3403Q768.90314 231.3403 769.2469 231.49655Q769.59064 231.6528 769.8094 231.91843Q770.02814 232.18405 770.1219 232.60593Q770.23126 233.01218 770.23126 233.87155L770.23126 237.69968L769.3719 237.69968L769.3719 233.91843Q769.3719 233.23093 769.2469 232.91843Q769.1375 232.5903 768.8875 232.41843Q768.6375 232.24655 768.3094 232.24655Q767.6844 232.24655 767.3094 232.7153Q766.95 233.16843 766.95 234.29343L766.95 237.69968L766.09064 237.69968ZM773.0125 236.76218L773.1219 237.68405Q772.77814 237.7778 772.48126 237.7778Q772.02814 237.7778 771.7469 237.60593Q771.48126 237.41843 771.3719 237.12155Q771.27814 236.80905 771.27814 235.87155L771.27814 232.29343L770.6375 232.29343L770.6375 231.48093L771.27814 231.48093L771.27814 229.93405L772.1375 229.30905L772.1375 231.48093L773.0125 231.48093L773.0125 232.29343L772.1375 232.29343L772.1375 235.93405Q772.1375 236.43405 772.21564 236.5903Q772.325 236.79343 772.6375 236.79343Q772.77814 236.79343 773.0125 236.76218ZM774.09064 237.69968L774.09064 231.48093L774.85626 231.48093L774.85626 232.41843Q775.16876 231.76218 775.40314 231.55905Q775.65314 231.3403 775.96564 231.3403Q776.40314 231.3403 776.85626 231.66843L776.5594 232.6528Q776.2469 232.41843 775.9344 232.41843Q775.65314 232.41843 775.41876 232.62155Q775.2 232.80905 775.10626 233.1528Q774.95 233.76218 774.95 234.43405L774.95 237.69968L774.09064 237.69968ZM780.41876 236.93405Q779.98126 237.38718 779.5125 237.62155Q779.04376 237.8403 778.54376 237.8403Q777.7469 237.8403 777.2625 237.35593Q776.79376 236.87155 776.79376 236.05905Q776.79376 235.5278 777.0125 235.12155Q777.23126 234.69968 777.6219 234.4653Q778.0125 234.23093 778.79376 234.10593Q779.85626 233.9653 780.34064 233.74655L780.34064 233.48093Q780.34064 232.8403 780.1219 232.5903Q779.79376 232.2153 779.1219 232.2153Q778.52814 232.2153 778.23126 232.4653Q777.9344 232.69968 777.79376 233.38718L776.9344 233.24655Q777.1219 232.24655 777.66876 231.79343Q778.23126 231.3403 779.2625 231.3403Q780.0594 231.3403 780.5125 231.63718Q780.98126 231.93405 781.09064 232.38718Q781.21564 232.82468 781.21564 233.68405L781.21564 235.0903Q781.21564 236.57468 781.2625 236.9653Q781.325 237.3403 781.4969 237.69968L780.59064 237.69968Q780.45 237.37155 780.41876 236.93405ZM780.34064 234.57468Q779.8719 234.80905 778.9344 234.98093Q778.3875 235.07468 778.16876 235.19968Q777.95 235.30905 777.825 235.5278Q777.71564 235.74655 777.71564 236.0278Q777.71564 236.48093 777.98126 236.74655Q778.2625 237.01218 778.7469 237.01218Q779.21564 237.01218 779.59064 236.7778Q779.96564 236.5278 780.15314 236.13718Q780.34064 235.73093 780.34064 234.9653L780.34064 234.57468ZM785.4344 235.41843L786.27814 235.55905Q786.1375 236.66843 785.54376 237.26218Q784.95 237.8403 784.1219 237.8403Q783.1219 237.8403 782.46564 237.0278Q781.825 236.19968 781.825 234.57468Q781.825 232.9653 782.48126 232.1528Q783.1375 231.3403 784.16876 231.3403Q784.95 231.3403 785.4969 231.8403Q786.04376 232.32468 786.1844 233.30905L785.35626 233.4653Q785.23126 232.82468 784.91876 232.51218Q784.6219 232.19968 784.2 232.19968Q783.5594 232.19968 783.1375 232.7778Q782.71564 233.3403 782.71564 234.55905Q782.71564 235.8403 783.10626 236.4028Q783.5125 236.9653 784.15314 236.9653Q784.6375 236.9653 784.98126 236.5903Q785.34064 236.2153 785.4344 235.41843ZM789.0125 236.76218L789.1219 237.68405Q788.77814 237.7778 788.48126 237.7778Q788.02814 237.7778 787.7469 237.60593Q787.48126 237.41843 787.3719 237.12155Q787.27814 236.80905 787.27814 235.87155L787.27814 232.29343L786.6375 232.29343L786.6375 231.48093L787.27814 231.48093L787.27814 229.93405L788.1375 229.30905L788.1375 231.48093L789.0125 231.48093L789.0125 232.29343L788.1375 232.29343L788.1375 235.93405Q788.1375 236.43405 788.21564 236.5903Q788.325 236.79343 788.6375 236.79343Q788.77814 236.79343 789.0125 236.76218Z" fill-rule="nonzero"/><path fill="#616161" d="M762.90314 248.23093L762.90314 247.2153L767.46564 247.2153L767.46564 248.04343Q766.4344 249.37155 765.65314 251.49655Q764.8875 253.60593 764.77814 255.69968L763.8875 255.69968Q763.90314 254.62155 764.23126 253.18405Q764.5594 251.74655 765.1219 250.44968Q765.6844 249.1528 766.34064 248.23093L762.90314 248.23093ZM771.10626 255.69968L770.23126 255.69968L770.23126 248.98093Q769.9344 249.32468 769.4344 249.69968Q768.9344 250.05905 768.5125 250.24655L768.5125 249.23093Q769.21564 248.82468 769.7625 248.23093Q770.3094 247.63718 770.54376 247.07468L771.10626 247.07468L771.10626 255.69968ZM773.35626 255.69968L773.35626 254.49655L774.34064 254.49655L774.34064 255.69968L773.35626 255.69968ZM778.6219 255.69968L778.6219 253.63718L775.5594 253.63718L775.5594 252.66843L778.77814 247.10593L779.48126 247.10593L779.48126 252.66843L780.4344 252.66843L780.4344 253.63718L779.48126 253.63718L779.48126 255.69968L778.6219 255.69968ZM778.6219 252.66843L778.6219 248.80905L776.41876 252.66843L778.6219 252.66843ZM780.9969 249.16843Q780.9969 248.10593 781.41876 247.54343Q781.85626 246.9653 782.48126 246.9653Q783.1219 246.9653 783.5594 247.54343Q784.0125 248.10593 784.0125 249.23093Q784.0125 250.3403 783.5594 250.91843Q783.1219 251.49655 782.4969 251.49655Q781.8719 251.49655 781.4344 250.93405Q780.9969 250.35593 780.9969 249.16843ZM782.5125 247.68405Q782.1844 247.68405 781.96564 248.0278Q781.7625 248.37155 781.7625 249.23093Q781.7625 250.0903 781.96564 250.43405Q782.1844 250.7778 782.52814 250.7778Q782.84064 250.7778 783.04376 250.43405Q783.2625 250.0903 783.2625 249.23093Q783.2625 248.38718 783.04376 248.04343Q782.825 247.68405 782.5125 247.68405ZM782.5125 256.01218L786.35626 246.9653L787.0594 246.9653L783.23126 256.01218L782.5125 256.01218ZM785.5594 253.68405Q785.5594 252.60593 785.98126 252.04343Q786.41876 251.48093 787.02814 251.48093Q787.6844 251.48093 788.1219 252.04343Q788.575 252.60593 788.575 253.73093Q788.575 254.85593 788.1219 255.43405Q787.66876 256.01218 787.04376 256.01218Q786.4344 256.01218 785.9969 255.43405Q785.5594 254.85593 785.5594 253.68405ZM787.0594 252.19968Q786.73126 252.19968 786.5125 252.54343Q786.3094 252.88718 786.3094 253.74655Q786.3094 254.60593 786.52814 254.94968Q786.7469 255.29343 787.09064 255.29343Q787.3875 255.29343 787.59064 254.94968Q787.8094 254.5903 787.8094 253.74655Q787.8094 252.88718 787.59064 252.54343Q787.3875 252.19968 787.0594 252.19968Z" fill-rule="nonzero"/><path stroke="#8a8a8a" stroke-width="1.0" stroke-linecap="butt" d="M789.45 242.19968L576.95 242.19968L528.0004 242.19968" fill-rule="nonzero"/><path fill="#616161" d="M530.0004 242.19968C530.0004 241.09511 529.105 240.19968 528.0004 240.19968C526.8959 240.19968 526.0004 241.09511 526.0004 242.19968C526.0004 243.30424 526.8959 244.19968 528.0004 244.19968C529.105 244.19968 530.0004 243.30424 530.0004 242.19968" fill-rule="nonzero"/></svg>