<svg version="1.1" viewBox="0.0 0.0 808.0 371.0" fill="none" stroke="none" stroke-linecap="square" stroke-miterlimit="10" width="808" height="371" xmlns:xlink="http://www.w3.org/1999/xlink" xmlns="http://www.w3.org/2000/svg"><path fill="#000000" d="M0 0L808.0 0L808.0 371.0L0 371.0L0 0Z" fill-rule="nonzero"/><path fill="#ac003d" d="M324.61057 154.92212C335.7857 130.8466 367.83643 114.54625 404.0 114.54625L404.0 139.58875C367.83643 139.58875 335.7857 155.8891 324.61057 179.96461Z" fill-rule="nonzero"/><path fill="#f50057" d="M245.22112 136.86548C267.5714 88.714455 331.67288 56.11375 404.0 56.11375L404.0 114.54625C367.83643 114.54625 335.7857 130.8466 324.61057 154.92212Z" fill-rule="nonzero"/><path fill="#53b302" d="M570.95 198.02126C570.95 262.564 496.20395 314.88626 404.0 314.88626C311.79605 314.88626 237.05 262.564 237.05 198.02126L237.05 172.97874C237.05 237.52151 311.79605 289.84375 404.0 289.84375C496.20395 289.84375 570.95 237.52151 570.95 172.97874Z" fill-rule="nonzero"/><path fill="#53b302" d="M404.0 114.54625C450.10196 114.54625 487.475 140.70737 487.475 172.97874L487.475 198.02126C487.475 165.74988 450.10196 139.58875 404.0 139.58875Z" fill-rule="nonzero"/><path fill="#53b302" d="M320.525 172.97874C320.525 166.8471 321.90372 160.75366 324.61057 154.92212L324.61057 179.96461C321.90372 185.79616 320.525 191.8896 320.525 198.02126Z" fill-rule="nonzero"/><path fill="#76ff03" d="M404.0 56.11375C476.32712 56.11375 540.4286 88.714455 562.7789 136.86548C585.1292 185.01651 560.6446 237.76555 502.13074 267.52454C443.61688 297.28348 364.38312 297.28348 305.86926 267.52454C247.35538 237.76555 222.8708 185.01651 245.22112 136.86548L324.61057 154.92212C313.4354 178.99763 325.6777 205.37215 354.93463 220.25163C384.19156 235.13112 423.80844 235.13112 453.06537 220.25163C482.3223 205.37215 494.5646 178.99763 483.38943 154.92212C472.2143 130.8466 440.16357 114.54625 404.0 114.54625Z" fill-rule="nonzero"/><path fill="#ffffff" d="M23.190624 76.00402L24.190624 76.16027Q24.01875 77.457146 23.33125 78.144646Q22.64375 78.832146 21.675 78.832146Q20.503124 78.832146 19.7375 77.87902Q18.9875 76.91027 18.9875 75.019646Q18.9875 73.12902 19.753124 72.19152Q20.51875 71.238396 21.721874 71.238396Q22.64375 71.238396 23.26875 71.81652Q23.909374 72.37902 24.08125 73.53527L23.096874 73.72277Q22.95625 72.97277 22.596874 72.613396Q22.253124 72.25402 21.753124 72.25402Q21.003124 72.25402 20.51875 72.91027Q20.034374 73.56652 20.034374 75.00402Q20.034374 76.488396 20.4875 77.16027Q20.95625 77.81652 21.690624 77.81652Q22.26875 77.81652 22.675 77.37902Q23.08125 76.925896 23.190624 76.00402ZM25.26875 81.457146L25.159374 80.300896Q25.4875 80.41027 25.721874 80.41027Q26.05 80.41027 26.253124 80.269646Q26.471874 80.144646 26.596874 79.87902Q26.64375 79.78527 27.003124 78.675896L24.7375 71.394646L25.815624 71.394646L27.065624 75.59777Q27.3 76.394646 27.503124 77.28527Q27.675 76.44152 27.909374 75.62902L29.175 71.394646L30.190624 71.394646L27.925 78.78527Q27.4875 80.22277 27.221874 80.69152Q26.971874 81.175896 26.64375 81.394646Q26.315624 81.613396 25.909374 81.613396Q25.628124 81.613396 25.26875 81.457146ZM32.221874 78.66027L31.284374 78.66027L31.284374 68.644646L32.284374 68.644646L32.284374 72.207146Q32.6125 71.72277 33.01875 71.488396Q33.425 71.238396 33.925 71.238396Q34.6125 71.238396 35.175 71.66027Q35.753124 72.06652 36.096874 72.925896Q36.440624 73.769646 36.440624 74.97277Q36.440624 76.81652 35.659374 77.832146Q34.89375 78.832146 33.8625 78.832146Q33.346874 78.832146 32.925 78.56652Q32.51875 78.28527 32.221874 77.75402L32.221874 78.66027ZM32.20625 74.97277Q32.20625 76.09777 32.409374 76.66027Q32.6125 77.22277 32.9875 77.519646Q33.3625 77.81652 33.83125 77.81652Q34.440624 77.81652 34.925 77.113396Q35.409374 76.41027 35.409374 75.019646Q35.409374 73.582146 34.940624 72.925896Q34.4875 72.25402 33.8 72.25402Q33.175 72.25402 32.690624 72.957146Q32.20625 73.644646 32.20625 74.97277ZM41.3625 76.31652L42.409374 76.47277Q42.14375 77.644646 41.45625 78.238396Q40.784374 78.832146 39.784374 78.832146Q38.51875 78.832146 37.721874 77.87902Q36.940624 76.91027 36.940624 75.09777Q36.940624 73.207146 37.721874 72.22277Q38.51875 71.238396 39.7375 71.238396Q40.89375 71.238396 41.659374 72.207146Q42.440624 73.175896 42.440624 75.019646L42.425 75.34777L37.9875 75.34777Q38.05 76.56652 38.55 77.19152Q39.065624 77.81652 39.784374 77.81652Q40.925 77.81652 41.3625 76.31652ZM38.05 74.332146L41.3625 74.332146Q41.3 73.394646 40.971874 72.925896Q40.4875 72.25402 39.721874 72.25402Q39.05 72.25402 38.565624 72.81652Q38.096874 73.37902 38.05 74.332146ZM43.284374 78.66027L43.284374 71.394646L44.190624 71.394646L44.190624 72.50402Q44.55 71.738396 44.83125 71.488396Q45.128124 71.238396 45.4875 71.238396Q46.003124 71.238396 46.51875 71.62902L46.175 72.769646Q45.8 72.50402 45.45625 72.50402Q45.128124 72.50402 44.8625 72.738396Q44.596874 72.957146 44.4875 73.363396Q44.3 74.06652 44.3 74.863396L44.3 78.66027L43.284374 78.66027ZM47.05 74.84777L47.05 73.457146Q47.64375 72.62902 48.596874 72.62902Q48.909374 72.62902 49.284374 72.75402Q49.659374 72.863396 50.3625 73.22277Q50.9875 73.550896 51.33125 73.550896Q51.659374 73.550896 51.971874 73.34777Q52.425 73.082146 52.784374 72.613396L52.784374 74.06652Q52.08125 74.832146 51.221874 74.832146Q50.89375 74.832146 50.596874 74.75402Q50.3 74.66027 49.690624 74.332146Q48.95625 73.925896 48.503124 73.925896Q48.159374 73.925896 47.83125 74.113396Q47.51875 74.28527 47.05 74.84777ZM60.26875 75.144646L61.3625 75.488396Q61.003124 77.175896 60.096874 78.00402Q59.190624 78.832146 57.89375 78.832146Q56.753124 78.832146 55.940624 78.28527Q55.128124 77.72277 54.6125 76.488396Q54.096874 75.25402 54.096874 73.582146Q54.096874 71.925896 54.6125 70.78527Q55.128124 69.62902 56.003124 69.050896Q56.89375 68.47277 57.9875 68.47277Q59.175 68.47277 60.01875 69.22277Q60.878124 69.957146 61.221874 71.37902L60.159374 71.69152Q59.6125 69.59777 57.95625 69.59777Q57.14375 69.59777 56.534374 70.019646Q55.940624 70.44152 55.58125 71.332146Q55.221874 72.22277 55.221874 73.582146Q55.221874 75.644646 55.940624 76.675896Q56.675 77.69152 57.878124 77.69152Q58.753124 77.69152 59.39375 77.06652Q60.05 76.425896 60.26875 75.144646ZM61.909374 75.03527Q61.909374 73.144646 62.690624 72.19152Q63.4875 71.238396 64.70625 71.238396Q65.89375 71.238396 66.69063 72.19152Q67.4875 73.144646 67.4875 74.957146Q67.4875 76.91027 66.70625 77.87902Q65.925 78.832146 64.70625 78.832146Q63.503124 78.832146 62.70625 77.87902Q61.909374 76.91027 61.909374 75.03527ZM62.940624 75.03527Q62.940624 76.44152 63.45625 77.12902Q63.971874 77.81652 64.72188 77.81652Q65.44063 77.81652 65.94063 77.12902Q66.45625 76.425896 66.45625 75.03527Q66.45625 73.62902 65.94063 72.94152Q65.44063 72.25402 64.675 72.25402Q63.95625 72.25402 63.440624 72.94152Q62.940624 73.62902 62.940624 75.03527ZM68.28438 78.66027L68.28438 71.394646L69.19063 71.394646L69.19063 72.425896Q69.51875 71.832146 69.9875 71.53527Q70.47188 71.238396 71.09688 71.238396Q71.56563 71.238396 71.97188 71.425896Q72.37813 71.613396 72.62813 71.925896Q72.87813 72.22277 73.00313 72.707146Q73.12813 73.19152 73.12813 74.19152L73.12813 78.66027L72.1125 78.66027L72.1125 74.238396Q72.1125 73.44152 71.97188 73.082146Q71.84688 72.707146 71.55 72.50402Q71.26875 72.300896 70.87813 72.300896Q70.15938 72.300896 69.72188 72.84777Q69.3 73.37902 69.3 74.69152L69.3 78.66027L68.28438 78.66027ZM74.09688 79.269646L75.08125 79.44152Q75.14375 80.019646 75.4875 80.300896Q75.83125 80.582146 76.44063 80.582146Q77.1125 80.582146 77.50313 80.269646Q77.89375 79.957146 78.03438 79.31652Q78.12813 78.94152 78.12813 77.707146Q77.8 78.175896 77.37813 78.425896Q76.97188 78.66027 76.47188 78.66027Q75.40938 78.66027 74.70625 77.75402Q73.89375 76.72277 73.89375 74.97277Q73.89375 73.800896 74.25313 72.925896Q74.6125 72.050896 75.19063 71.644646Q75.76875 71.238396 76.4875 71.238396Q77.00313 71.238396 77.44063 71.50402Q77.87813 71.75402 78.20625 72.269646L78.20625 71.394646L79.14375 71.394646L79.14375 77.675896Q79.14375 79.34777 78.8625 80.06652Q78.59688 80.78527 77.97188 81.19152Q77.34688 81.613396 76.47188 81.613396Q75.31563 81.613396 74.69063 80.988396Q74.08125 80.363396 74.09688 79.269646ZM74.94063 74.894646Q74.94063 76.332146 75.40938 76.988396Q75.87813 77.644646 76.56563 77.644646Q77.25313 77.644646 77.72188 77.00402Q78.20625 76.363396 78.20625 74.957146Q78.20625 73.582146 77.70625 72.925896Q77.22188 72.25402 76.51875 72.25402Q75.89375 72.25402 75.40938 72.925896Q74.94063 73.582146 74.94063 74.894646ZM80.28438 78.66027L80.28438 71.394646L81.19063 71.394646L81.19063 72.50402Q81.55 71.738396 81.83125 71.488396Q82.12813 71.238396 82.4875 71.238396Q83.00313 71.238396 83.51875 71.62902L83.175 72.769646Q82.8 72.50402 82.45625 72.50402Q82.12813 72.50402 81.8625 72.738396Q81.59688 72.957146 81.4875 73.363396Q81.3 74.06652 81.3 74.863396L81.3 78.66027L80.28438 78.66027ZM88.3625 76.31652L89.40938 76.47277Q89.14375 77.644646 88.45625 78.238396Q87.78438 78.832146 86.78438 78.832146Q85.51875 78.832146 84.72188 77.87902Q83.94063 76.91027 83.94063 75.09777Q83.94063 73.207146 84.72188 72.22277Q85.51875 71.238396 86.7375 71.238396Q87.89375 71.238396 88.65938 72.207146Q89.44063 73.175896 89.44063 75.019646L89.425 75.34777L84.9875 75.34777Q85.05 76.56652 85.55 77.19152Q86.06563 77.81652 86.78438 77.81652Q87.925 77.81652 88.3625 76.31652ZM85.05 74.332146L88.3625 74.332146Q88.3 73.394646 87.97188 72.925896Q87.4875 72.25402 86.72188 72.25402Q86.05 72.25402 85.56563 72.81652Q85.09688 73.37902 85.05 74.332146ZM89.90938 76.488396L90.90938 76.300896Q90.9875 77.06652 91.37813 77.44152Q91.78438 77.81652 92.44063 77.81652Q93.09688 77.81652 93.45625 77.488396Q93.81563 77.16027 93.81563 76.66027Q93.81563 76.238396 93.50313 75.988396Q93.3 75.832146 92.4875 75.582146Q91.3 75.22277 90.90938 74.97277Q90.51875 74.72277 90.3 74.300896Q90.08125 73.863396 90.08125 73.332146Q90.08125 72.394646 90.675 71.81652Q91.26875 71.238396 92.31563 71.238396Q92.9875 71.238396 93.4875 71.47277Q93.9875 71.707146 94.25313 72.113396Q94.51875 72.519646 94.62813 73.269646L93.64375 73.44152Q93.50313 72.25402 92.34688 72.25402Q91.69063 72.25402 91.3625 72.519646Q91.05 72.769646 91.05 73.19152Q91.05 73.582146 91.3625 73.81652Q91.53438 73.957146 92.45625 74.25402Q93.70625 74.66027 94.06563 74.894646Q94.44063 75.12902 94.64375 75.53527Q94.84688 75.94152 94.84688 76.50402Q94.84688 77.550896 94.19063 78.19152Q93.53438 78.832146 92.39375 78.832146Q90.25313 78.832146 89.90938 76.488396ZM95.90938 76.488396L96.90938 76.300896Q96.9875 77.06652 97.37813 77.44152Q97.78438 77.81652 98.44063 77.81652Q99.09688 77.81652 99.45625 77.488396Q99.81563 77.16027 99.81563 76.66027Q99.81563 76.238396 99.50313 75.988396Q99.3 75.832146 98.4875 75.582146Q97.3 75.22277 96.90938 74.97277Q96.51875 74.72277 96.3 74.300896Q96.08125 73.863396 96.08125 73.332146Q96.08125 72.394646 96.675 71.81652Q97.26875 71.238396 98.31563 71.238396Q98.9875 71.238396 99.4875 71.47277Q99.9875 71.707146 100.25313 72.113396Q100.51875 72.519646 100.62813 73.269646L99.64375 73.44152Q99.50313 72.25402 98.34688 72.25402Q97.69063 72.25402 97.3625 72.519646Q97.05 72.769646 97.05 73.19152Q97.05 73.582146 97.3625 73.81652Q97.53438 73.957146 98.45625 74.25402Q99.70625 74.66027 100.06563 74.894646Q100.44063 75.12902 100.64375 75.53527Q100.84688 75.94152 100.84688 76.50402Q100.84688 77.550896 100.19063 78.19152Q99.53438 78.832146 98.39375 78.832146Q96.25313 78.832146 95.90938 76.488396Z" fill-rule="nonzero"/><path fill="#616161" d="M24.33125 97.47277L24.33125 98.66027L18.89375 98.66027Q18.878124 97.94152 19.33125 97.050896Q19.784374 96.16027 20.9875 94.957146Q22.409374 93.550896 22.846874 92.78527Q23.284374 92.00402 23.284374 91.34777Q23.284374 90.582146 22.83125 90.09777Q22.378124 89.613396 21.721874 89.613396Q21.01875 89.613396 20.565624 90.144646Q20.128124 90.66027 20.128124 91.62902L19.08125 91.488396Q19.190624 90.050896 19.89375 89.332146Q20.6125 88.59777 21.76875 88.59777Q23.01875 88.59777 23.659374 89.44152Q24.315624 90.28527 24.315624 91.37902Q24.315624 92.332146 23.8 93.207146Q23.3 94.082146 21.89375 95.550896Q20.9875 96.47277 20.721874 96.81652Q20.45625 97.144646 20.3 97.47277L24.33125 97.47277ZM25.003124 93.72277Q25.003124 91.19152 25.675 89.894646Q26.3625 88.59777 27.690624 88.59777Q28.878124 88.59777 29.55 89.644646Q30.3625 90.925896 30.3625 93.72277Q30.3625 96.22277 29.690624 97.53527Q29.01875 98.832146 27.675 98.832146Q26.503124 98.832146 25.753124 97.69152Q25.003124 96.53527 25.003124 93.72277ZM26.034374 93.72277Q26.034374 96.16027 26.503124 96.988396Q26.971874 97.81652 27.70625 97.81652Q28.39375 97.81652 28.8625 96.988396Q29.33125 96.144646 29.33125 93.72277Q29.33125 91.269646 28.8625 90.44152Q28.39375 89.613396 27.64375 89.613396Q26.95625 89.613396 26.4875 90.457146Q26.034374 91.300896 26.034374 93.72277ZM31.6125 98.66027L31.6125 97.25402L32.753124 97.25402L32.753124 98.66027L31.6125 98.66027ZM34.003124 93.72277Q34.003124 91.19152 34.675 89.894646Q35.3625 88.59777 36.690624 88.59777Q37.878124 88.59777 38.55 89.644646Q39.3625 90.925896 39.3625 93.72277Q39.3625 96.22277 38.690624 97.53527Q38.01875 98.832146 36.675 98.832146Q35.503124 98.832146 34.753124 97.69152Q34.003124 96.53527 34.003124 93.72277ZM35.034374 93.72277Q35.034374 96.16027 35.503124 96.988396Q35.971874 97.81652 36.70625 97.81652Q37.39375 97.81652 37.8625 96.988396Q38.33125 96.144646 38.33125 93.72277Q38.33125 91.269646 37.8625 90.44152Q37.39375 89.613396 36.64375 89.613396Q35.95625 89.613396 35.4875 90.457146Q35.034374 91.300896 35.034374 93.72277ZM40.190624 91.050896Q40.190624 89.800896 40.690624 89.144646Q41.190624 88.47277 41.909374 88.47277Q42.675 88.47277 43.190624 89.144646Q43.70625 89.800896 43.70625 91.113396Q43.70625 92.41027 43.190624 93.09777Q42.675 93.769646 41.925 93.769646Q41.20625 93.769646 40.690624 93.09777Q40.190624 92.425896 40.190624 91.050896ZM41.95625 89.31652Q41.58125 89.31652 41.33125 89.72277Q41.08125 90.113396 41.08125 91.113396Q41.08125 92.12902 41.33125 92.519646Q41.58125 92.91027 41.971874 92.91027Q42.33125 92.91027 42.58125 92.519646Q42.83125 92.113396 42.83125 91.113396Q42.83125 90.12902 42.58125 89.72277Q42.33125 89.31652 41.95625 89.31652ZM41.95625 99.03527L46.440624 88.47277L47.26875 88.47277L42.784374 99.03527L41.95625 99.03527ZM45.51875 96.300896Q45.51875 95.050896 46.003124 94.394646Q46.503124 93.738396 47.221874 93.738396Q47.9875 93.738396 48.503124 94.394646Q49.01875 95.050896 49.01875 96.363396Q49.01875 97.675896 48.4875 98.363396Q47.971874 99.03527 47.253124 99.03527Q46.51875 99.03527 46.01875 98.363396Q45.51875 97.675896 45.51875 96.300896ZM47.26875 94.582146Q46.878124 94.582146 46.628124 94.988396Q46.39375 95.37902 46.39375 96.37902Q46.39375 97.394646 46.64375 97.78527Q46.89375 98.175896 47.284374 98.175896Q47.64375 98.175896 47.89375 97.78527Q48.14375 97.37902 48.14375 96.37902Q48.14375 95.37902 47.89375 94.988396Q47.64375 94.582146 47.26875 94.582146Z" fill-rule="nonzero"/><path stroke="#8a8a8a" stroke-width="1.0" stroke-linecap="butt" d="M18.55 83.16027L231.05 83.16027L310.7758 83.16027" fill-rule="nonzero"/><path fill="#616161" d="M312.7758 83.16027C312.7758 82.055695 311.88037 81.16027 310.7758 81.16027C309.67123 81.16027 308.7758 82.055695 308.7758 83.16027C308.7758 84.26484 309.67123 85.16027 310.7758 85.16027C311.88037 85.16027 312.7758 84.26484 312.7758 83.16027" fill-rule="nonzero"/><path fill="#ffffff" d="M721.09064 255.64099L722.09064 255.79724Q721.91876 257.09412 721.23126 257.78162Q720.54376 258.46912 719.575 258.46912Q718.40314 258.46912 717.6375 257.516Q716.8875 256.54724 716.8875 254.65662Q716.8875 252.76599 717.65314 251.82849Q718.41876 250.87537 719.6219 250.87537Q720.54376 250.87537 721.16876 251.45349Q721.8094 252.01599 721.98126 253.17224L720.9969 253.35974Q720.85626 252.60974 720.4969 252.25037Q720.15314 251.89099 719.65314 251.89099Q718.90314 251.89099 718.41876 252.54724Q717.9344 253.20349 717.9344 254.64099Q717.9344 256.12537 718.3875 256.79724Q718.85626 257.4535 719.59064 257.4535Q720.16876 257.4535 720.575 257.016Q720.98126 256.56287 721.09064 255.64099ZM723.16876 261.09412L723.0594 259.93787Q723.3875 260.04724 723.6219 260.04724Q723.95 260.04724 724.15314 259.90662Q724.3719 259.78162 724.4969 259.516Q724.54376 259.42224 724.90314 258.31287L722.6375 251.03162L723.71564 251.03162L724.96564 255.23474Q725.2 256.03162 725.40314 256.92224Q725.575 256.0785 725.8094 255.26599L727.075 251.03162L728.09064 251.03162L725.825 258.42224Q725.3875 259.85974 725.1219 260.3285Q724.8719 260.81287 724.54376 261.03162Q724.21564 261.25037 723.8094 261.25037Q723.52814 261.25037 723.16876 261.09412ZM730.1219 258.29724L729.1844 258.29724L729.1844 248.28162L730.1844 248.28162L730.1844 251.84412Q730.5125 251.35974 730.91876 251.12537Q731.325 250.87537 731.825 250.87537Q732.5125 250.87537 733.075 251.29724Q733.65314 251.70349 733.9969 252.56287Q734.34064 253.40662 734.34064 254.60974Q734.34064 256.4535 733.5594 257.46912Q732.79376 258.46912 731.7625 258.46912Q731.2469 258.46912 730.825 258.2035Q730.41876 257.92224 730.1219 257.391L730.1219 258.29724ZM730.10626 254.60974Q730.10626 255.73474 730.3094 256.29724Q730.5125 256.85974 730.8875 257.15662Q731.2625 257.4535 731.73126 257.4535Q732.34064 257.4535 732.825 256.75037Q733.3094 256.04724 733.3094 254.65662Q733.3094 253.21912 732.84064 252.56287Q732.3875 251.89099 731.7 251.89099Q731.075 251.89099 730.59064 252.59412Q730.10626 253.28162 730.10626 254.60974ZM739.2625 255.95349L740.3094 256.10974Q740.04376 257.28162 739.35626 257.87537Q738.6844 258.46912 737.6844 258.46912Q736.41876 258.46912 735.6219 257.516Q734.84064 256.54724 734.84064 254.73474Q734.84064 252.84412 735.6219 251.85974Q736.41876 250.87537 737.6375 250.87537Q738.79376 250.87537 739.5594 251.84412Q740.34064 252.81287 740.34064 254.65662L740.325 254.98474L735.8875 254.98474Q735.95 256.2035 736.45 256.8285Q736.96564 257.4535 737.6844 257.4535Q738.825 257.4535 739.2625 255.95349ZM735.95 253.96912L739.2625 253.96912Q739.2 253.03162 738.8719 252.56287Q738.3875 251.89099 737.6219 251.89099Q736.95 251.89099 736.46564 252.45349Q735.9969 253.01599 735.95 253.96912ZM741.1844 258.29724L741.1844 251.03162L742.09064 251.03162L742.09064 252.14099Q742.45 251.37537 742.73126 251.12537Q743.02814 250.87537 743.3875 250.87537Q743.90314 250.87537 744.41876 251.26599L744.075 252.40662Q743.7 252.14099 743.35626 252.14099Q743.02814 252.14099 742.7625 252.37537Q742.4969 252.59412 742.3875 253.00037Q742.2 253.70349 742.2 254.50037L742.2 258.29724L741.1844 258.29724ZM744.95 254.48474L744.95 253.09412Q745.54376 252.26599 746.4969 252.26599Q746.8094 252.26599 747.1844 252.39099Q747.5594 252.50037 748.2625 252.85974Q748.8875 253.18787 749.23126 253.18787Q749.5594 253.18787 749.8719 252.98474Q750.325 252.71912 750.6844 252.25037L750.6844 253.70349Q749.98126 254.46912 749.1219 254.46912Q748.79376 254.46912 748.4969 254.39099Q748.2 254.29724 747.59064 253.96912Q746.85626 253.56287 746.40314 253.56287Q746.0594 253.56287 745.73126 253.75037Q745.41876 253.92224 744.95 254.48474ZM751.4344 258.29724L754.59064 248.28162L755.7625 248.28162L759.1219 258.29724L757.8875 258.29724L756.91876 255.26599L753.4969 255.26599L752.59064 258.29724L751.4344 258.29724ZM753.8094 254.18787L756.59064 254.18787L755.73126 251.40662Q755.34064 250.12537 755.15314 249.32849Q754.9969 250.29724 754.71564 251.23474L753.8094 254.18787ZM764.09064 258.29724L764.09064 257.23474Q763.7469 257.84412 763.2625 258.15662Q762.79376 258.46912 762.2 258.46912Q761.4969 258.46912 760.9969 258.09412Q760.4969 257.7035 760.325 257.12537Q760.16876 256.54724 760.16876 255.53162L760.16876 251.03162L761.16876 251.03162L761.16876 255.06287Q761.16876 256.18787 761.27814 256.56287Q761.40314 256.93787 761.7 257.17224Q762.0125 257.40662 762.40314 257.40662Q763.1219 257.40662 763.59064 256.81287Q763.98126 256.29724 763.98126 254.92224L763.98126 251.03162L764.9969 251.03162L764.9969 258.29724L764.09064 258.29724ZM770.09064 255.64099L771.09064 255.79724Q770.91876 257.09412 770.23126 257.78162Q769.54376 258.46912 768.575 258.46912Q767.40314 258.46912 766.6375 257.516Q765.8875 256.54724 765.8875 254.65662Q765.8875 252.76599 766.65314 251.82849Q767.41876 250.87537 768.6219 250.87537Q769.54376 250.87537 770.16876 251.45349Q770.8094 252.01599 770.98126 253.17224L769.9969 253.35974Q769.85626 252.60974 769.4969 252.25037Q769.15314 251.89099 768.65314 251.89099Q767.90314 251.89099 767.41876 252.54724Q766.9344 253.20349 766.9344 254.64099Q766.9344 256.12537 767.3875 256.79724Q767.85626 257.4535 768.59064 257.4535Q769.16876 257.4535 769.575 257.016Q769.98126 256.56287 770.09064 255.64099ZM774.4344 257.2035L774.575 258.28162Q774.15314 258.391 773.825 258.391Q773.29376 258.391 772.96564 258.18787Q772.65314 257.96912 772.52814 257.60974Q772.41876 257.25037 772.41876 256.17224L772.41876 252.00037L771.66876 252.00037L771.66876 251.03162L772.41876 251.03162L772.41876 249.23474L773.41876 248.50037L773.41876 251.03162L774.4344 251.03162L774.4344 252.00037L773.41876 252.00037L773.41876 256.23474Q773.41876 256.8285 773.5125 257.00037Q773.6375 257.25037 773.9969 257.25037Q774.16876 257.25037 774.4344 257.2035ZM775.1844 249.68787L775.1844 248.28162L776.2 248.28162L776.2 249.68787L775.1844 249.68787ZM775.1844 258.29724L775.1844 251.03162L776.2 251.03162L776.2 258.29724L775.1844 258.29724ZM777.8094 254.67224Q777.8094 252.78162 778.59064 251.82849Q779.3875 250.87537 780.60626 250.87537Q781.79376 250.87537 782.59064 251.82849Q783.3875 252.78162 783.3875 254.59412Q783.3875 256.54724 782.60626 257.516Q781.825 258.46912 780.60626 258.46912Q779.40314 258.46912 778.60626 257.516Q777.8094 256.54724 777.8094 254.67224ZM778.84064 254.67224Q778.84064 256.0785 779.35626 256.766Q779.8719 257.4535 780.6219 257.4535Q781.34064 257.4535 781.84064 256.766Q782.35626 256.06287 782.35626 254.67224Q782.35626 253.26599 781.84064 252.57849Q781.34064 251.89099 780.575 251.89099Q779.85626 251.89099 779.34064 252.57849Q778.84064 253.26599 778.84064 254.67224ZM784.1844 258.29724L784.1844 251.03162L785.09064 251.03162L785.09064 252.06287Q785.41876 251.46912 785.8875 251.17224Q786.3719 250.87537 786.9969 250.87537Q787.46564 250.87537 787.8719 251.06287Q788.27814 251.25037 788.52814 251.56287Q788.77814 251.85974 788.90314 252.34412Q789.02814 252.82849 789.02814 253.82849L789.02814 258.29724L788.0125 258.29724L788.0125 253.87537Q788.0125 253.07849 787.8719 252.71912Q787.7469 252.34412 787.45 252.14099Q787.16876 251.93787 786.77814 251.93787Q786.0594 251.93787 785.6219 252.48474Q785.2 253.01599 785.2 254.32849L785.2 258.29724L784.1844 258.29724Z" fill-rule="nonzero"/><path fill="#616161" d="M760.46564 272.85974Q759.85626 272.59412 759.54376 272.0785Q759.23126 271.56287 759.23126 270.81287Q759.23126 269.67224 759.90314 268.9535Q760.575 268.23474 761.59064 268.23474Q762.6219 268.23474 763.29376 268.96912Q763.98126 269.7035 763.98126 270.85974Q763.98126 271.5785 763.66876 272.0785Q763.3719 272.5785 762.77814 272.85974Q763.5125 273.15662 763.90314 273.81287Q764.3094 274.46912 764.3094 275.43787Q764.3094 276.78162 763.52814 277.62537Q762.7625 278.46912 761.6219 278.46912Q760.45 278.46912 759.66876 277.62537Q758.90314 276.78162 758.90314 275.40662Q758.90314 274.40662 759.3094 273.75037Q759.73126 273.09412 760.46564 272.85974ZM760.2625 270.78162Q760.2625 271.516 760.65314 271.9535Q761.04376 272.391 761.6219 272.391Q762.16876 272.391 762.5594 271.96912Q762.95 271.53162 762.95 270.84412Q762.95 270.141 762.54376 269.7035Q762.15314 269.25037 761.60626 269.25037Q761.0594 269.25037 760.65314 269.68787Q760.2625 270.12537 760.2625 270.78162ZM759.9344 275.40662Q759.9344 276.3285 760.41876 276.891Q760.91876 277.4535 761.6219 277.4535Q762.3094 277.4535 762.79376 276.90662Q763.27814 276.35974 763.27814 275.4535Q763.27814 274.516 762.77814 273.9535Q762.27814 273.391 761.59064 273.391Q760.90314 273.391 760.41876 273.9535Q759.9344 274.516 759.9344 275.40662ZM764.90314 273.35974Q764.90314 270.8285 765.575 269.53162Q766.2625 268.23474 767.59064 268.23474Q768.77814 268.23474 769.45 269.28162Q770.2625 270.56287 770.2625 273.35974Q770.2625 275.85974 769.59064 277.17224Q768.91876 278.46912 767.575 278.46912Q766.40314 278.46912 765.65314 277.3285Q764.90314 276.17224 764.90314 273.35974ZM765.9344 273.35974Q765.9344 275.79724 766.40314 276.62537Q766.8719 277.4535 767.60626 277.4535Q768.29376 277.4535 768.7625 276.62537Q769.23126 275.78162 769.23126 273.35974Q769.23126 270.90662 768.7625 270.0785Q768.29376 269.25037 767.54376 269.25037Q766.85626 269.25037 766.3875 270.09412Q765.9344 270.93787 765.9344 273.35974ZM771.5125 278.29724L771.5125 276.891L772.65314 276.891L772.65314 278.29724L771.5125 278.29724ZM773.90314 273.35974Q773.90314 270.8285 774.575 269.53162Q775.2625 268.23474 776.59064 268.23474Q777.77814 268.23474 778.45 269.28162Q779.2625 270.56287 779.2625 273.35974Q779.2625 275.85974 778.59064 277.17224Q777.91876 278.46912 776.575 278.46912Q775.40314 278.46912 774.65314 277.3285Q773.90314 276.17224 773.90314 273.35974ZM774.9344 273.35974Q774.9344 275.79724 775.40314 276.62537Q775.8719 277.4535 776.60626 277.4535Q777.29376 277.4535 777.7625 276.62537Q778.23126 275.78162 778.23126 273.35974Q778.23126 270.90662 777.7625 270.0785Q777.29376 269.25037 776.54376 269.25037Q775.85626 269.25037 775.3875 270.09412Q774.9344 270.93787 774.9344 273.35974ZM780.09064 270.68787Q780.09064 269.43787 780.59064 268.78162Q781.09064 268.10974 781.8094 268.10974Q782.575 268.10974 783.09064 268.78162Q783.60626 269.43787 783.60626 270.75037Q783.60626 272.04724 783.09064 272.73474Q782.575 273.40662 781.825 273.40662Q781.10626 273.40662 780.59064 272.73474Q780.09064 272.06287 780.09064 270.68787ZM781.85626 268.9535Q781.48126 268.9535 781.23126 269.35974Q780.98126 269.75037 780.98126 270.75037Q780.98126 271.766 781.23126 272.15662Q781.48126 272.54724 781.8719 272.54724Q782.23126 272.54724 782.48126 272.15662Q782.73126 271.75037 782.73126 270.75037Q782.73126 269.766 782.48126 269.35974Q782.23126 268.9535 781.85626 268.9535ZM781.85626 278.67224L786.34064 268.10974L787.16876 268.10974L782.6844 278.67224L781.85626 278.67224ZM785.41876 275.93787Q785.41876 274.68787 785.90314 274.03162Q786.40314 273.37537 787.1219 273.37537Q787.8875 273.37537 788.40314 274.03162Q788.91876 274.68787 788.91876 276.00037Q788.91876 277.31287 788.3875 278.00037Q787.8719 278.67224 787.15314 278.67224Q786.41876 278.67224 785.91876 278.00037Q785.41876 277.31287 785.41876 275.93787ZM787.16876 274.21912Q786.77814 274.21912 786.52814 274.62537Q786.29376 275.016 786.29376 276.016Q786.29376 277.03162 786.54376 277.42224Q786.79376 277.81287 787.1844 277.81287Q787.54376 277.81287 787.79376 277.42224Q788.04376 277.016 788.04376 276.016Q788.04376 275.016 787.79376 274.62537Q787.54376 274.21912 787.16876 274.21912Z" fill-rule="nonzero"/><path stroke="#8a8a8a" stroke-width="1.0" stroke-linecap="butt" d="M789.45 262.79724L576.95 262.79724L497.2242 262.79724" fill-rule="nonzero"/><path fill="#616161" d="M499.2242 262.79724C499.2242 261.69266 498.32877 260.79724 497.2242 260.79724C496.11963 260.79724 495.2242 261.69266 495.2242 262.79724C495.2242 263.9018 496.11963 264.79724 497.2242 264.79724C498.32877 264.79724 499.2242 263.9018 499.2242 262.79724" fill-rule="nonzero"/></svg>